M48
;Layer_Color=9474304
;FILE_FORMAT=2:4
INCH
;TYPE=PLATED
T1F00S00C0.0120
T2F00S00C0.0354
T3F00S00C0.0433
T4F00S00C0.1000
%
T01
X016400Y013400
X017350Y013850
X018400
X018654Y014371
X021103Y014698
X021400Y012750
X016363Y015061
X016376Y015415
X029700Y014300
X029500Y011400
X029600Y016600
X028850Y019350
X028450Y021300
X026850Y025700
X025350Y026100
X025400Y026500
X025100Y027600
X025474Y027999
X025506Y029644
X025925Y029500
X027140Y028965
X028250Y028350
X027800Y027700
X027550Y026950
X026499Y027301
X024604Y025857
X023900Y025216
Y023900
X024110Y023700
X021850Y023097
X020700Y024250
X019950Y024386
X018700Y024250
X018627Y023773
X017700Y024200
X017050
X016300Y025400
X015950Y025950
X016250Y026400
X015929Y026898
X016300Y027400
X017900Y027350
X017950Y030900
X020700Y030650
X022997Y029703
X024445Y030317
X028302Y031152
X023000Y026900
Y026400
X019100Y022550
X016900Y021900
X016600Y019600
X016541Y018324
X018150Y018300
X019050Y018500
X020200Y017900
X020500Y016050
X018259Y017000
X018073Y017227
X017779Y017321
X017450Y016800
X015700Y017000
X020800Y020400
X013450Y018100
X014050Y017350
X015130Y016088
X015013Y015689
X017909Y031398
X024650Y031300
X024950Y031800
X024692Y032359
T02
X015800Y011550
X016800
X017800
X018800
X031458Y018504
X032458
Y019504
Y020504
Y021504
Y022504
Y023504
Y024504
Y025504
Y026504
Y027504
Y028504
Y029504
Y030504
X031458
Y029504
Y028504
Y027504
Y026504
Y025504
Y024504
Y023504
Y022504
Y021504
Y020504
Y019504
X030458
Y020504
Y021504
Y022504
Y023504
Y024504
Y025504
Y026504
Y027504
Y028504
Y029504
Y030504
Y018504
X014350Y021650
X013350
Y022650
X014350
Y023650
X013350
Y024650
X014350
Y025650
X013350
Y026650
X014350
Y027650
X013350
Y028650
X014350
Y029650
X013350
Y030650
X014350
Y031650
X013350
Y032650
X014350
Y033650
X013350
X025650Y033550
X026650
X027650
X028650
Y032300
X027650
X026650
X025650
X026050Y034900
X027050
X028050
X029050
X030050
X030458Y033504
Y032504
Y031504
X025050Y034900
X031458Y033504
X032458
Y032504
Y031504
X031458
Y032504
T03
X031400Y014416
Y016384
T04
X013650Y011300
X031900
X013650Y035300
X031900
M30
