G04*
G04 #@! TF.GenerationSoftware,Altium Limited,Altium Designer,20.1.14 (287)*
G04*
G04 Layer_Color=8388736*
%FSLAX24Y24*%
%MOIN*%
G70*
G04*
G04 #@! TF.SameCoordinates,D1A17965-E816-498F-87AB-38A2C5CE3A16*
G04*
G04*
G04 #@! TF.FilePolarity,Negative*
G04*
G01*
G75*
%ADD22R,0.0354X0.0295*%
%ADD31R,0.0591X0.1299*%
%ADD32R,0.0591X0.0472*%
%ADD48R,0.0385X0.0227*%
%ADD49R,0.0385X0.0345*%
%ADD50R,0.0837X0.0404*%
%ADD51R,0.0404X0.0837*%
%ADD52R,0.0574X0.0574*%
%ADD53R,0.0365X0.0404*%
%ADD54R,0.0424X0.0404*%
%ADD55R,0.0404X0.0345*%
%ADD56R,0.0424X0.1428*%
%ADD57R,0.4125X0.3593*%
%ADD58R,0.0404X0.0444*%
%ADD59R,0.0562X0.0798*%
%ADD60R,0.0680X0.0908*%
%ADD61R,0.0680X0.0916*%
%ADD62R,0.0404X0.0365*%
%ADD63R,0.0562X0.0444*%
%ADD64R,0.0641X0.1349*%
%ADD65R,0.0641X0.0522*%
%ADD66R,0.0345X0.0404*%
%ADD67R,0.0345X0.0385*%
%ADD68R,0.0326X0.0404*%
%ADD69R,0.0404X0.0326*%
%ADD70R,0.0483X0.0444*%
%ADD71R,0.0582X0.0207*%
%ADD72R,0.0582X0.0286*%
%ADD73R,0.0465X0.0168*%
%ADD74R,0.0168X0.0465*%
%ADD75R,0.0650X0.0650*%
%ADD76R,0.0798X0.0404*%
%ADD77R,0.0798X0.1310*%
%ADD78R,0.0424X0.0424*%
%ADD79R,0.0365X0.0365*%
%ADD80R,0.0444X0.0562*%
%ADD81C,0.0641*%
%ADD82R,0.0641X0.0641*%
%ADD83R,0.0641X0.0641*%
%ADD84C,0.0680*%
%ADD85R,0.0680X0.0680*%
%ADD86C,0.2250*%
%ADD87C,0.0270*%
D22*
X29150Y14486D02*
D03*
Y14014D02*
D03*
X28650Y10914D02*
D03*
Y11386D02*
D03*
X18455Y12916D02*
D03*
Y13388D02*
D03*
D31*
X23090Y12694D02*
D03*
D32*
X20570Y11789D02*
D03*
Y12694D02*
D03*
Y13600D02*
D03*
D48*
X29200Y20405D02*
D03*
Y20995D02*
D03*
X29150Y16055D02*
D03*
Y16645D02*
D03*
X24400Y11395D02*
D03*
Y10805D02*
D03*
X28400Y22455D02*
D03*
Y23045D02*
D03*
D49*
X29100Y28006D02*
D03*
Y27494D02*
D03*
X19550Y15694D02*
D03*
Y16206D02*
D03*
X19230Y14589D02*
D03*
Y15100D02*
D03*
X19830Y15100D02*
D03*
Y14589D02*
D03*
D50*
X17100Y31900D02*
D03*
Y31400D02*
D03*
Y30900D02*
D03*
Y30400D02*
D03*
Y29900D02*
D03*
Y29400D02*
D03*
Y28900D02*
D03*
Y28400D02*
D03*
Y27900D02*
D03*
Y27400D02*
D03*
Y26900D02*
D03*
Y26400D02*
D03*
Y25900D02*
D03*
Y25400D02*
D03*
X23793D02*
D03*
Y25900D02*
D03*
Y26400D02*
D03*
Y26900D02*
D03*
Y27400D02*
D03*
Y27900D02*
D03*
Y28400D02*
D03*
Y28900D02*
D03*
Y29400D02*
D03*
Y29900D02*
D03*
Y30400D02*
D03*
Y30900D02*
D03*
Y31400D02*
D03*
Y31900D02*
D03*
D51*
X18196Y25006D02*
D03*
X18696D02*
D03*
X19196D02*
D03*
X19696D02*
D03*
X20196D02*
D03*
X20696D02*
D03*
X21196D02*
D03*
X21696D02*
D03*
X22196D02*
D03*
X22696D02*
D03*
D52*
X19330Y29670D02*
D03*
X20053D02*
D03*
X20775D02*
D03*
X19330Y28947D02*
D03*
X20053D02*
D03*
X20775D02*
D03*
X19330Y28225D02*
D03*
X20053D02*
D03*
X20775D02*
D03*
D53*
X16069Y17492D02*
D03*
X15576D02*
D03*
X15996Y13150D02*
D03*
X15504D02*
D03*
D54*
X15763Y15211D02*
D03*
Y16451D02*
D03*
X28950Y29453D02*
D03*
Y30693D02*
D03*
X28025Y29453D02*
D03*
Y30693D02*
D03*
X27100Y29453D02*
D03*
Y30693D02*
D03*
X14663Y18481D02*
D03*
Y19721D02*
D03*
X13613Y18481D02*
D03*
Y19721D02*
D03*
D55*
X29150Y18900D02*
D03*
Y18428D02*
D03*
X26250Y22936D02*
D03*
Y22464D02*
D03*
X19567Y23317D02*
D03*
Y22845D02*
D03*
X20517Y23311D02*
D03*
Y22839D02*
D03*
X17605Y12916D02*
D03*
Y13388D02*
D03*
D56*
X27450Y22450D02*
D03*
X25450D02*
D03*
X25500Y11100D02*
D03*
X27500D02*
D03*
D57*
X26450Y18611D02*
D03*
X26500Y14939D02*
D03*
D58*
X15906Y31550D02*
D03*
X15394D02*
D03*
X19756Y19750D02*
D03*
X19244D02*
D03*
X19188Y17050D02*
D03*
X19700D02*
D03*
X19244Y18950D02*
D03*
X19756D02*
D03*
X19765Y21450D02*
D03*
X19254D02*
D03*
D59*
X15717Y23630D02*
D03*
Y22370D02*
D03*
X17883Y23630D02*
D03*
Y22370D02*
D03*
D60*
X22700Y17841D02*
D03*
X21200D02*
D03*
D61*
X22700Y21459D02*
D03*
X21200D02*
D03*
D62*
X21417Y22829D02*
D03*
Y23321D02*
D03*
X22317Y22829D02*
D03*
Y23321D02*
D03*
X19205Y13398D02*
D03*
Y12906D02*
D03*
D63*
X23317Y22780D02*
D03*
Y23370D02*
D03*
D64*
X23100Y15600D02*
D03*
D65*
X20580Y14694D02*
D03*
Y15600D02*
D03*
Y16506D02*
D03*
D66*
X19264Y17950D02*
D03*
X19736D02*
D03*
X19259Y20650D02*
D03*
X19732D02*
D03*
D67*
X15394Y30650D02*
D03*
X15906D02*
D03*
D68*
X16041Y14534D02*
D03*
X15450D02*
D03*
D69*
X16805Y12880D02*
D03*
Y13470D02*
D03*
D70*
X26100Y29950D02*
D03*
Y30501D02*
D03*
X25250Y29950D02*
D03*
Y30501D02*
D03*
D71*
X28252Y27196D02*
D03*
Y27452D02*
D03*
Y27707D02*
D03*
Y26940D02*
D03*
Y26684D02*
D03*
X25948D02*
D03*
Y26940D02*
D03*
Y27707D02*
D03*
Y27452D02*
D03*
Y27196D02*
D03*
Y26428D02*
D03*
Y26172D02*
D03*
Y25916D02*
D03*
Y25660D02*
D03*
Y24893D02*
D03*
Y25148D02*
D03*
Y25404D02*
D03*
X28252D02*
D03*
Y25148D02*
D03*
Y24893D02*
D03*
Y25660D02*
D03*
Y25916D02*
D03*
Y26172D02*
D03*
Y26428D02*
D03*
D72*
X25948Y28003D02*
D03*
Y24597D02*
D03*
X28252D02*
D03*
Y28003D02*
D03*
D73*
X18561Y16019D02*
D03*
X16946D02*
D03*
Y15822D02*
D03*
Y15625D02*
D03*
Y15428D02*
D03*
Y15231D02*
D03*
Y15034D02*
D03*
X18561D02*
D03*
Y15231D02*
D03*
Y15428D02*
D03*
Y15625D02*
D03*
Y15822D02*
D03*
D74*
X17261Y14719D02*
D03*
X17458D02*
D03*
X17655D02*
D03*
X17852D02*
D03*
X18049D02*
D03*
X18246D02*
D03*
X18049Y16334D02*
D03*
X17852D02*
D03*
X17655D02*
D03*
X17458D02*
D03*
X17261D02*
D03*
X18246D02*
D03*
D75*
X17753Y15526D02*
D03*
D76*
X15843Y20135D02*
D03*
Y19230D02*
D03*
Y18324D02*
D03*
D77*
X18166Y19230D02*
D03*
D78*
X16596Y21500D02*
D03*
X16104D02*
D03*
X15996Y24550D02*
D03*
X15504D02*
D03*
D79*
X15355Y32450D02*
D03*
X15945D02*
D03*
D80*
X16041Y13884D02*
D03*
X15450D02*
D03*
D81*
X30050Y34900D02*
D03*
X29050D02*
D03*
X28050D02*
D03*
X27050D02*
D03*
X26050D02*
D03*
X32458Y33504D02*
D03*
Y32504D02*
D03*
Y31504D02*
D03*
Y30504D02*
D03*
Y29504D02*
D03*
Y28504D02*
D03*
Y27504D02*
D03*
Y26504D02*
D03*
Y25504D02*
D03*
Y24504D02*
D03*
Y23504D02*
D03*
Y22504D02*
D03*
Y21504D02*
D03*
Y20504D02*
D03*
Y19504D02*
D03*
X31458Y33504D02*
D03*
Y32504D02*
D03*
Y31504D02*
D03*
Y30504D02*
D03*
Y29504D02*
D03*
Y28504D02*
D03*
Y27504D02*
D03*
Y26504D02*
D03*
Y25504D02*
D03*
Y24504D02*
D03*
Y23504D02*
D03*
Y22504D02*
D03*
Y21504D02*
D03*
Y20504D02*
D03*
Y19504D02*
D03*
X30458Y33504D02*
D03*
Y32504D02*
D03*
Y31504D02*
D03*
Y30504D02*
D03*
Y29504D02*
D03*
Y28504D02*
D03*
Y27504D02*
D03*
Y26504D02*
D03*
Y25504D02*
D03*
Y24504D02*
D03*
Y23504D02*
D03*
Y22504D02*
D03*
Y21504D02*
D03*
Y20504D02*
D03*
Y19504D02*
D03*
X26650Y33550D02*
D03*
X27650D02*
D03*
X28650D02*
D03*
X13350Y21650D02*
D03*
X14350Y22650D02*
D03*
X13350D02*
D03*
X14350Y23650D02*
D03*
X13350D02*
D03*
X14350Y24650D02*
D03*
X13350D02*
D03*
X14350Y25650D02*
D03*
X13350D02*
D03*
X14350Y26650D02*
D03*
X13350D02*
D03*
X14350Y27650D02*
D03*
X13350D02*
D03*
X14350Y28650D02*
D03*
X13350D02*
D03*
X14350Y29650D02*
D03*
X13350D02*
D03*
X14350Y30650D02*
D03*
X13350D02*
D03*
X14350Y31650D02*
D03*
X13350D02*
D03*
X14350Y32650D02*
D03*
X13350D02*
D03*
X14350Y33650D02*
D03*
X13350D02*
D03*
X18800Y11550D02*
D03*
X17800D02*
D03*
X16800D02*
D03*
X28650Y32300D02*
D03*
X27650D02*
D03*
X26650D02*
D03*
D82*
X25050Y34900D02*
D03*
X25650Y33550D02*
D03*
X15800Y11550D02*
D03*
X25650Y32300D02*
D03*
D83*
X32458Y18504D02*
D03*
X31458D02*
D03*
X30458D02*
D03*
X14350Y21650D02*
D03*
D84*
X31400Y16384D02*
D03*
D85*
Y14416D02*
D03*
D86*
X31900Y11300D02*
D03*
Y35300D02*
D03*
X13650D02*
D03*
Y11300D02*
D03*
D87*
X17950Y30900D02*
D03*
X16300Y25400D02*
D03*
X15950Y25950D02*
D03*
X24650Y31300D02*
D03*
X24604Y25857D02*
D03*
X18700Y24250D02*
D03*
X20700D02*
D03*
X23000Y26400D02*
D03*
X19950Y24386D02*
D03*
X23900Y25216D02*
D03*
X18627Y23773D02*
D03*
X15929Y26898D02*
D03*
X17909Y31398D02*
D03*
X24445Y30317D02*
D03*
X25350Y26100D02*
D03*
X17700Y24200D02*
D03*
X17900Y27350D02*
D03*
X22997Y29703D02*
D03*
X16300Y27400D02*
D03*
X23000Y26900D02*
D03*
X16250Y26400D02*
D03*
X20700Y30650D02*
D03*
X25925Y29500D02*
D03*
X25506Y29644D02*
D03*
X27140Y28965D02*
D03*
X27800Y27700D02*
D03*
X17779Y17321D02*
D03*
X17450Y16800D02*
D03*
X16376Y15415D02*
D03*
X18259Y17000D02*
D03*
X16363Y15061D02*
D03*
X18073Y17227D02*
D03*
X17050Y24200D02*
D03*
X16600Y19600D02*
D03*
X16900Y21900D02*
D03*
X15700Y17000D02*
D03*
X14050Y17350D02*
D03*
X19050Y18500D02*
D03*
X18150Y18300D02*
D03*
X24692Y32359D02*
D03*
X24950Y31800D02*
D03*
X13450Y18100D02*
D03*
X28302Y31152D02*
D03*
X16400Y13400D02*
D03*
X28250Y28350D02*
D03*
X28450Y21300D02*
D03*
X28850Y19350D02*
D03*
X29600Y16600D02*
D03*
X29700Y14300D02*
D03*
X29500Y11400D02*
D03*
X25100Y27600D02*
D03*
X27550Y26950D02*
D03*
X25400Y26500D02*
D03*
X26850Y25700D02*
D03*
X25474Y27999D02*
D03*
X26499Y27301D02*
D03*
X23900Y23900D02*
D03*
X21850Y23097D02*
D03*
X19100Y22550D02*
D03*
X20800Y20400D02*
D03*
X24110Y23700D02*
D03*
X20200Y17900D02*
D03*
X16541Y18324D02*
D03*
X15013Y15689D02*
D03*
X17350Y13850D02*
D03*
X21103Y14698D02*
D03*
X18654Y14371D02*
D03*
X20500Y16050D02*
D03*
X21400Y12750D02*
D03*
X18400Y13850D02*
D03*
X15130Y16088D02*
D03*
M02*
