G04*
G04 #@! TF.GenerationSoftware,Altium Limited,Altium Designer,20.1.14 (287)*
G04*
G04 Layer_Physical_Order=2*
G04 Layer_Color=16711680*
%FSLAX24Y24*%
%MOIN*%
G70*
G04*
G04 #@! TF.SameCoordinates,D1A17965-E816-498F-87AB-38A2C5CE3A16*
G04*
G04*
G04 #@! TF.FilePolarity,Positive*
G04*
G01*
G75*
%ADD88C,0.0080*%
%ADD89C,0.0200*%
%ADD90C,0.0120*%
%ADD91C,0.0100*%
%ADD92C,0.0591*%
%ADD93R,0.0591X0.0591*%
%ADD94R,0.0591X0.0591*%
%ADD95C,0.0630*%
%ADD96R,0.0630X0.0630*%
%ADD97C,0.2200*%
%ADD98C,0.0220*%
%ADD99R,0.1378X0.0374*%
%ADD100R,0.3543X0.4075*%
G36*
X31215Y36297D02*
X31228Y36249D01*
X31216Y36241D01*
X31077Y36123D01*
X30959Y35984D01*
X30863Y35828D01*
X30793Y35660D01*
X30751Y35482D01*
X30740Y35350D01*
X31900D01*
Y35300D01*
X31950D01*
Y34140D01*
X32082Y34151D01*
X32260Y34193D01*
X32428Y34263D01*
X32584Y34359D01*
X32723Y34477D01*
X32841Y34616D01*
X32849Y34628D01*
X32897Y34615D01*
X32897Y11985D01*
X32849Y11972D01*
X32841Y11984D01*
X32723Y12123D01*
X32584Y12241D01*
X32428Y12337D01*
X32260Y12407D01*
X32082Y12449D01*
X31950Y12460D01*
Y11300D01*
X31900D01*
Y11250D01*
X30740D01*
X30751Y11118D01*
X30793Y10940D01*
X30863Y10772D01*
X30959Y10616D01*
X31077Y10477D01*
X31216Y10359D01*
X31228Y10351D01*
X31215Y10303D01*
X14335Y10303D01*
X14322Y10351D01*
X14334Y10359D01*
X14473Y10477D01*
X14591Y10616D01*
X14687Y10772D01*
X14757Y10940D01*
X14799Y11118D01*
X14810Y11250D01*
X13650D01*
Y11300D01*
X13600D01*
Y12460D01*
X13468Y12449D01*
X13290Y12407D01*
X13122Y12337D01*
X12966Y12241D01*
X12827Y12123D01*
X12709Y11984D01*
X12701Y11972D01*
X12653Y11985D01*
X12653Y34615D01*
X12701Y34628D01*
X12709Y34616D01*
X12827Y34477D01*
X12966Y34359D01*
X13122Y34263D01*
X13290Y34193D01*
X13468Y34151D01*
X13600Y34140D01*
Y35300D01*
X13650D01*
Y35350D01*
X14810D01*
X14799Y35482D01*
X14757Y35660D01*
X14687Y35828D01*
X14591Y35984D01*
X14473Y36123D01*
X14334Y36241D01*
X14322Y36249D01*
X14335Y36297D01*
X31215Y36297D01*
D02*
G37*
%LPC*%
G36*
X26100Y35252D02*
Y34950D01*
X26402D01*
X26396Y34993D01*
X26360Y35079D01*
X26303Y35153D01*
X26229Y35210D01*
X26143Y35246D01*
X26100Y35252D01*
D02*
G37*
G36*
X26000D02*
X25957Y35246D01*
X25871Y35210D01*
X25797Y35153D01*
X25740Y35079D01*
X25704Y34993D01*
X25698Y34950D01*
X26000D01*
Y35252D01*
D02*
G37*
G36*
X26402Y34850D02*
X26100D01*
Y34548D01*
X26143Y34554D01*
X26229Y34590D01*
X26303Y34647D01*
X26360Y34721D01*
X26396Y34807D01*
X26402Y34850D01*
D02*
G37*
G36*
X26000D02*
X25698D01*
X25704Y34807D01*
X25740Y34721D01*
X25797Y34647D01*
X25871Y34590D01*
X25957Y34554D01*
X26000Y34548D01*
Y34850D01*
D02*
G37*
G36*
X25405Y35255D02*
X24695D01*
Y34545D01*
X25405D01*
Y35255D01*
D02*
G37*
G36*
X29050Y35258D02*
X28957Y35246D01*
X28871Y35210D01*
X28797Y35153D01*
X28740Y35079D01*
X28704Y34993D01*
X28692Y34900D01*
X28704Y34807D01*
X28740Y34721D01*
X28797Y34647D01*
X28871Y34590D01*
X28957Y34554D01*
X29050Y34542D01*
X29143Y34554D01*
X29229Y34590D01*
X29303Y34647D01*
X29360Y34721D01*
X29396Y34807D01*
X29408Y34900D01*
X29396Y34993D01*
X29360Y35079D01*
X29303Y35153D01*
X29229Y35210D01*
X29143Y35246D01*
X29050Y35258D01*
D02*
G37*
G36*
X31850Y35250D02*
X30740D01*
X30751Y35118D01*
X30793Y34940D01*
X30863Y34772D01*
X30959Y34616D01*
X31077Y34477D01*
X31216Y34359D01*
X31372Y34263D01*
X31540Y34193D01*
X31718Y34151D01*
X31850Y34140D01*
Y35250D01*
D02*
G37*
G36*
X14810D02*
X13700D01*
Y34140D01*
X13832Y34151D01*
X14010Y34193D01*
X14178Y34263D01*
X14334Y34359D01*
X14473Y34477D01*
X14591Y34616D01*
X14687Y34772D01*
X14757Y34940D01*
X14799Y35118D01*
X14810Y35250D01*
D02*
G37*
G36*
X13400Y34002D02*
Y33700D01*
X13702D01*
X13696Y33743D01*
X13660Y33829D01*
X13603Y33903D01*
X13529Y33960D01*
X13443Y33996D01*
X13400Y34002D01*
D02*
G37*
G36*
X13300D02*
X13257Y33996D01*
X13171Y33960D01*
X13097Y33903D01*
X13040Y33829D01*
X13004Y33743D01*
X12998Y33700D01*
X13300D01*
Y34002D01*
D02*
G37*
G36*
X32508Y33855D02*
Y33554D01*
X32810D01*
X32804Y33596D01*
X32768Y33683D01*
X32711Y33757D01*
X32637Y33814D01*
X32551Y33850D01*
X32508Y33855D01*
D02*
G37*
G36*
X32408Y33855D02*
X32365Y33850D01*
X32279Y33814D01*
X32204Y33757D01*
X32148Y33683D01*
X32112Y33596D01*
X32106Y33554D01*
X32408D01*
Y33855D01*
D02*
G37*
G36*
X30050Y35258D02*
X29957Y35246D01*
X29871Y35210D01*
X29797Y35153D01*
X29740Y35079D01*
X29704Y34993D01*
X29692Y34900D01*
X29704Y34807D01*
X29740Y34721D01*
X29797Y34647D01*
X29871Y34590D01*
X29948Y34558D01*
Y34433D01*
X29053Y33538D01*
X29007Y33563D01*
X28996Y33643D01*
X28960Y33729D01*
X28903Y33803D01*
X28829Y33860D01*
X28743Y33896D01*
X28650Y33908D01*
X28557Y33896D01*
X28471Y33860D01*
X28397Y33803D01*
X28340Y33729D01*
X28304Y33643D01*
X28292Y33550D01*
X28304Y33457D01*
X28340Y33371D01*
X28397Y33297D01*
X28471Y33240D01*
X28557Y33204D01*
X28637Y33193D01*
X28662Y33147D01*
X28014Y32500D01*
X27945D01*
X27903Y32553D01*
X27829Y32610D01*
X27743Y32646D01*
X27663Y32657D01*
X27638Y32703D01*
X28117Y33182D01*
X28139Y33215D01*
X28147Y33254D01*
Y34326D01*
X28152Y34350D01*
Y34558D01*
X28229Y34590D01*
X28303Y34647D01*
X28360Y34721D01*
X28396Y34807D01*
X28408Y34900D01*
X28396Y34993D01*
X28360Y35079D01*
X28303Y35153D01*
X28229Y35210D01*
X28143Y35246D01*
X28050Y35258D01*
X27957Y35246D01*
X27871Y35210D01*
X27797Y35153D01*
X27740Y35079D01*
X27704Y34993D01*
X27692Y34900D01*
X27704Y34807D01*
X27740Y34721D01*
X27797Y34647D01*
X27871Y34590D01*
X27948Y34558D01*
Y34369D01*
X27943Y34345D01*
Y33827D01*
X27893Y33811D01*
X27829Y33860D01*
X27743Y33896D01*
X27650Y33908D01*
X27557Y33896D01*
X27471Y33860D01*
X27397Y33803D01*
X27340Y33729D01*
X27304Y33643D01*
X27292Y33550D01*
X27304Y33457D01*
X27340Y33371D01*
X27397Y33297D01*
X27471Y33240D01*
X27557Y33204D01*
X27650Y33192D01*
X27743Y33204D01*
X27806Y33230D01*
X27835Y33188D01*
X27183Y32536D01*
X27161Y32503D01*
X27153Y32464D01*
Y32388D01*
X27053Y32288D01*
X27007Y32313D01*
X26996Y32393D01*
X26960Y32479D01*
X26903Y32553D01*
X26829Y32610D01*
X26743Y32646D01*
X26650Y32658D01*
X26557Y32646D01*
X26471Y32610D01*
X26397Y32553D01*
X26340Y32479D01*
X26304Y32393D01*
X26292Y32300D01*
X26304Y32207D01*
X26311Y32191D01*
X26082Y31963D01*
X26005D01*
Y32250D01*
X25295D01*
Y31963D01*
X25001D01*
X24982Y31967D01*
X24965Y32021D01*
X25172Y32228D01*
X25194Y32261D01*
X25202Y32300D01*
Y33690D01*
X25249Y33736D01*
X25295Y33717D01*
Y33600D01*
X26005D01*
Y33843D01*
X26373D01*
X26389Y33793D01*
X26340Y33729D01*
X26304Y33643D01*
X26292Y33550D01*
X26304Y33457D01*
X26340Y33371D01*
X26397Y33297D01*
X26471Y33240D01*
X26557Y33204D01*
X26650Y33192D01*
X26743Y33204D01*
X26829Y33240D01*
X26903Y33297D01*
X26960Y33371D01*
X26996Y33457D01*
X27008Y33550D01*
X26996Y33643D01*
X26960Y33729D01*
X26903Y33803D01*
X26829Y33860D01*
X26791Y33876D01*
X26779Y33935D01*
X27122Y34278D01*
X27144Y34311D01*
X27152Y34350D01*
Y34558D01*
X27229Y34590D01*
X27303Y34647D01*
X27360Y34721D01*
X27396Y34807D01*
X27408Y34900D01*
X27396Y34993D01*
X27360Y35079D01*
X27303Y35153D01*
X27229Y35210D01*
X27143Y35246D01*
X27050Y35258D01*
X26957Y35246D01*
X26871Y35210D01*
X26797Y35153D01*
X26740Y35079D01*
X26704Y34993D01*
X26692Y34900D01*
X26704Y34807D01*
X26740Y34721D01*
X26797Y34647D01*
X26871Y34590D01*
X26948Y34558D01*
Y34392D01*
X26603Y34047D01*
X25313D01*
X25274Y34039D01*
X25241Y34017D01*
X25028Y33804D01*
X25006Y33771D01*
X24998Y33732D01*
Y32342D01*
X22478Y29822D01*
X22456Y29789D01*
X22448Y29750D01*
Y26850D01*
X22456Y26811D01*
X22478Y26778D01*
X22831Y26424D01*
X22827Y26400D01*
X22840Y26334D01*
X22877Y26277D01*
X22934Y26240D01*
X23000Y26227D01*
X23066Y26240D01*
X23123Y26277D01*
X23160Y26334D01*
X23173Y26400D01*
X23160Y26466D01*
X23123Y26523D01*
X23066Y26560D01*
X23000Y26573D01*
X22976Y26569D01*
X22652Y26892D01*
Y27039D01*
X22698Y27058D01*
X22831Y26924D01*
X22827Y26900D01*
X22840Y26834D01*
X22877Y26777D01*
X22934Y26740D01*
X23000Y26727D01*
X23066Y26740D01*
X23123Y26777D01*
X23160Y26834D01*
X23173Y26900D01*
X23160Y26966D01*
X23123Y27023D01*
X23066Y27060D01*
X23000Y27073D01*
X22976Y27069D01*
X22792Y27252D01*
Y29621D01*
X22814Y29628D01*
X22842Y29629D01*
X22842Y29629D01*
X22875Y29580D01*
X22931Y29542D01*
X22997Y29529D01*
X23022Y29534D01*
X24008Y28548D01*
Y25404D01*
X23958Y25378D01*
X23900Y25390D01*
X23834Y25376D01*
X23777Y25339D01*
X23740Y25283D01*
X23727Y25216D01*
X23740Y25150D01*
X23777Y25094D01*
X23798Y25080D01*
Y24842D01*
X22278Y23322D01*
X22256Y23289D01*
X22248Y23250D01*
Y21095D01*
X21655Y20502D01*
X20936D01*
X20923Y20523D01*
X20866Y20560D01*
X20800Y20573D01*
X20734Y20560D01*
X20677Y20523D01*
X20640Y20466D01*
X20627Y20400D01*
X20640Y20334D01*
X20677Y20277D01*
X20698Y20264D01*
Y16875D01*
X20706Y16836D01*
X20728Y16803D01*
X21298Y16233D01*
Y14802D01*
X21248Y14787D01*
X21226Y14820D01*
X21169Y14858D01*
X21103Y14871D01*
X21037Y14858D01*
X20981Y14820D01*
X20967Y14800D01*
X19794D01*
X18352Y16242D01*
Y16858D01*
X18381Y16877D01*
X18419Y16934D01*
X18432Y17000D01*
X18419Y17066D01*
X18381Y17123D01*
X18325Y17160D01*
X18280Y17169D01*
X18245Y17218D01*
X18247Y17227D01*
X18234Y17293D01*
X18196Y17349D01*
X18140Y17387D01*
X18073Y17400D01*
X18007Y17387D01*
X17992Y17377D01*
X17939Y17387D01*
X17902Y17443D01*
X17845Y17481D01*
X17779Y17494D01*
X17713Y17481D01*
X17657Y17443D01*
X17621Y17391D01*
X17608Y17388D01*
X17575Y17366D01*
X17058Y16849D01*
X17036Y16816D01*
X17028Y16777D01*
Y15980D01*
X16978Y15959D01*
X16663Y16275D01*
Y18201D01*
X16663Y18201D01*
X16701Y18258D01*
X16714Y18324D01*
X16714Y18324D01*
X19187Y20797D01*
X19213Y20837D01*
X19222Y20883D01*
Y22427D01*
X19223Y22427D01*
X19260Y22484D01*
X19273Y22550D01*
X19260Y22616D01*
X19223Y22673D01*
X19166Y22710D01*
X19100Y22723D01*
X19034Y22710D01*
X18977Y22673D01*
X18940Y22616D01*
X18927Y22550D01*
X18940Y22484D01*
X18977Y22427D01*
X18978Y22427D01*
Y20934D01*
X16541Y18497D01*
X16541Y18497D01*
X16474Y18484D01*
X16418Y18447D01*
X16380Y18390D01*
X16367Y18324D01*
X16380Y18258D01*
X16418Y18201D01*
X16418Y18201D01*
Y16224D01*
X16428Y16177D01*
X16454Y16137D01*
X16800Y15791D01*
Y15393D01*
X16602Y15195D01*
X16488D01*
X16468Y15218D01*
X16476Y15277D01*
X16499Y15292D01*
X16536Y15349D01*
X16550Y15415D01*
X16536Y15481D01*
X16499Y15537D01*
X16443Y15575D01*
X16376Y15588D01*
X16310Y15575D01*
X16254Y15537D01*
X16240Y15517D01*
X15330D01*
X15181Y15665D01*
X15186Y15689D01*
X15173Y15756D01*
X15136Y15812D01*
X15079Y15849D01*
X15013Y15863D01*
X14947Y15849D01*
X14890Y15812D01*
X14872Y15785D01*
X14822Y15800D01*
Y15965D01*
X15007D01*
X15007Y15965D01*
X15063Y15927D01*
X15130Y15914D01*
X15196Y15927D01*
X15252Y15965D01*
X15290Y16021D01*
X15303Y16088D01*
X15290Y16154D01*
X15252Y16210D01*
X15196Y16248D01*
X15130Y16261D01*
X15063Y16248D01*
X15007Y16210D01*
X15007Y16210D01*
X14770D01*
X14723Y16201D01*
X14684Y16174D01*
X14613Y16104D01*
X14587Y16064D01*
X14578Y16017D01*
Y13750D01*
X14587Y13703D01*
X14613Y13663D01*
X15678Y12599D01*
Y11905D01*
X15445D01*
Y11195D01*
X16155D01*
Y11905D01*
X15922D01*
Y12650D01*
X15913Y12697D01*
X15887Y12737D01*
X14822Y13801D01*
Y15579D01*
X14872Y15594D01*
X14890Y15567D01*
X14947Y15529D01*
X15013Y15516D01*
X15037Y15521D01*
X15215Y15343D01*
X15248Y15321D01*
X15287Y15313D01*
X16240D01*
X16254Y15292D01*
X16287Y15270D01*
X16290Y15255D01*
X16285Y15213D01*
X16240Y15183D01*
X16203Y15127D01*
X16190Y15061D01*
X16203Y14994D01*
X16240Y14938D01*
X16278Y14913D01*
Y13523D01*
X16277Y13523D01*
X16240Y13466D01*
X16227Y13400D01*
X16240Y13334D01*
X16277Y13277D01*
X16334Y13240D01*
X16400Y13227D01*
X16466Y13240D01*
X16523Y13277D01*
X16560Y13334D01*
X16573Y13400D01*
X16560Y13466D01*
X16523Y13523D01*
X16522Y13523D01*
Y14950D01*
X16653D01*
X16659Y14952D01*
X16698Y14920D01*
Y11892D01*
X16621Y11860D01*
X16547Y11803D01*
X16490Y11729D01*
X16454Y11643D01*
X16442Y11550D01*
X16454Y11457D01*
X16490Y11371D01*
X16547Y11297D01*
X16621Y11240D01*
X16707Y11204D01*
X16800Y11192D01*
X16893Y11204D01*
X16979Y11240D01*
X17053Y11297D01*
X17110Y11371D01*
X17146Y11457D01*
X17158Y11550D01*
X17146Y11643D01*
X17110Y11729D01*
X17053Y11803D01*
X16979Y11860D01*
X16902Y11892D01*
Y14951D01*
X17202Y15252D01*
X17225Y15285D01*
X17232Y15324D01*
Y16694D01*
X17251Y16708D01*
X17315Y16696D01*
X17327Y16677D01*
X17348Y16664D01*
Y15575D01*
X17356Y15536D01*
X17378Y15503D01*
X18486Y14395D01*
X18481Y14371D01*
X18494Y14305D01*
X18522Y14262D01*
X18502Y14212D01*
X17314D01*
X17275Y14205D01*
X17241Y14183D01*
X17068Y14009D01*
X17046Y13976D01*
X17038Y13937D01*
Y13193D01*
X17046Y13154D01*
X17068Y13120D01*
X17698Y12490D01*
Y11892D01*
X17621Y11860D01*
X17547Y11803D01*
X17490Y11729D01*
X17454Y11643D01*
X17442Y11550D01*
X17454Y11457D01*
X17490Y11371D01*
X17547Y11297D01*
X17621Y11240D01*
X17707Y11204D01*
X17800Y11192D01*
X17893Y11204D01*
X17979Y11240D01*
X18053Y11297D01*
X18110Y11371D01*
X18146Y11457D01*
X18158Y11550D01*
X18146Y11643D01*
X18110Y11729D01*
X18053Y11803D01*
X17979Y11860D01*
X17902Y11892D01*
Y12533D01*
X17894Y12572D01*
X17872Y12605D01*
X17242Y13235D01*
Y13663D01*
X17292Y13688D01*
X17350Y13677D01*
X17416Y13690D01*
X17473Y13727D01*
X17473Y13728D01*
X18277D01*
X18277Y13727D01*
X18334Y13690D01*
X18400Y13677D01*
X18466Y13690D01*
X18523Y13727D01*
X18560Y13784D01*
X18573Y13850D01*
X18560Y13916D01*
X18532Y13959D01*
X18552Y14009D01*
X18691D01*
X18730Y14016D01*
X18763Y14038D01*
X18936Y14212D01*
X18958Y14245D01*
X18966Y14284D01*
Y15269D01*
X19016Y15290D01*
X19680Y14626D01*
X19713Y14604D01*
X19752Y14596D01*
X20967D01*
X20981Y14575D01*
X21037Y14538D01*
X21103Y14524D01*
X21169Y14538D01*
X21226Y14575D01*
X21248Y14609D01*
X21298Y14593D01*
Y12886D01*
X21277Y12873D01*
X21240Y12816D01*
X21227Y12750D01*
X21240Y12684D01*
X21277Y12627D01*
X21334Y12590D01*
X21400Y12577D01*
X21466Y12590D01*
X21523Y12627D01*
X21560Y12684D01*
X21573Y12750D01*
X21560Y12816D01*
X21523Y12873D01*
X21502Y12886D01*
Y16275D01*
X21494Y16314D01*
X21472Y16347D01*
X20902Y16917D01*
Y20264D01*
X20923Y20277D01*
X20936Y20298D01*
X21697D01*
X21736Y20306D01*
X21769Y20328D01*
X22422Y20981D01*
X22444Y21014D01*
X22452Y21053D01*
Y23208D01*
X23958Y24714D01*
X24008Y24694D01*
Y24152D01*
X23924Y24069D01*
X23900Y24073D01*
X23834Y24060D01*
X23777Y24023D01*
X23740Y23966D01*
X23727Y23900D01*
X23740Y23834D01*
X23777Y23777D01*
X23834Y23740D01*
X23891Y23728D01*
X23908Y23718D01*
X23940Y23684D01*
X23950Y23634D01*
X23987Y23577D01*
X24044Y23540D01*
X24110Y23527D01*
X24176Y23540D01*
X24233Y23577D01*
X24270Y23634D01*
X24283Y23700D01*
X24279Y23724D01*
X24466Y23912D01*
X24488Y23945D01*
X24496Y23984D01*
Y25670D01*
X24546Y25696D01*
X24604Y25684D01*
X24670Y25697D01*
X24727Y25735D01*
X24740Y25755D01*
X26457D01*
X26496Y25763D01*
X26530Y25785D01*
X27526Y26781D01*
X27550Y26777D01*
X27616Y26790D01*
X27673Y26827D01*
X27710Y26884D01*
X27723Y26950D01*
X27710Y27016D01*
X27673Y27073D01*
X27616Y27110D01*
X27550Y27123D01*
X27484Y27110D01*
X27427Y27073D01*
X27390Y27016D01*
X27377Y26950D01*
X27381Y26926D01*
X26415Y25959D01*
X25521D01*
X25494Y26009D01*
X25510Y26034D01*
X25523Y26100D01*
X25514Y26146D01*
X26496Y27128D01*
X26499Y27128D01*
X26565Y27141D01*
X26621Y27179D01*
X26659Y27235D01*
X26672Y27301D01*
X26659Y27368D01*
X26621Y27424D01*
X26565Y27461D01*
X26499Y27475D01*
X26432Y27461D01*
X26376Y27424D01*
X26339Y27368D01*
X26325Y27301D01*
X26335Y27255D01*
X25617Y26537D01*
X25563Y26554D01*
X25560Y26566D01*
X25523Y26623D01*
X25466Y26660D01*
X25400Y26673D01*
X25376Y26669D01*
X25202Y26842D01*
Y27464D01*
X25223Y27477D01*
X25260Y27534D01*
X25273Y27600D01*
X25260Y27666D01*
X25223Y27723D01*
X25166Y27760D01*
X25100Y27773D01*
X25034Y27760D01*
X24977Y27723D01*
X24940Y27666D01*
X24927Y27600D01*
X24940Y27534D01*
X24977Y27477D01*
X24998Y27464D01*
Y26800D01*
X25006Y26761D01*
X25028Y26728D01*
X25231Y26524D01*
X25227Y26500D01*
X25240Y26434D01*
X25277Y26377D01*
X25334Y26340D01*
X25331Y26289D01*
X25316Y26267D01*
X25284Y26260D01*
X25227Y26223D01*
X25190Y26166D01*
X25177Y26100D01*
X25190Y26034D01*
X25206Y26009D01*
X25179Y25959D01*
X24740D01*
X24727Y25980D01*
X24677Y26013D01*
X24660Y26066D01*
X24732Y26138D01*
X24754Y26171D01*
X24762Y26210D01*
Y30102D01*
X24754Y30141D01*
X24732Y30174D01*
X24614Y30292D01*
X24619Y30317D01*
X24606Y30383D01*
X24568Y30439D01*
X24512Y30477D01*
X24445Y30490D01*
X24379Y30477D01*
X24323Y30439D01*
X24285Y30383D01*
X24272Y30317D01*
X24285Y30250D01*
X24323Y30194D01*
X24379Y30157D01*
X24445Y30143D01*
X24470Y30148D01*
X24558Y30060D01*
Y26253D01*
X24322Y26016D01*
X24300Y25983D01*
X24292Y25944D01*
Y24026D01*
X24141Y23875D01*
X24095Y23894D01*
X24088Y23944D01*
X24182Y24038D01*
X24204Y24071D01*
X24212Y24110D01*
Y28590D01*
X24204Y28629D01*
X24182Y28662D01*
X23166Y29678D01*
X23171Y29703D01*
X23158Y29769D01*
X23120Y29825D01*
X23071Y29858D01*
X23053Y29911D01*
X24428Y31286D01*
X24483Y31270D01*
X24490Y31234D01*
X24527Y31177D01*
X24584Y31140D01*
X24650Y31127D01*
X24674Y31131D01*
X24748Y31058D01*
Y30900D01*
X24756Y30861D01*
X24778Y30828D01*
X25128Y30477D01*
Y28242D01*
X25136Y28203D01*
X25158Y28170D01*
X25305Y28023D01*
X25300Y27999D01*
X25314Y27933D01*
X25351Y27876D01*
X25407Y27839D01*
X25474Y27826D01*
X25540Y27839D01*
X25596Y27876D01*
X25634Y27933D01*
X25647Y27999D01*
X25634Y28065D01*
X25596Y28121D01*
X25540Y28159D01*
X25474Y28172D01*
X25449Y28167D01*
X25332Y28285D01*
Y29508D01*
X25382Y29523D01*
X25383Y29522D01*
X25439Y29484D01*
X25506Y29471D01*
X25512Y29472D01*
X27356Y27628D01*
X27389Y27606D01*
X27428Y27598D01*
X27664D01*
X27677Y27577D01*
X27734Y27540D01*
X27800Y27527D01*
X27866Y27540D01*
X27923Y27577D01*
X27960Y27634D01*
X27973Y27700D01*
X27960Y27766D01*
X27923Y27823D01*
X27866Y27860D01*
X27800Y27873D01*
X27734Y27860D01*
X27677Y27823D01*
X27664Y27802D01*
X27470D01*
X27069Y28203D01*
X27094Y28249D01*
X27100Y28248D01*
X28114D01*
X28127Y28227D01*
X28184Y28190D01*
X28250Y28177D01*
X28316Y28190D01*
X28373Y28227D01*
X28410Y28284D01*
X28423Y28350D01*
X28410Y28416D01*
X28373Y28473D01*
X28316Y28510D01*
X28250Y28523D01*
X28184Y28510D01*
X28127Y28473D01*
X28114Y28452D01*
X27142D01*
X26098Y29497D01*
X26098Y29500D01*
X26085Y29566D01*
X26048Y29623D01*
X25991Y29660D01*
X25925Y29673D01*
X25859Y29660D01*
X25802Y29623D01*
X25770Y29573D01*
X25716Y29556D01*
X25671Y29602D01*
X25679Y29644D01*
X25674Y29669D01*
X26837Y30831D01*
X27283D01*
X27322Y30839D01*
X27355Y30861D01*
X28480Y31986D01*
X28557Y31954D01*
X28650Y31942D01*
X28743Y31954D01*
X28829Y31990D01*
X28903Y32047D01*
X28960Y32121D01*
X28996Y32207D01*
X29008Y32300D01*
X28996Y32393D01*
X28960Y32479D01*
X28903Y32553D01*
X28829Y32610D01*
X28743Y32646D01*
X28650Y32658D01*
X28557Y32646D01*
X28494Y32620D01*
X28465Y32662D01*
X30122Y34319D01*
X30144Y34352D01*
X30152Y34391D01*
Y34558D01*
X30229Y34590D01*
X30303Y34647D01*
X30360Y34721D01*
X30396Y34807D01*
X30408Y34900D01*
X30396Y34993D01*
X30360Y35079D01*
X30303Y35153D01*
X30229Y35210D01*
X30143Y35246D01*
X30050Y35258D01*
D02*
G37*
G36*
X13702Y33600D02*
X13400D01*
Y33298D01*
X13443Y33304D01*
X13529Y33340D01*
X13603Y33397D01*
X13660Y33471D01*
X13696Y33557D01*
X13702Y33600D01*
D02*
G37*
G36*
X13300D02*
X12998D01*
X13004Y33557D01*
X13040Y33471D01*
X13097Y33397D01*
X13171Y33340D01*
X13257Y33304D01*
X13300Y33298D01*
Y33600D01*
D02*
G37*
G36*
X14350Y34008D02*
X14257Y33996D01*
X14171Y33960D01*
X14097Y33903D01*
X14040Y33829D01*
X14004Y33743D01*
X13992Y33650D01*
X14004Y33557D01*
X14040Y33471D01*
X14097Y33397D01*
X14171Y33340D01*
X14257Y33304D01*
X14350Y33292D01*
X14443Y33304D01*
X14529Y33340D01*
X14603Y33397D01*
X14660Y33471D01*
X14696Y33557D01*
X14708Y33650D01*
X14696Y33743D01*
X14660Y33829D01*
X14603Y33903D01*
X14529Y33960D01*
X14443Y33996D01*
X14350Y34008D01*
D02*
G37*
G36*
X26005Y33500D02*
X25700D01*
Y33195D01*
X26005D01*
Y33500D01*
D02*
G37*
G36*
X25600D02*
X25295D01*
Y33195D01*
X25600D01*
Y33500D01*
D02*
G37*
G36*
X32408Y33454D02*
X32106D01*
X32112Y33411D01*
X32148Y33324D01*
X32204Y33250D01*
X32279Y33193D01*
X32365Y33157D01*
X32408Y33152D01*
Y33454D01*
D02*
G37*
G36*
X32810D02*
X32508D01*
Y33152D01*
X32551Y33157D01*
X32637Y33193D01*
X32711Y33250D01*
X32768Y33324D01*
X32804Y33411D01*
X32810Y33454D01*
D02*
G37*
G36*
X31458Y33862D02*
X31365Y33850D01*
X31279Y33814D01*
X31204Y33757D01*
X31148Y33683D01*
X31112Y33596D01*
X31100Y33504D01*
X31112Y33411D01*
X31148Y33324D01*
X31204Y33250D01*
X31279Y33193D01*
X31365Y33157D01*
X31458Y33145D01*
X31551Y33157D01*
X31637Y33193D01*
X31711Y33250D01*
X31768Y33324D01*
X31804Y33411D01*
X31816Y33504D01*
X31804Y33596D01*
X31768Y33683D01*
X31711Y33757D01*
X31637Y33814D01*
X31551Y33850D01*
X31458Y33862D01*
D02*
G37*
G36*
X30458D02*
X30365Y33850D01*
X30279Y33814D01*
X30204Y33757D01*
X30148Y33683D01*
X30112Y33596D01*
X30100Y33504D01*
X30112Y33411D01*
X30148Y33324D01*
X30204Y33250D01*
X30279Y33193D01*
X30365Y33157D01*
X30458Y33145D01*
X30551Y33157D01*
X30637Y33193D01*
X30711Y33250D01*
X30768Y33324D01*
X30804Y33411D01*
X30816Y33504D01*
X30804Y33596D01*
X30768Y33683D01*
X30711Y33757D01*
X30637Y33814D01*
X30551Y33850D01*
X30458Y33862D01*
D02*
G37*
G36*
X14400Y33002D02*
Y32700D01*
X14702D01*
X14696Y32743D01*
X14660Y32829D01*
X14603Y32903D01*
X14529Y32960D01*
X14443Y32996D01*
X14400Y33002D01*
D02*
G37*
G36*
X14300D02*
X14257Y32996D01*
X14171Y32960D01*
X14097Y32903D01*
X14040Y32829D01*
X14004Y32743D01*
X13998Y32700D01*
X14300D01*
Y33002D01*
D02*
G37*
G36*
X32508Y32855D02*
Y32554D01*
X32810D01*
X32804Y32596D01*
X32768Y32683D01*
X32711Y32757D01*
X32637Y32814D01*
X32551Y32850D01*
X32508Y32855D01*
D02*
G37*
G36*
X32408Y32855D02*
X32365Y32850D01*
X32279Y32814D01*
X32204Y32757D01*
X32148Y32683D01*
X32112Y32596D01*
X32106Y32554D01*
X32408D01*
Y32855D01*
D02*
G37*
G36*
X26005Y32655D02*
X25700D01*
Y32350D01*
X26005D01*
Y32655D01*
D02*
G37*
G36*
X25600D02*
X25295D01*
Y32350D01*
X25600D01*
Y32655D01*
D02*
G37*
G36*
X14702Y32600D02*
X14400D01*
Y32298D01*
X14443Y32304D01*
X14529Y32340D01*
X14603Y32397D01*
X14660Y32471D01*
X14696Y32557D01*
X14702Y32600D01*
D02*
G37*
G36*
X14300D02*
X13998D01*
X14004Y32557D01*
X14040Y32471D01*
X14097Y32397D01*
X14171Y32340D01*
X14257Y32304D01*
X14300Y32298D01*
Y32600D01*
D02*
G37*
G36*
X13350Y33008D02*
X13257Y32996D01*
X13171Y32960D01*
X13097Y32903D01*
X13040Y32829D01*
X13004Y32743D01*
X12992Y32650D01*
X13004Y32557D01*
X13040Y32471D01*
X13097Y32397D01*
X13171Y32340D01*
X13257Y32304D01*
X13350Y32292D01*
X13443Y32304D01*
X13529Y32340D01*
X13603Y32397D01*
X13660Y32471D01*
X13696Y32557D01*
X13708Y32650D01*
X13696Y32743D01*
X13660Y32829D01*
X13603Y32903D01*
X13529Y32960D01*
X13443Y32996D01*
X13350Y33008D01*
D02*
G37*
G36*
X23990Y34914D02*
X16903D01*
X16857Y34895D01*
X16838Y34849D01*
Y32369D01*
X16857Y32323D01*
X16903Y32304D01*
X23855D01*
X23874Y32257D01*
X23178Y31561D01*
X17960D01*
X17909Y31571D01*
X17843Y31558D01*
X17786Y31521D01*
X17749Y31464D01*
X17736Y31398D01*
X17749Y31332D01*
X17786Y31275D01*
X17843Y31238D01*
X17909Y31225D01*
X17932Y31229D01*
X18090Y31071D01*
X18058Y31032D01*
X18047Y31040D01*
X18016Y31060D01*
X17950Y31073D01*
X17884Y31060D01*
X17827Y31023D01*
X17790Y30966D01*
X17777Y30900D01*
X17790Y30834D01*
X17827Y30777D01*
X17848Y30764D01*
Y29450D01*
X17856Y29411D01*
X17878Y29378D01*
X21348Y25908D01*
Y24292D01*
X20128Y23072D01*
X20106Y23039D01*
X20098Y23000D01*
Y18036D01*
X20077Y18023D01*
X20040Y17966D01*
X20027Y17900D01*
X20040Y17834D01*
X20077Y17777D01*
X20098Y17764D01*
Y16350D01*
X20106Y16311D01*
X20128Y16278D01*
X20331Y16074D01*
X20327Y16050D01*
X20340Y15984D01*
X20377Y15927D01*
X20434Y15890D01*
X20500Y15877D01*
X20566Y15890D01*
X20623Y15927D01*
X20660Y15984D01*
X20673Y16050D01*
X20660Y16116D01*
X20623Y16173D01*
X20566Y16210D01*
X20500Y16223D01*
X20476Y16219D01*
X20302Y16392D01*
Y17764D01*
X20323Y17777D01*
X20360Y17834D01*
X20373Y17900D01*
X20360Y17966D01*
X20323Y18023D01*
X20302Y18036D01*
Y22958D01*
X21522Y24178D01*
X21544Y24211D01*
X21552Y24250D01*
Y25950D01*
X21544Y25989D01*
X21522Y26022D01*
X18052Y29492D01*
Y30764D01*
X18073Y30777D01*
X18110Y30834D01*
X18123Y30900D01*
X18110Y30966D01*
X18090Y30997D01*
X18082Y31008D01*
X18121Y31040D01*
X18228Y30933D01*
Y29850D01*
X18237Y29803D01*
X18263Y29763D01*
X21728Y26299D01*
Y23220D01*
X21727Y23220D01*
X21690Y23164D01*
X21677Y23097D01*
X21690Y23031D01*
X21727Y22975D01*
X21784Y22937D01*
X21850Y22924D01*
X21916Y22937D01*
X21973Y22975D01*
X22010Y23031D01*
X22023Y23097D01*
X22010Y23164D01*
X21973Y23220D01*
X21972Y23220D01*
Y26350D01*
X21963Y26397D01*
X21937Y26437D01*
X18472Y29901D01*
Y30984D01*
X18463Y31031D01*
X18437Y31071D01*
X18318Y31189D01*
X18338Y31235D01*
X23246D01*
X23308Y31247D01*
X23361Y31283D01*
X24275Y32196D01*
X24641D01*
X24692Y32186D01*
X24758Y32199D01*
X24815Y32237D01*
X24852Y32293D01*
X24865Y32359D01*
X24852Y32426D01*
X24815Y32482D01*
X24758Y32520D01*
X24692Y32533D01*
X24641Y32523D01*
X24207D01*
X24145Y32510D01*
X24105Y32484D01*
X24055Y32503D01*
Y34849D01*
X24036Y34895D01*
X23990Y34914D01*
D02*
G37*
G36*
X32408Y32454D02*
X32106D01*
X32112Y32411D01*
X32148Y32324D01*
X32204Y32250D01*
X32279Y32193D01*
X32365Y32157D01*
X32408Y32152D01*
Y32454D01*
D02*
G37*
G36*
X32810D02*
X32508D01*
Y32152D01*
X32551Y32157D01*
X32637Y32193D01*
X32711Y32250D01*
X32768Y32324D01*
X32804Y32411D01*
X32810Y32454D01*
D02*
G37*
G36*
X31458Y32862D02*
X31365Y32850D01*
X31279Y32814D01*
X31204Y32757D01*
X31148Y32683D01*
X31112Y32596D01*
X31100Y32504D01*
X31112Y32411D01*
X31148Y32324D01*
X31204Y32250D01*
X31279Y32193D01*
X31365Y32157D01*
X31458Y32145D01*
X31551Y32157D01*
X31637Y32193D01*
X31711Y32250D01*
X31768Y32324D01*
X31804Y32411D01*
X31816Y32504D01*
X31804Y32596D01*
X31768Y32683D01*
X31711Y32757D01*
X31637Y32814D01*
X31551Y32850D01*
X31458Y32862D01*
D02*
G37*
G36*
X30458D02*
X30365Y32850D01*
X30279Y32814D01*
X30204Y32757D01*
X30148Y32683D01*
X30112Y32596D01*
X30100Y32504D01*
X30112Y32411D01*
X30148Y32324D01*
X30204Y32250D01*
X30279Y32193D01*
X30365Y32157D01*
X30458Y32145D01*
X30551Y32157D01*
X30637Y32193D01*
X30711Y32250D01*
X30768Y32324D01*
X30804Y32411D01*
X30816Y32504D01*
X30804Y32596D01*
X30768Y32683D01*
X30711Y32757D01*
X30637Y32814D01*
X30551Y32850D01*
X30458Y32862D01*
D02*
G37*
G36*
X32508Y31855D02*
Y31554D01*
X32810D01*
X32804Y31596D01*
X32768Y31683D01*
X32711Y31757D01*
X32637Y31814D01*
X32551Y31850D01*
X32508Y31855D01*
D02*
G37*
G36*
X32408Y31855D02*
X32365Y31850D01*
X32279Y31814D01*
X32204Y31757D01*
X32148Y31683D01*
X32112Y31596D01*
X32106Y31554D01*
X32408D01*
Y31855D01*
D02*
G37*
G36*
X14350Y32008D02*
X14257Y31996D01*
X14171Y31960D01*
X14097Y31903D01*
X14040Y31829D01*
X14004Y31743D01*
X13992Y31650D01*
X14004Y31557D01*
X14040Y31471D01*
X14097Y31397D01*
X14171Y31340D01*
X14257Y31304D01*
X14350Y31292D01*
X14443Y31304D01*
X14529Y31340D01*
X14603Y31397D01*
X14660Y31471D01*
X14696Y31557D01*
X14708Y31650D01*
X14696Y31743D01*
X14660Y31829D01*
X14603Y31903D01*
X14529Y31960D01*
X14443Y31996D01*
X14350Y32008D01*
D02*
G37*
G36*
X13350D02*
X13257Y31996D01*
X13171Y31960D01*
X13097Y31903D01*
X13040Y31829D01*
X13004Y31743D01*
X12992Y31650D01*
X13004Y31557D01*
X13040Y31471D01*
X13097Y31397D01*
X13171Y31340D01*
X13257Y31304D01*
X13350Y31292D01*
X13443Y31304D01*
X13529Y31340D01*
X13603Y31397D01*
X13660Y31471D01*
X13696Y31557D01*
X13708Y31650D01*
X13696Y31743D01*
X13660Y31829D01*
X13603Y31903D01*
X13529Y31960D01*
X13443Y31996D01*
X13350Y32008D01*
D02*
G37*
G36*
X32408Y31454D02*
X32106D01*
X32112Y31411D01*
X32148Y31324D01*
X32204Y31250D01*
X32279Y31193D01*
X32365Y31157D01*
X32408Y31152D01*
Y31454D01*
D02*
G37*
G36*
X32810D02*
X32508D01*
Y31152D01*
X32551Y31157D01*
X32637Y31193D01*
X32711Y31250D01*
X32768Y31324D01*
X32804Y31411D01*
X32810Y31454D01*
D02*
G37*
G36*
X31458Y31862D02*
X31365Y31850D01*
X31279Y31814D01*
X31204Y31757D01*
X31148Y31683D01*
X31112Y31596D01*
X31100Y31504D01*
X31112Y31411D01*
X31148Y31324D01*
X31204Y31250D01*
X31279Y31193D01*
X31365Y31157D01*
X31458Y31145D01*
X31551Y31157D01*
X31637Y31193D01*
X31711Y31250D01*
X31768Y31324D01*
X31804Y31411D01*
X31816Y31504D01*
X31804Y31596D01*
X31768Y31683D01*
X31711Y31757D01*
X31637Y31814D01*
X31551Y31850D01*
X31458Y31862D01*
D02*
G37*
G36*
X30458D02*
X30365Y31850D01*
X30279Y31814D01*
X30204Y31757D01*
X30148Y31683D01*
X30112Y31596D01*
X30100Y31504D01*
X30112Y31411D01*
X30148Y31324D01*
X30204Y31250D01*
X30279Y31193D01*
X30365Y31157D01*
X30458Y31145D01*
X30551Y31157D01*
X30637Y31193D01*
X30711Y31250D01*
X30768Y31324D01*
X30804Y31411D01*
X30816Y31504D01*
X30804Y31596D01*
X30768Y31683D01*
X30711Y31757D01*
X30637Y31814D01*
X30551Y31850D01*
X30458Y31862D01*
D02*
G37*
G36*
X32508Y30855D02*
Y30554D01*
X32810D01*
X32804Y30596D01*
X32768Y30683D01*
X32711Y30757D01*
X32637Y30814D01*
X32551Y30850D01*
X32508Y30855D01*
D02*
G37*
G36*
X32408Y30855D02*
X32365Y30850D01*
X32279Y30814D01*
X32204Y30757D01*
X32148Y30683D01*
X32112Y30596D01*
X32106Y30554D01*
X32408D01*
Y30855D01*
D02*
G37*
G36*
X14350Y31008D02*
X14257Y30996D01*
X14171Y30960D01*
X14097Y30903D01*
X14040Y30829D01*
X14004Y30743D01*
X13992Y30650D01*
X14004Y30557D01*
X14040Y30471D01*
X14097Y30397D01*
X14171Y30340D01*
X14257Y30304D01*
X14350Y30292D01*
X14443Y30304D01*
X14529Y30340D01*
X14603Y30397D01*
X14660Y30471D01*
X14696Y30557D01*
X14708Y30650D01*
X14696Y30743D01*
X14660Y30829D01*
X14603Y30903D01*
X14529Y30960D01*
X14443Y30996D01*
X14350Y31008D01*
D02*
G37*
G36*
X13350D02*
X13257Y30996D01*
X13171Y30960D01*
X13097Y30903D01*
X13040Y30829D01*
X13004Y30743D01*
X12992Y30650D01*
X13004Y30557D01*
X13040Y30471D01*
X13097Y30397D01*
X13171Y30340D01*
X13257Y30304D01*
X13350Y30292D01*
X13443Y30304D01*
X13529Y30340D01*
X13603Y30397D01*
X13660Y30471D01*
X13696Y30557D01*
X13708Y30650D01*
X13696Y30743D01*
X13660Y30829D01*
X13603Y30903D01*
X13529Y30960D01*
X13443Y30996D01*
X13350Y31008D01*
D02*
G37*
G36*
X32408Y30454D02*
X32106D01*
X32112Y30411D01*
X32148Y30324D01*
X32204Y30250D01*
X32279Y30193D01*
X32365Y30157D01*
X32408Y30152D01*
Y30454D01*
D02*
G37*
G36*
X32810D02*
X32508D01*
Y30152D01*
X32551Y30157D01*
X32637Y30193D01*
X32711Y30250D01*
X32768Y30324D01*
X32804Y30411D01*
X32810Y30454D01*
D02*
G37*
G36*
X28302Y31326D02*
X28236Y31312D01*
X28180Y31275D01*
X28142Y31219D01*
X28129Y31152D01*
X28142Y31086D01*
X28180Y31030D01*
X28223Y31001D01*
X29175Y30048D01*
X28255Y29128D01*
X27191D01*
X27140Y29138D01*
X27074Y29125D01*
X27017Y29088D01*
X26980Y29031D01*
X26967Y28965D01*
X26980Y28899D01*
X27017Y28843D01*
X27074Y28805D01*
X27140Y28792D01*
X27191Y28802D01*
X28323D01*
X28385Y28814D01*
X28438Y28850D01*
X29474Y29885D01*
X30320D01*
X30330Y29835D01*
X30279Y29814D01*
X30204Y29757D01*
X30148Y29683D01*
X30112Y29596D01*
X30100Y29504D01*
X30112Y29411D01*
X30148Y29324D01*
X30204Y29250D01*
X30279Y29193D01*
X30365Y29157D01*
X30458Y29145D01*
X30551Y29157D01*
X30637Y29193D01*
X30711Y29250D01*
X30768Y29324D01*
X30804Y29411D01*
X30816Y29504D01*
X30804Y29596D01*
X30768Y29683D01*
X30711Y29757D01*
X30637Y29814D01*
X30586Y29835D01*
X30596Y29885D01*
X31003D01*
X31065Y29898D01*
X31118Y29933D01*
X31349Y30164D01*
X31365Y30157D01*
X31458Y30145D01*
X31551Y30157D01*
X31637Y30193D01*
X31711Y30250D01*
X31768Y30324D01*
X31804Y30411D01*
X31816Y30504D01*
X31804Y30596D01*
X31768Y30683D01*
X31711Y30757D01*
X31637Y30814D01*
X31551Y30850D01*
X31458Y30862D01*
X31365Y30850D01*
X31279Y30814D01*
X31204Y30757D01*
X31148Y30683D01*
X31112Y30596D01*
X31100Y30504D01*
X31112Y30411D01*
X31118Y30395D01*
X30935Y30211D01*
X30737D01*
X30720Y30261D01*
X30768Y30324D01*
X30804Y30411D01*
X30816Y30504D01*
X30804Y30596D01*
X30768Y30683D01*
X30711Y30757D01*
X30637Y30814D01*
X30551Y30850D01*
X30458Y30862D01*
X30365Y30850D01*
X30279Y30814D01*
X30204Y30757D01*
X30148Y30683D01*
X30112Y30596D01*
X30100Y30504D01*
X30112Y30411D01*
X30148Y30324D01*
X30196Y30261D01*
X30179Y30211D01*
X29474D01*
X28454Y31231D01*
X28425Y31275D01*
X28368Y31312D01*
X28302Y31326D01*
D02*
G37*
G36*
X13400Y30002D02*
Y29700D01*
X13702D01*
X13696Y29743D01*
X13660Y29829D01*
X13603Y29903D01*
X13529Y29960D01*
X13443Y29996D01*
X13400Y30002D01*
D02*
G37*
G36*
X13300D02*
X13257Y29996D01*
X13171Y29960D01*
X13097Y29903D01*
X13040Y29829D01*
X13004Y29743D01*
X12998Y29700D01*
X13300D01*
Y30002D01*
D02*
G37*
G36*
X32508Y29855D02*
Y29554D01*
X32810D01*
X32804Y29596D01*
X32768Y29683D01*
X32711Y29757D01*
X32637Y29814D01*
X32551Y29850D01*
X32508Y29855D01*
D02*
G37*
G36*
X32408Y29855D02*
X32365Y29850D01*
X32279Y29814D01*
X32204Y29757D01*
X32148Y29683D01*
X32112Y29596D01*
X32106Y29554D01*
X32408D01*
Y29855D01*
D02*
G37*
G36*
X13702Y29600D02*
X13400D01*
Y29298D01*
X13443Y29304D01*
X13529Y29340D01*
X13603Y29397D01*
X13660Y29471D01*
X13696Y29557D01*
X13702Y29600D01*
D02*
G37*
G36*
X13300D02*
X12998D01*
X13004Y29557D01*
X13040Y29471D01*
X13097Y29397D01*
X13171Y29340D01*
X13257Y29304D01*
X13300Y29298D01*
Y29600D01*
D02*
G37*
G36*
X14350Y30008D02*
X14257Y29996D01*
X14171Y29960D01*
X14097Y29903D01*
X14040Y29829D01*
X14004Y29743D01*
X13992Y29650D01*
X14004Y29557D01*
X14040Y29471D01*
X14097Y29397D01*
X14171Y29340D01*
X14257Y29304D01*
X14350Y29292D01*
X14443Y29304D01*
X14529Y29340D01*
X14603Y29397D01*
X14660Y29471D01*
X14696Y29557D01*
X14708Y29650D01*
X14696Y29743D01*
X14660Y29829D01*
X14603Y29903D01*
X14529Y29960D01*
X14443Y29996D01*
X14350Y30008D01*
D02*
G37*
G36*
X32408Y29454D02*
X32106D01*
X32112Y29411D01*
X32148Y29324D01*
X32204Y29250D01*
X32279Y29193D01*
X32365Y29157D01*
X32408Y29152D01*
Y29454D01*
D02*
G37*
G36*
X32810D02*
X32508D01*
Y29152D01*
X32551Y29157D01*
X32637Y29193D01*
X32711Y29250D01*
X32768Y29324D01*
X32804Y29411D01*
X32810Y29454D01*
D02*
G37*
G36*
X31458Y29862D02*
X31365Y29850D01*
X31279Y29814D01*
X31204Y29757D01*
X31148Y29683D01*
X31112Y29596D01*
X31100Y29504D01*
X31112Y29411D01*
X31148Y29324D01*
X31204Y29250D01*
X31279Y29193D01*
X31365Y29157D01*
X31458Y29145D01*
X31551Y29157D01*
X31637Y29193D01*
X31711Y29250D01*
X31768Y29324D01*
X31804Y29411D01*
X31816Y29504D01*
X31804Y29596D01*
X31768Y29683D01*
X31711Y29757D01*
X31637Y29814D01*
X31551Y29850D01*
X31458Y29862D01*
D02*
G37*
G36*
X32508Y28855D02*
Y28554D01*
X32810D01*
X32804Y28596D01*
X32768Y28683D01*
X32711Y28757D01*
X32637Y28814D01*
X32551Y28850D01*
X32508Y28855D01*
D02*
G37*
G36*
X32408Y28855D02*
X32365Y28850D01*
X32279Y28814D01*
X32204Y28757D01*
X32148Y28683D01*
X32112Y28596D01*
X32106Y28554D01*
X32408D01*
Y28855D01*
D02*
G37*
G36*
Y28454D02*
X32106D01*
X32112Y28411D01*
X32148Y28324D01*
X32204Y28250D01*
X32279Y28193D01*
X32365Y28157D01*
X32408Y28152D01*
Y28454D01*
D02*
G37*
G36*
X32810D02*
X32508D01*
Y28152D01*
X32551Y28157D01*
X32637Y28193D01*
X32711Y28250D01*
X32768Y28324D01*
X32804Y28411D01*
X32810Y28454D01*
D02*
G37*
G36*
X31458Y28862D02*
X31365Y28850D01*
X31279Y28814D01*
X31204Y28757D01*
X31148Y28683D01*
X31112Y28596D01*
X31100Y28504D01*
X31112Y28411D01*
X31148Y28324D01*
X31204Y28250D01*
X31279Y28193D01*
X31365Y28157D01*
X31458Y28145D01*
X31551Y28157D01*
X31637Y28193D01*
X31711Y28250D01*
X31768Y28324D01*
X31804Y28411D01*
X31816Y28504D01*
X31804Y28596D01*
X31768Y28683D01*
X31711Y28757D01*
X31637Y28814D01*
X31551Y28850D01*
X31458Y28862D01*
D02*
G37*
G36*
X30458D02*
X30365Y28850D01*
X30279Y28814D01*
X30204Y28757D01*
X30148Y28683D01*
X30112Y28596D01*
X30100Y28504D01*
X30112Y28411D01*
X30148Y28324D01*
X30204Y28250D01*
X30279Y28193D01*
X30365Y28157D01*
X30458Y28145D01*
X30551Y28157D01*
X30637Y28193D01*
X30711Y28250D01*
X30768Y28324D01*
X30804Y28411D01*
X30816Y28504D01*
X30804Y28596D01*
X30768Y28683D01*
X30711Y28757D01*
X30637Y28814D01*
X30551Y28850D01*
X30458Y28862D01*
D02*
G37*
G36*
X32508Y27855D02*
Y27554D01*
X32810D01*
X32804Y27596D01*
X32768Y27683D01*
X32711Y27757D01*
X32637Y27814D01*
X32551Y27850D01*
X32508Y27855D01*
D02*
G37*
G36*
X32408Y27855D02*
X32365Y27850D01*
X32279Y27814D01*
X32204Y27757D01*
X32148Y27683D01*
X32112Y27596D01*
X32106Y27554D01*
X32408D01*
Y27855D01*
D02*
G37*
G36*
X14350Y29008D02*
X14257Y28996D01*
X14171Y28960D01*
X14097Y28903D01*
X14040Y28829D01*
X14004Y28743D01*
X13992Y28650D01*
X14004Y28557D01*
X14040Y28471D01*
X14097Y28397D01*
X14171Y28340D01*
X14257Y28304D01*
X14350Y28292D01*
X14443Y28304D01*
X14529Y28340D01*
X14603Y28397D01*
X14660Y28471D01*
X14692Y28548D01*
X15008D01*
X16132Y27424D01*
X16127Y27400D01*
X16140Y27334D01*
X16177Y27277D01*
X16234Y27240D01*
X16300Y27227D01*
X16366Y27240D01*
X16423Y27277D01*
X16460Y27334D01*
X16473Y27400D01*
X16460Y27466D01*
X16423Y27523D01*
X16366Y27560D01*
X16300Y27573D01*
X16276Y27569D01*
X15122Y28722D01*
X15089Y28744D01*
X15050Y28752D01*
X14692D01*
X14660Y28829D01*
X14603Y28903D01*
X14529Y28960D01*
X14443Y28996D01*
X14350Y29008D01*
D02*
G37*
G36*
X32408Y27454D02*
X32106D01*
X32112Y27411D01*
X32148Y27324D01*
X32204Y27250D01*
X32279Y27193D01*
X32365Y27157D01*
X32408Y27152D01*
Y27454D01*
D02*
G37*
G36*
X32810D02*
X32508D01*
Y27152D01*
X32551Y27157D01*
X32637Y27193D01*
X32711Y27250D01*
X32768Y27324D01*
X32804Y27411D01*
X32810Y27454D01*
D02*
G37*
G36*
X13350Y29008D02*
X13257Y28996D01*
X13171Y28960D01*
X13097Y28903D01*
X13040Y28829D01*
X13004Y28743D01*
X12992Y28650D01*
X13004Y28557D01*
X13040Y28471D01*
X13097Y28397D01*
X13171Y28340D01*
X13257Y28304D01*
X13350Y28292D01*
X13443Y28304D01*
X13520Y28336D01*
X13883Y27973D01*
X13916Y27951D01*
X13955Y27943D01*
X14073D01*
X14089Y27893D01*
X14040Y27829D01*
X14004Y27743D01*
X13992Y27650D01*
X14004Y27557D01*
X14040Y27471D01*
X14097Y27397D01*
X14171Y27340D01*
X14257Y27304D01*
X14350Y27292D01*
X14443Y27304D01*
X14529Y27340D01*
X14563Y27366D01*
X14735Y27193D01*
X14716Y27147D01*
X13997D01*
X13664Y27480D01*
X13696Y27557D01*
X13708Y27650D01*
X13696Y27743D01*
X13660Y27829D01*
X13603Y27903D01*
X13529Y27960D01*
X13443Y27996D01*
X13350Y28008D01*
X13257Y27996D01*
X13171Y27960D01*
X13097Y27903D01*
X13040Y27829D01*
X13004Y27743D01*
X12992Y27650D01*
X13004Y27557D01*
X13040Y27471D01*
X13097Y27397D01*
X13171Y27340D01*
X13257Y27304D01*
X13350Y27292D01*
X13443Y27304D01*
X13520Y27336D01*
X13883Y26973D01*
X13916Y26951D01*
X13955Y26943D01*
X14073D01*
X14089Y26893D01*
X14040Y26829D01*
X14004Y26743D01*
X13992Y26650D01*
X14004Y26557D01*
X14040Y26471D01*
X14097Y26397D01*
X14171Y26340D01*
X14257Y26304D01*
X14350Y26292D01*
X14443Y26304D01*
X14520Y26336D01*
X14978Y25878D01*
X15011Y25856D01*
X15050Y25848D01*
X15814D01*
X15827Y25827D01*
X15866Y25802D01*
X15850Y25752D01*
X14692D01*
X14660Y25829D01*
X14603Y25903D01*
X14529Y25960D01*
X14443Y25996D01*
X14350Y26008D01*
X14257Y25996D01*
X14171Y25960D01*
X14097Y25903D01*
X14040Y25829D01*
X14004Y25743D01*
X13992Y25650D01*
X14004Y25557D01*
X14040Y25471D01*
X14097Y25397D01*
X14171Y25340D01*
X14257Y25304D01*
X14350Y25292D01*
X14443Y25304D01*
X14529Y25340D01*
X14603Y25397D01*
X14660Y25471D01*
X14692Y25548D01*
X16008D01*
X16132Y25424D01*
X16127Y25400D01*
X16140Y25334D01*
X16177Y25277D01*
X16234Y25240D01*
X16300Y25227D01*
X16366Y25240D01*
X16423Y25277D01*
X16460Y25334D01*
X16473Y25400D01*
X16460Y25466D01*
X16423Y25523D01*
X16366Y25560D01*
X16300Y25573D01*
X16276Y25568D01*
X16122Y25722D01*
X16089Y25744D01*
X16050Y25752D01*
X16050D01*
X16034Y25802D01*
X16073Y25827D01*
X16110Y25884D01*
X16123Y25950D01*
X16110Y26016D01*
X16073Y26073D01*
X16016Y26110D01*
X15950Y26123D01*
X15884Y26110D01*
X15827Y26073D01*
X15814Y26052D01*
X15092D01*
X14664Y26480D01*
X14696Y26557D01*
X14708Y26650D01*
X14696Y26743D01*
X14660Y26829D01*
X14611Y26893D01*
X14627Y26943D01*
X14788D01*
X15403Y26328D01*
X15436Y26306D01*
X15475Y26298D01*
X16114D01*
X16127Y26277D01*
X16184Y26240D01*
X16250Y26227D01*
X16316Y26240D01*
X16373Y26277D01*
X16410Y26334D01*
X16423Y26400D01*
X16410Y26466D01*
X16373Y26523D01*
X16352Y26536D01*
X16367Y26586D01*
X17238D01*
X17277Y26594D01*
X17310Y26616D01*
X17876Y27181D01*
X17900Y27177D01*
X17966Y27190D01*
X18023Y27227D01*
X18060Y27284D01*
X18073Y27350D01*
X18060Y27416D01*
X18023Y27473D01*
X17966Y27510D01*
X17900Y27523D01*
X17834Y27510D01*
X17777Y27473D01*
X17740Y27416D01*
X17727Y27350D01*
X17731Y27326D01*
X17196Y26790D01*
X16116D01*
X16091Y26840D01*
X16102Y26898D01*
X16089Y26965D01*
X16052Y27021D01*
X15995Y27058D01*
X15929Y27072D01*
X15905Y27067D01*
X14854Y28117D01*
X14821Y28139D01*
X14782Y28147D01*
X13997D01*
X13664Y28480D01*
X13696Y28557D01*
X13708Y28650D01*
X13696Y28743D01*
X13660Y28829D01*
X13603Y28903D01*
X13529Y28960D01*
X13443Y28996D01*
X13350Y29008D01*
D02*
G37*
G36*
X31458Y27862D02*
X31365Y27850D01*
X31279Y27814D01*
X31204Y27757D01*
X31148Y27683D01*
X31112Y27596D01*
X31100Y27504D01*
X31112Y27411D01*
X31148Y27324D01*
X31204Y27250D01*
X31279Y27193D01*
X31365Y27157D01*
X31458Y27145D01*
X31551Y27157D01*
X31637Y27193D01*
X31711Y27250D01*
X31768Y27324D01*
X31804Y27411D01*
X31816Y27504D01*
X31804Y27596D01*
X31768Y27683D01*
X31711Y27757D01*
X31637Y27814D01*
X31551Y27850D01*
X31458Y27862D01*
D02*
G37*
G36*
X30458D02*
X30365Y27850D01*
X30279Y27814D01*
X30204Y27757D01*
X30148Y27683D01*
X30112Y27596D01*
X30100Y27504D01*
X30112Y27411D01*
X30148Y27324D01*
X30204Y27250D01*
X30279Y27193D01*
X30365Y27157D01*
X30458Y27145D01*
X30551Y27157D01*
X30637Y27193D01*
X30711Y27250D01*
X30768Y27324D01*
X30804Y27411D01*
X30816Y27504D01*
X30804Y27596D01*
X30768Y27683D01*
X30711Y27757D01*
X30637Y27814D01*
X30551Y27850D01*
X30458Y27862D01*
D02*
G37*
G36*
X32508Y26855D02*
Y26554D01*
X32810D01*
X32804Y26596D01*
X32768Y26683D01*
X32711Y26757D01*
X32637Y26814D01*
X32551Y26850D01*
X32508Y26855D01*
D02*
G37*
G36*
X32408Y26855D02*
X32365Y26850D01*
X32279Y26814D01*
X32204Y26757D01*
X32148Y26683D01*
X32112Y26596D01*
X32106Y26554D01*
X32408D01*
Y26855D01*
D02*
G37*
G36*
X13350Y27008D02*
X13257Y26996D01*
X13171Y26960D01*
X13097Y26903D01*
X13040Y26829D01*
X13004Y26743D01*
X12992Y26650D01*
X13004Y26557D01*
X13040Y26471D01*
X13097Y26397D01*
X13171Y26340D01*
X13257Y26304D01*
X13350Y26292D01*
X13443Y26304D01*
X13529Y26340D01*
X13603Y26397D01*
X13660Y26471D01*
X13696Y26557D01*
X13708Y26650D01*
X13696Y26743D01*
X13660Y26829D01*
X13603Y26903D01*
X13529Y26960D01*
X13443Y26996D01*
X13350Y27008D01*
D02*
G37*
G36*
X32408Y26454D02*
X32106D01*
X32112Y26411D01*
X32148Y26324D01*
X32204Y26250D01*
X32279Y26193D01*
X32365Y26157D01*
X32408Y26152D01*
Y26454D01*
D02*
G37*
G36*
X32810D02*
X32508D01*
Y26152D01*
X32551Y26157D01*
X32637Y26193D01*
X32711Y26250D01*
X32768Y26324D01*
X32804Y26411D01*
X32810Y26454D01*
D02*
G37*
G36*
X31458Y26862D02*
X31365Y26850D01*
X31279Y26814D01*
X31204Y26757D01*
X31148Y26683D01*
X31112Y26596D01*
X31100Y26504D01*
X31112Y26411D01*
X31148Y26324D01*
X31204Y26250D01*
X31279Y26193D01*
X31365Y26157D01*
X31458Y26145D01*
X31551Y26157D01*
X31637Y26193D01*
X31711Y26250D01*
X31768Y26324D01*
X31804Y26411D01*
X31816Y26504D01*
X31804Y26596D01*
X31768Y26683D01*
X31711Y26757D01*
X31637Y26814D01*
X31551Y26850D01*
X31458Y26862D01*
D02*
G37*
G36*
X30458D02*
X30365Y26850D01*
X30279Y26814D01*
X30204Y26757D01*
X30148Y26683D01*
X30112Y26596D01*
X30100Y26504D01*
X30112Y26411D01*
X30148Y26324D01*
X30204Y26250D01*
X30279Y26193D01*
X30365Y26157D01*
X30458Y26145D01*
X30551Y26157D01*
X30637Y26193D01*
X30711Y26250D01*
X30768Y26324D01*
X30804Y26411D01*
X30816Y26504D01*
X30804Y26596D01*
X30768Y26683D01*
X30711Y26757D01*
X30637Y26814D01*
X30551Y26850D01*
X30458Y26862D01*
D02*
G37*
G36*
X32508Y25855D02*
Y25554D01*
X32810D01*
X32804Y25596D01*
X32768Y25683D01*
X32711Y25757D01*
X32637Y25814D01*
X32551Y25850D01*
X32508Y25855D01*
D02*
G37*
G36*
X32408Y25855D02*
X32365Y25850D01*
X32279Y25814D01*
X32204Y25757D01*
X32148Y25683D01*
X32112Y25596D01*
X32106Y25554D01*
X32408D01*
Y25855D01*
D02*
G37*
G36*
X13350Y26008D02*
X13257Y25996D01*
X13171Y25960D01*
X13097Y25903D01*
X13040Y25829D01*
X13004Y25743D01*
X12992Y25650D01*
X13004Y25557D01*
X13036Y25480D01*
X12883Y25327D01*
X12861Y25294D01*
X12853Y25255D01*
Y24486D01*
X12861Y24447D01*
X12883Y24414D01*
X13254Y24042D01*
X13238Y23988D01*
X13171Y23960D01*
X13097Y23903D01*
X13040Y23829D01*
X13004Y23743D01*
X12992Y23650D01*
X13004Y23557D01*
X13040Y23471D01*
X13097Y23397D01*
X13171Y23340D01*
X13257Y23304D01*
X13350Y23292D01*
X13443Y23304D01*
X13529Y23340D01*
X13603Y23397D01*
X13660Y23471D01*
X13696Y23557D01*
X13708Y23650D01*
X13696Y23743D01*
X13660Y23829D01*
X13611Y23893D01*
X13627Y23943D01*
X14073D01*
X14089Y23893D01*
X14040Y23829D01*
X14004Y23743D01*
X13992Y23650D01*
X14004Y23557D01*
X14040Y23471D01*
X14097Y23397D01*
X14171Y23340D01*
X14257Y23304D01*
X14350Y23292D01*
X14443Y23304D01*
X14529Y23340D01*
X14598Y23392D01*
X14639Y23351D01*
X14672Y23329D01*
X14711Y23322D01*
X19873D01*
X19913Y23329D01*
X19946Y23351D01*
X20676Y24081D01*
X20700Y24077D01*
X20766Y24090D01*
X20823Y24127D01*
X20860Y24184D01*
X20873Y24250D01*
X20860Y24316D01*
X20823Y24373D01*
X20766Y24410D01*
X20700Y24423D01*
X20634Y24410D01*
X20577Y24373D01*
X20540Y24316D01*
X20527Y24250D01*
X20531Y24226D01*
X19831Y23525D01*
X19299D01*
X19280Y23572D01*
X19926Y24217D01*
X19950Y24213D01*
X20016Y24226D01*
X20073Y24263D01*
X20110Y24320D01*
X20123Y24386D01*
X20110Y24452D01*
X20073Y24508D01*
X20016Y24546D01*
X19950Y24559D01*
X19884Y24546D01*
X19827Y24508D01*
X19790Y24452D01*
X19777Y24386D01*
X19782Y24362D01*
X19085Y23665D01*
X18814D01*
X18788Y23715D01*
X18800Y23773D01*
X18787Y23840D01*
X18749Y23896D01*
X18693Y23934D01*
X18627Y23947D01*
X18602Y23942D01*
X17822Y24722D01*
X17789Y24744D01*
X17750Y24752D01*
X14692D01*
X14660Y24829D01*
X14611Y24893D01*
X14627Y24943D01*
X17862D01*
X18532Y24274D01*
X18527Y24250D01*
X18540Y24184D01*
X18577Y24127D01*
X18634Y24090D01*
X18700Y24077D01*
X18766Y24090D01*
X18823Y24127D01*
X18860Y24184D01*
X18873Y24250D01*
X18860Y24316D01*
X18823Y24373D01*
X18766Y24410D01*
X18700Y24423D01*
X18676Y24418D01*
X17977Y25117D01*
X17944Y25139D01*
X17905Y25147D01*
X13745D01*
X13706Y25139D01*
X13673Y25117D01*
X13520Y24964D01*
X13443Y24996D01*
X13350Y25008D01*
X13257Y24996D01*
X13171Y24960D01*
X13107Y24911D01*
X13057Y24927D01*
Y25212D01*
X13180Y25336D01*
X13257Y25304D01*
X13350Y25292D01*
X13443Y25304D01*
X13529Y25340D01*
X13603Y25397D01*
X13660Y25471D01*
X13696Y25557D01*
X13708Y25650D01*
X13696Y25743D01*
X13660Y25829D01*
X13603Y25903D01*
X13529Y25960D01*
X13443Y25996D01*
X13350Y26008D01*
D02*
G37*
G36*
X32408Y25454D02*
X32106D01*
X32112Y25411D01*
X32148Y25324D01*
X32204Y25250D01*
X32279Y25193D01*
X32365Y25157D01*
X32408Y25152D01*
Y25454D01*
D02*
G37*
G36*
X32810D02*
X32508D01*
Y25152D01*
X32551Y25157D01*
X32637Y25193D01*
X32711Y25250D01*
X32768Y25324D01*
X32804Y25411D01*
X32810Y25454D01*
D02*
G37*
G36*
X31458Y25862D02*
X31365Y25850D01*
X31279Y25814D01*
X31204Y25757D01*
X31148Y25683D01*
X31112Y25596D01*
X31100Y25504D01*
X31112Y25411D01*
X31148Y25324D01*
X31204Y25250D01*
X31279Y25193D01*
X31365Y25157D01*
X31458Y25145D01*
X31551Y25157D01*
X31637Y25193D01*
X31711Y25250D01*
X31768Y25324D01*
X31804Y25411D01*
X31816Y25504D01*
X31804Y25596D01*
X31768Y25683D01*
X31711Y25757D01*
X31637Y25814D01*
X31551Y25850D01*
X31458Y25862D01*
D02*
G37*
G36*
X26850Y25873D02*
X26784Y25860D01*
X26727Y25823D01*
X26690Y25766D01*
X26677Y25700D01*
X26690Y25634D01*
X26727Y25577D01*
X26784Y25540D01*
X26850Y25527D01*
X26874Y25531D01*
X26974Y25431D01*
X27007Y25409D01*
X27046Y25402D01*
X30116D01*
X30148Y25324D01*
X30204Y25250D01*
X30279Y25193D01*
X30365Y25157D01*
X30458Y25145D01*
X30551Y25157D01*
X30637Y25193D01*
X30711Y25250D01*
X30768Y25324D01*
X30804Y25411D01*
X30816Y25504D01*
X30804Y25596D01*
X30768Y25683D01*
X30711Y25757D01*
X30637Y25814D01*
X30551Y25850D01*
X30458Y25862D01*
X30365Y25850D01*
X30279Y25814D01*
X30204Y25757D01*
X30148Y25683D01*
X30116Y25605D01*
X27089D01*
X27018Y25676D01*
X27023Y25700D01*
X27010Y25766D01*
X26973Y25823D01*
X26916Y25860D01*
X26850Y25873D01*
D02*
G37*
G36*
X32508Y24855D02*
Y24554D01*
X32810D01*
X32804Y24596D01*
X32768Y24683D01*
X32711Y24757D01*
X32637Y24814D01*
X32551Y24850D01*
X32508Y24855D01*
D02*
G37*
G36*
X32408Y24855D02*
X32365Y24850D01*
X32279Y24814D01*
X32204Y24757D01*
X32148Y24683D01*
X32112Y24596D01*
X32106Y24554D01*
X32408D01*
Y24855D01*
D02*
G37*
G36*
Y24454D02*
X32106D01*
X32112Y24411D01*
X32148Y24324D01*
X32204Y24250D01*
X32279Y24193D01*
X32365Y24157D01*
X32408Y24152D01*
Y24454D01*
D02*
G37*
G36*
X32810D02*
X32508D01*
Y24152D01*
X32551Y24157D01*
X32637Y24193D01*
X32711Y24250D01*
X32768Y24324D01*
X32804Y24411D01*
X32810Y24454D01*
D02*
G37*
G36*
X31458Y24862D02*
X31365Y24850D01*
X31279Y24814D01*
X31204Y24757D01*
X31148Y24683D01*
X31112Y24596D01*
X31100Y24504D01*
X31112Y24411D01*
X31148Y24324D01*
X31204Y24250D01*
X31279Y24193D01*
X31365Y24157D01*
X31458Y24145D01*
X31551Y24157D01*
X31637Y24193D01*
X31711Y24250D01*
X31768Y24324D01*
X31804Y24411D01*
X31816Y24504D01*
X31804Y24596D01*
X31768Y24683D01*
X31711Y24757D01*
X31637Y24814D01*
X31551Y24850D01*
X31458Y24862D01*
D02*
G37*
G36*
X30458D02*
X30365Y24850D01*
X30279Y24814D01*
X30204Y24757D01*
X30148Y24683D01*
X30112Y24596D01*
X30100Y24504D01*
X30112Y24411D01*
X30148Y24324D01*
X30204Y24250D01*
X30279Y24193D01*
X30365Y24157D01*
X30458Y24145D01*
X30551Y24157D01*
X30637Y24193D01*
X30711Y24250D01*
X30768Y24324D01*
X30804Y24411D01*
X30816Y24504D01*
X30804Y24596D01*
X30768Y24683D01*
X30711Y24757D01*
X30637Y24814D01*
X30551Y24850D01*
X30458Y24862D01*
D02*
G37*
G36*
X32508Y23855D02*
Y23554D01*
X32810D01*
X32804Y23596D01*
X32768Y23683D01*
X32711Y23757D01*
X32637Y23814D01*
X32551Y23850D01*
X32508Y23855D01*
D02*
G37*
G36*
X32408Y23855D02*
X32365Y23850D01*
X32279Y23814D01*
X32204Y23757D01*
X32148Y23683D01*
X32112Y23596D01*
X32106Y23554D01*
X32408D01*
Y23855D01*
D02*
G37*
G36*
Y23454D02*
X32106D01*
X32112Y23411D01*
X32148Y23324D01*
X32204Y23250D01*
X32279Y23193D01*
X32365Y23157D01*
X32408Y23152D01*
Y23454D01*
D02*
G37*
G36*
X32810D02*
X32508D01*
Y23152D01*
X32551Y23157D01*
X32637Y23193D01*
X32711Y23250D01*
X32768Y23324D01*
X32804Y23411D01*
X32810Y23454D01*
D02*
G37*
G36*
X31458Y23862D02*
X31365Y23850D01*
X31279Y23814D01*
X31204Y23757D01*
X31148Y23683D01*
X31112Y23596D01*
X31100Y23504D01*
X31112Y23411D01*
X31148Y23324D01*
X31204Y23250D01*
X31279Y23193D01*
X31365Y23157D01*
X31458Y23145D01*
X31551Y23157D01*
X31637Y23193D01*
X31711Y23250D01*
X31768Y23324D01*
X31804Y23411D01*
X31816Y23504D01*
X31804Y23596D01*
X31768Y23683D01*
X31711Y23757D01*
X31637Y23814D01*
X31551Y23850D01*
X31458Y23862D01*
D02*
G37*
G36*
X30458D02*
X30365Y23850D01*
X30279Y23814D01*
X30204Y23757D01*
X30148Y23683D01*
X30112Y23596D01*
X30100Y23504D01*
X30112Y23411D01*
X30148Y23324D01*
X30204Y23250D01*
X30279Y23193D01*
X30365Y23157D01*
X30458Y23145D01*
X30551Y23157D01*
X30637Y23193D01*
X30711Y23250D01*
X30768Y23324D01*
X30804Y23411D01*
X30816Y23504D01*
X30804Y23596D01*
X30768Y23683D01*
X30711Y23757D01*
X30637Y23814D01*
X30551Y23850D01*
X30458Y23862D01*
D02*
G37*
G36*
X32508Y22855D02*
Y22554D01*
X32810D01*
X32804Y22596D01*
X32768Y22683D01*
X32711Y22757D01*
X32637Y22814D01*
X32551Y22850D01*
X32508Y22855D01*
D02*
G37*
G36*
X32408Y22855D02*
X32365Y22850D01*
X32279Y22814D01*
X32204Y22757D01*
X32148Y22683D01*
X32112Y22596D01*
X32106Y22554D01*
X32408D01*
Y22855D01*
D02*
G37*
G36*
X14350Y23008D02*
X14257Y22996D01*
X14171Y22960D01*
X14097Y22903D01*
X14040Y22829D01*
X14004Y22743D01*
X13992Y22650D01*
X14004Y22557D01*
X14040Y22471D01*
X14097Y22397D01*
X14171Y22340D01*
X14257Y22304D01*
X14350Y22292D01*
X14443Y22304D01*
X14529Y22340D01*
X14603Y22397D01*
X14660Y22471D01*
X14696Y22557D01*
X14708Y22650D01*
X14696Y22743D01*
X14660Y22829D01*
X14603Y22903D01*
X14529Y22960D01*
X14443Y22996D01*
X14350Y23008D01*
D02*
G37*
G36*
X13350D02*
X13257Y22996D01*
X13171Y22960D01*
X13097Y22903D01*
X13040Y22829D01*
X13004Y22743D01*
X12992Y22650D01*
X13004Y22557D01*
X13040Y22471D01*
X13097Y22397D01*
X13171Y22340D01*
X13257Y22304D01*
X13350Y22292D01*
X13443Y22304D01*
X13529Y22340D01*
X13603Y22397D01*
X13660Y22471D01*
X13696Y22557D01*
X13708Y22650D01*
X13696Y22743D01*
X13660Y22829D01*
X13603Y22903D01*
X13529Y22960D01*
X13443Y22996D01*
X13350Y23008D01*
D02*
G37*
G36*
X32408Y22454D02*
X32106D01*
X32112Y22411D01*
X32148Y22324D01*
X32204Y22250D01*
X32279Y22193D01*
X32365Y22157D01*
X32408Y22152D01*
Y22454D01*
D02*
G37*
G36*
X32810D02*
X32508D01*
Y22152D01*
X32551Y22157D01*
X32637Y22193D01*
X32711Y22250D01*
X32768Y22324D01*
X32804Y22411D01*
X32810Y22454D01*
D02*
G37*
G36*
X31458Y22862D02*
X31365Y22850D01*
X31279Y22814D01*
X31204Y22757D01*
X31148Y22683D01*
X31112Y22596D01*
X31100Y22504D01*
X31112Y22411D01*
X31148Y22324D01*
X31204Y22250D01*
X31279Y22193D01*
X31365Y22157D01*
X31458Y22145D01*
X31551Y22157D01*
X31637Y22193D01*
X31711Y22250D01*
X31768Y22324D01*
X31804Y22411D01*
X31816Y22504D01*
X31804Y22596D01*
X31768Y22683D01*
X31711Y22757D01*
X31637Y22814D01*
X31551Y22850D01*
X31458Y22862D01*
D02*
G37*
G36*
X30458D02*
X30365Y22850D01*
X30279Y22814D01*
X30204Y22757D01*
X30148Y22683D01*
X30112Y22596D01*
X30100Y22504D01*
X30112Y22411D01*
X30148Y22324D01*
X30204Y22250D01*
X30279Y22193D01*
X30365Y22157D01*
X30458Y22145D01*
X30551Y22157D01*
X30637Y22193D01*
X30711Y22250D01*
X30768Y22324D01*
X30804Y22411D01*
X30816Y22504D01*
X30804Y22596D01*
X30768Y22683D01*
X30711Y22757D01*
X30637Y22814D01*
X30551Y22850D01*
X30458Y22862D01*
D02*
G37*
G36*
X14705Y22005D02*
X14400D01*
Y21700D01*
X14705D01*
Y22005D01*
D02*
G37*
G36*
X14300D02*
X13995D01*
Y21700D01*
X14300D01*
Y22005D01*
D02*
G37*
G36*
X32508Y21855D02*
Y21554D01*
X32810D01*
X32804Y21596D01*
X32768Y21683D01*
X32711Y21757D01*
X32637Y21814D01*
X32551Y21850D01*
X32508Y21855D01*
D02*
G37*
G36*
X32408Y21855D02*
X32365Y21850D01*
X32279Y21814D01*
X32204Y21757D01*
X32148Y21683D01*
X32112Y21596D01*
X32106Y21554D01*
X32408D01*
Y21855D01*
D02*
G37*
G36*
X14705Y21600D02*
X14400D01*
Y21295D01*
X14705D01*
Y21600D01*
D02*
G37*
G36*
X14300D02*
X13995D01*
Y21295D01*
X14300D01*
Y21600D01*
D02*
G37*
G36*
X13350Y22008D02*
X13257Y21996D01*
X13171Y21960D01*
X13097Y21903D01*
X13040Y21829D01*
X13004Y21743D01*
X12992Y21650D01*
X13004Y21557D01*
X13040Y21471D01*
X13097Y21397D01*
X13171Y21340D01*
X13257Y21304D01*
X13350Y21292D01*
X13443Y21304D01*
X13529Y21340D01*
X13603Y21397D01*
X13660Y21471D01*
X13696Y21557D01*
X13708Y21650D01*
X13696Y21743D01*
X13660Y21829D01*
X13603Y21903D01*
X13529Y21960D01*
X13443Y21996D01*
X13350Y22008D01*
D02*
G37*
G36*
X32408Y21454D02*
X32106D01*
X32112Y21411D01*
X32148Y21324D01*
X32204Y21250D01*
X32279Y21193D01*
X32365Y21157D01*
X32408Y21152D01*
Y21454D01*
D02*
G37*
G36*
X32810D02*
X32508D01*
Y21152D01*
X32551Y21157D01*
X32637Y21193D01*
X32711Y21250D01*
X32768Y21324D01*
X32804Y21411D01*
X32810Y21454D01*
D02*
G37*
G36*
X31458Y21862D02*
X31365Y21850D01*
X31279Y21814D01*
X31204Y21757D01*
X31148Y21683D01*
X31112Y21596D01*
X31100Y21504D01*
X31112Y21411D01*
X31148Y21324D01*
X31204Y21250D01*
X31279Y21193D01*
X31365Y21157D01*
X31458Y21145D01*
X31551Y21157D01*
X31637Y21193D01*
X31711Y21250D01*
X31768Y21324D01*
X31804Y21411D01*
X31816Y21504D01*
X31804Y21596D01*
X31768Y21683D01*
X31711Y21757D01*
X31637Y21814D01*
X31551Y21850D01*
X31458Y21862D01*
D02*
G37*
G36*
X30458D02*
X30365Y21850D01*
X30279Y21814D01*
X30204Y21757D01*
X30148Y21683D01*
X30112Y21596D01*
X30100Y21504D01*
X30112Y21411D01*
X30148Y21324D01*
X30204Y21250D01*
X30279Y21193D01*
X30365Y21157D01*
X30458Y21145D01*
X30551Y21157D01*
X30637Y21193D01*
X30711Y21250D01*
X30768Y21324D01*
X30804Y21411D01*
X30816Y21504D01*
X30804Y21596D01*
X30768Y21683D01*
X30711Y21757D01*
X30637Y21814D01*
X30551Y21850D01*
X30458Y21862D01*
D02*
G37*
G36*
X32508Y20855D02*
Y20554D01*
X32810D01*
X32804Y20596D01*
X32768Y20683D01*
X32711Y20757D01*
X32637Y20814D01*
X32551Y20850D01*
X32508Y20855D01*
D02*
G37*
G36*
X32408Y20855D02*
X32365Y20850D01*
X32279Y20814D01*
X32204Y20757D01*
X32148Y20683D01*
X32112Y20596D01*
X32106Y20554D01*
X32408D01*
Y20855D01*
D02*
G37*
G36*
X28450Y21473D02*
X28384Y21460D01*
X28327Y21423D01*
X28290Y21366D01*
X28277Y21300D01*
X28278Y21295D01*
X28275Y21283D01*
Y20697D01*
X27690D01*
Y20613D01*
X27450D01*
X27388Y20601D01*
X27335Y20565D01*
X26935Y20165D01*
X26899Y20112D01*
X26887Y20050D01*
Y16150D01*
X26899Y16088D01*
X26935Y16035D01*
X27085Y15885D01*
X27138Y15849D01*
X27200Y15837D01*
X27590D01*
Y15753D01*
X29088D01*
Y15837D01*
X29900D01*
X29962Y15849D01*
X30015Y15885D01*
X30352Y16221D01*
X31062D01*
X31072Y16195D01*
X31133Y16117D01*
X31211Y16057D01*
X31302Y16019D01*
X31400Y16006D01*
X31498Y16019D01*
X31589Y16057D01*
X31667Y16117D01*
X31728Y16195D01*
X31765Y16286D01*
X31778Y16384D01*
X31765Y16482D01*
X31728Y16573D01*
X31667Y16652D01*
X31589Y16712D01*
X31498Y16750D01*
X31400Y16762D01*
X31302Y16750D01*
X31211Y16712D01*
X31133Y16652D01*
X31072Y16573D01*
X31062Y16547D01*
X30284D01*
X30222Y16535D01*
X30169Y16500D01*
X29832Y16163D01*
X29300D01*
X29281Y16209D01*
X29504Y16433D01*
X29568D01*
X29600Y16427D01*
X29666Y16440D01*
X29723Y16477D01*
X29760Y16534D01*
X29773Y16600D01*
X29760Y16666D01*
X29723Y16723D01*
X29666Y16760D01*
X29600Y16773D01*
X29534Y16760D01*
X29532Y16759D01*
X29437D01*
X29374Y16747D01*
X29321Y16712D01*
X28857Y16247D01*
X27590D01*
Y16163D01*
X27268D01*
X27213Y16218D01*
Y19982D01*
X27518Y20287D01*
X27690D01*
Y20203D01*
X29188D01*
Y20697D01*
X28602D01*
Y21221D01*
X28610Y21234D01*
X28623Y21300D01*
X28610Y21366D01*
X28573Y21423D01*
X28516Y21460D01*
X28450Y21473D01*
D02*
G37*
G36*
X32408Y20454D02*
X32106D01*
X32112Y20411D01*
X32148Y20324D01*
X32204Y20250D01*
X32279Y20193D01*
X32365Y20157D01*
X32408Y20152D01*
Y20454D01*
D02*
G37*
G36*
X32810D02*
X32508D01*
Y20152D01*
X32551Y20157D01*
X32637Y20193D01*
X32711Y20250D01*
X32768Y20324D01*
X32804Y20411D01*
X32810Y20454D01*
D02*
G37*
G36*
X31458Y20862D02*
X31365Y20850D01*
X31279Y20814D01*
X31204Y20757D01*
X31148Y20683D01*
X31112Y20596D01*
X31100Y20504D01*
X31112Y20411D01*
X31148Y20324D01*
X31204Y20250D01*
X31279Y20193D01*
X31365Y20157D01*
X31458Y20145D01*
X31551Y20157D01*
X31637Y20193D01*
X31711Y20250D01*
X31768Y20324D01*
X31804Y20411D01*
X31816Y20504D01*
X31804Y20596D01*
X31768Y20683D01*
X31711Y20757D01*
X31637Y20814D01*
X31551Y20850D01*
X31458Y20862D01*
D02*
G37*
G36*
X30458D02*
X30365Y20850D01*
X30279Y20814D01*
X30204Y20757D01*
X30148Y20683D01*
X30112Y20596D01*
X30100Y20504D01*
X30112Y20411D01*
X30148Y20324D01*
X30204Y20250D01*
X30279Y20193D01*
X30365Y20157D01*
X30458Y20145D01*
X30551Y20157D01*
X30637Y20193D01*
X30711Y20250D01*
X30768Y20324D01*
X30804Y20411D01*
X30816Y20504D01*
X30804Y20596D01*
X30768Y20683D01*
X30711Y20757D01*
X30637Y20814D01*
X30551Y20850D01*
X30458Y20862D01*
D02*
G37*
G36*
X32508Y19855D02*
Y19554D01*
X32810D01*
X32804Y19596D01*
X32768Y19683D01*
X32711Y19757D01*
X32637Y19814D01*
X32551Y19850D01*
X32508Y19855D01*
D02*
G37*
G36*
X32408Y19855D02*
X32365Y19850D01*
X32279Y19814D01*
X32204Y19757D01*
X32148Y19683D01*
X32112Y19596D01*
X32106Y19554D01*
X32408D01*
Y19855D01*
D02*
G37*
G36*
X26432Y21547D02*
X24650D01*
Y19500D01*
X26432D01*
Y21547D01*
D02*
G37*
G36*
X24550D02*
X22768D01*
Y19500D01*
X24550D01*
Y21547D01*
D02*
G37*
G36*
X16900Y22063D02*
X16838Y22051D01*
X16785Y22015D01*
X16749Y21962D01*
X16737Y21900D01*
Y19968D01*
X16485Y19715D01*
X16449Y19662D01*
X16437Y19600D01*
X16449Y19538D01*
X16485Y19485D01*
X16538Y19449D01*
X16600Y19437D01*
X16662Y19449D01*
X16715Y19485D01*
X17015Y19785D01*
X17051Y19838D01*
X17063Y19900D01*
Y21900D01*
X17051Y21962D01*
X17015Y22015D01*
X16962Y22051D01*
X16900Y22063D01*
D02*
G37*
G36*
X32408Y19454D02*
X32106D01*
X32112Y19411D01*
X32148Y19324D01*
X32204Y19250D01*
X32279Y19193D01*
X32365Y19157D01*
X32408Y19152D01*
Y19454D01*
D02*
G37*
G36*
X32810D02*
X32508D01*
Y19152D01*
X32551Y19157D01*
X32637Y19193D01*
X32711Y19250D01*
X32768Y19324D01*
X32804Y19411D01*
X32810Y19454D01*
D02*
G37*
G36*
X31458Y19862D02*
X31365Y19850D01*
X31279Y19814D01*
X31204Y19757D01*
X31148Y19683D01*
X31112Y19596D01*
X31100Y19504D01*
X31112Y19411D01*
X31148Y19324D01*
X31204Y19250D01*
X31279Y19193D01*
X31365Y19157D01*
X31458Y19145D01*
X31551Y19157D01*
X31637Y19193D01*
X31711Y19250D01*
X31768Y19324D01*
X31804Y19411D01*
X31816Y19504D01*
X31804Y19596D01*
X31768Y19683D01*
X31711Y19757D01*
X31637Y19814D01*
X31551Y19850D01*
X31458Y19862D01*
D02*
G37*
G36*
X30458D02*
X30365Y19850D01*
X30279Y19814D01*
X30204Y19757D01*
X30148Y19683D01*
X30112Y19596D01*
X30100Y19504D01*
X30112Y19411D01*
X30148Y19324D01*
X30204Y19250D01*
X30279Y19193D01*
X30365Y19157D01*
X30458Y19145D01*
X30551Y19157D01*
X30637Y19193D01*
X30711Y19250D01*
X30768Y19324D01*
X30804Y19411D01*
X30816Y19504D01*
X30804Y19596D01*
X30768Y19683D01*
X30711Y19757D01*
X30637Y19814D01*
X30551Y19850D01*
X30458Y19862D01*
D02*
G37*
G36*
X32813Y18859D02*
X32508D01*
Y18554D01*
X32813D01*
Y18859D01*
D02*
G37*
G36*
X32408D02*
X32103D01*
Y18554D01*
X32408D01*
Y18859D01*
D02*
G37*
G36*
X28850Y19523D02*
X28784Y19510D01*
X28727Y19473D01*
X28698Y19429D01*
X28323Y19054D01*
X28288Y19001D01*
X28275Y18939D01*
Y18697D01*
X27690D01*
Y18203D01*
X29188D01*
Y18697D01*
X28602D01*
Y18871D01*
X28929Y19198D01*
X28973Y19227D01*
X29010Y19284D01*
X29023Y19350D01*
X29010Y19416D01*
X28973Y19473D01*
X28916Y19510D01*
X28850Y19523D01*
D02*
G37*
G36*
X19050Y18612D02*
X19007Y18604D01*
X18971Y18579D01*
X18804Y18412D01*
X18150D01*
X18107Y18404D01*
X18071Y18379D01*
X18046Y18343D01*
X18038Y18300D01*
X18046Y18257D01*
X18071Y18221D01*
X18107Y18196D01*
X18150Y18188D01*
X18850D01*
X18850Y18188D01*
X18893Y18196D01*
X18929Y18221D01*
X19129Y18421D01*
X19154Y18457D01*
X19162Y18500D01*
X19154Y18543D01*
X19129Y18579D01*
X19093Y18604D01*
X19050Y18612D01*
D02*
G37*
G36*
X32813Y18454D02*
X32508D01*
Y18148D01*
X32813D01*
Y18454D01*
D02*
G37*
G36*
X32408D02*
X32103D01*
Y18148D01*
X32408D01*
Y18454D01*
D02*
G37*
G36*
X31813Y18859D02*
X31103D01*
Y18148D01*
X31813D01*
Y18859D01*
D02*
G37*
G36*
X30813D02*
X30103D01*
Y18148D01*
X30813D01*
Y18859D01*
D02*
G37*
G36*
X26432Y19400D02*
X24650D01*
Y17353D01*
X26432D01*
Y19400D01*
D02*
G37*
G36*
X24550D02*
X22768D01*
Y17353D01*
X24550D01*
Y19400D01*
D02*
G37*
G36*
X15350Y17513D02*
X14050D01*
X13988Y17501D01*
X13935Y17465D01*
X13899Y17412D01*
X13887Y17350D01*
X13899Y17288D01*
X13935Y17235D01*
X13988Y17199D01*
X14050Y17187D01*
X15282D01*
X15585Y16885D01*
X15638Y16849D01*
X15700Y16837D01*
X15762Y16849D01*
X15815Y16885D01*
X15851Y16938D01*
X15863Y17000D01*
X15851Y17062D01*
X15815Y17115D01*
X15465Y17465D01*
X15412Y17501D01*
X15350Y17513D01*
D02*
G37*
G36*
X26332Y17097D02*
X24550D01*
Y15050D01*
X26332D01*
Y17097D01*
D02*
G37*
G36*
X24450D02*
X22668D01*
Y15050D01*
X24450D01*
Y17097D01*
D02*
G37*
G36*
X31775Y14791D02*
X31450D01*
Y14466D01*
X31775D01*
Y14791D01*
D02*
G37*
G36*
X31350D02*
X31025D01*
Y14466D01*
X31350D01*
Y14791D01*
D02*
G37*
G36*
X31775Y14366D02*
X31450D01*
Y14041D01*
X31775D01*
Y14366D01*
D02*
G37*
G36*
X31350D02*
X31025D01*
Y14041D01*
X31350D01*
Y14366D01*
D02*
G37*
G36*
X24450Y14950D02*
X22668D01*
Y12903D01*
X24450D01*
Y14950D01*
D02*
G37*
G36*
X18850Y11902D02*
Y11600D01*
X19152D01*
X19146Y11643D01*
X19110Y11729D01*
X19053Y11803D01*
X18979Y11860D01*
X18893Y11896D01*
X18850Y11902D01*
D02*
G37*
G36*
X18750D02*
X18707Y11896D01*
X18621Y11860D01*
X18547Y11803D01*
X18490Y11729D01*
X18454Y11643D01*
X18448Y11600D01*
X18750D01*
Y11902D01*
D02*
G37*
G36*
X31850Y12460D02*
X31718Y12449D01*
X31540Y12407D01*
X31372Y12337D01*
X31216Y12241D01*
X31077Y12123D01*
X30959Y11984D01*
X30863Y11828D01*
X30793Y11660D01*
X30751Y11482D01*
X30740Y11350D01*
X31850D01*
Y12460D01*
D02*
G37*
G36*
X13700D02*
Y11350D01*
X14810D01*
X14799Y11482D01*
X14757Y11660D01*
X14687Y11828D01*
X14591Y11984D01*
X14473Y12123D01*
X14334Y12241D01*
X14178Y12337D01*
X14010Y12407D01*
X13832Y12449D01*
X13700Y12460D01*
D02*
G37*
G36*
X13450Y18273D02*
X13384Y18260D01*
X13327Y18223D01*
X13290Y18166D01*
X13277Y18100D01*
X13287Y18049D01*
Y13850D01*
X13299Y13788D01*
X13335Y13735D01*
X14885Y12185D01*
X14938Y12149D01*
X14957Y12145D01*
X14987Y12115D01*
Y11050D01*
X14999Y10988D01*
X15035Y10935D01*
X15285Y10685D01*
X15338Y10649D01*
X15400Y10637D01*
X24335D01*
X24398Y10649D01*
X24451Y10685D01*
X27415Y13649D01*
X27451Y13702D01*
X27460Y13750D01*
X28175D01*
Y12561D01*
X28188Y12499D01*
X28223Y12446D01*
X29348Y11321D01*
X29377Y11277D01*
X29434Y11240D01*
X29500Y11227D01*
X29566Y11240D01*
X29623Y11277D01*
X29660Y11334D01*
X29673Y11400D01*
X29660Y11466D01*
X29623Y11523D01*
X29579Y11552D01*
X28502Y12629D01*
Y13753D01*
X29088D01*
Y13837D01*
X29400D01*
X29462Y13849D01*
X29515Y13885D01*
X29779Y14148D01*
X29823Y14177D01*
X29860Y14234D01*
X29873Y14300D01*
X29860Y14366D01*
X29823Y14423D01*
X29766Y14460D01*
X29700Y14473D01*
X29634Y14460D01*
X29577Y14423D01*
X29548Y14379D01*
X29332Y14163D01*
X29088D01*
Y14247D01*
X27590D01*
Y14076D01*
X27380D01*
X27318Y14064D01*
X27265Y14028D01*
X27185Y13948D01*
X27149Y13895D01*
X27137Y13833D01*
Y13832D01*
X26378Y13073D01*
X26332Y13092D01*
Y14950D01*
X24550D01*
Y12903D01*
X26142D01*
X26161Y12856D01*
X24268Y10963D01*
X15468D01*
X15313Y11118D01*
Y12183D01*
X15301Y12245D01*
X15265Y12298D01*
X15148Y12415D01*
X15095Y12451D01*
X15076Y12455D01*
X13613Y13918D01*
Y18049D01*
X13623Y18100D01*
X13610Y18166D01*
X13573Y18223D01*
X13516Y18260D01*
X13450Y18273D01*
D02*
G37*
G36*
X19152Y11500D02*
X18850D01*
Y11198D01*
X18893Y11204D01*
X18979Y11240D01*
X19053Y11297D01*
X19110Y11371D01*
X19146Y11457D01*
X19152Y11500D01*
D02*
G37*
G36*
X18750D02*
X18448D01*
X18454Y11457D01*
X18490Y11371D01*
X18547Y11297D01*
X18621Y11240D01*
X18707Y11204D01*
X18750Y11198D01*
Y11500D01*
D02*
G37*
%LPD*%
G36*
X28330Y32456D02*
X28304Y32393D01*
X28292Y32300D01*
X28304Y32207D01*
X28336Y32130D01*
X27241Y31035D01*
X26794D01*
X26755Y31027D01*
X26722Y31005D01*
X25530Y29813D01*
X25506Y29818D01*
X25439Y29804D01*
X25383Y29767D01*
X25382Y29765D01*
X25332Y29780D01*
Y30520D01*
X25325Y30559D01*
X25302Y30592D01*
X24952Y30942D01*
Y31100D01*
X24944Y31139D01*
X24922Y31172D01*
X24818Y31276D01*
X24823Y31300D01*
X24810Y31366D01*
X24782Y31408D01*
X24803Y31458D01*
X26469D01*
X26508Y31466D01*
X26541Y31488D01*
X27258Y32204D01*
X27312Y32188D01*
X27340Y32121D01*
X27397Y32047D01*
X27471Y31990D01*
X27557Y31954D01*
X27650Y31942D01*
X27743Y31954D01*
X27829Y31990D01*
X27903Y32047D01*
X27960Y32121D01*
X27996Y32207D01*
X28008Y32296D01*
X28057D01*
X28096Y32303D01*
X28129Y32326D01*
X28288Y32485D01*
X28330Y32456D01*
D02*
G37*
G36*
X17713Y17161D02*
X17779Y17147D01*
X17845Y17161D01*
X17860Y17171D01*
X17913Y17160D01*
X17947Y17110D01*
Y16131D01*
X17954Y16092D01*
X17977Y16059D01*
X18762Y15273D01*
Y14558D01*
X18712Y14533D01*
X18654Y14544D01*
X18630Y14540D01*
X17552Y15617D01*
Y16664D01*
X17573Y16677D01*
X17610Y16734D01*
X17623Y16800D01*
X17610Y16866D01*
X17573Y16923D01*
X17523Y16955D01*
X17506Y17009D01*
X17680Y17183D01*
X17713Y17161D01*
D02*
G37*
G36*
X15760Y26923D02*
X15756Y26898D01*
X15767Y26840D01*
X15742Y26790D01*
X15427D01*
X14686Y27532D01*
X14696Y27557D01*
X14708Y27650D01*
X14696Y27743D01*
X14660Y27829D01*
X14611Y27893D01*
X14627Y27943D01*
X14740D01*
X15760Y26923D01*
D02*
G37*
G36*
X14089Y24893D02*
X14040Y24829D01*
X14004Y24743D01*
X13992Y24650D01*
X14004Y24557D01*
X14040Y24471D01*
X14097Y24397D01*
X14171Y24340D01*
X14257Y24304D01*
X14350Y24292D01*
X14443Y24304D01*
X14529Y24340D01*
X14603Y24397D01*
X14660Y24471D01*
X14692Y24548D01*
X17708D01*
X18458Y23798D01*
X18453Y23773D01*
X18465Y23715D01*
X18439Y23665D01*
X16526D01*
X16074Y24117D01*
X16041Y24139D01*
X16002Y24147D01*
X13438D01*
X13338Y24247D01*
X13363Y24293D01*
X13443Y24304D01*
X13529Y24340D01*
X13603Y24397D01*
X13660Y24471D01*
X13696Y24557D01*
X13708Y24650D01*
X13696Y24743D01*
X13664Y24820D01*
X13788Y24943D01*
X14073D01*
X14089Y24893D01*
D02*
G37*
G36*
X16331Y23572D02*
X16312Y23525D01*
X14753D01*
X14699Y23579D01*
X14708Y23650D01*
X14696Y23743D01*
X14660Y23829D01*
X14611Y23893D01*
X14627Y23943D01*
X15960D01*
X16331Y23572D01*
D02*
G37*
%LPC*%
G36*
X17700Y24363D02*
X17050D01*
X16988Y24351D01*
X16935Y24315D01*
X16899Y24262D01*
X16887Y24200D01*
X16899Y24138D01*
X16935Y24085D01*
X16988Y24049D01*
X17050Y24037D01*
X17700D01*
X17762Y24049D01*
X17815Y24085D01*
X17851Y24138D01*
X17863Y24200D01*
X17851Y24262D01*
X17815Y24315D01*
X17762Y24351D01*
X17700Y24363D01*
D02*
G37*
%LPD*%
D88*
X25925Y29500D02*
X25950D01*
X27100Y28350D02*
X28250D01*
X25950Y29500D02*
X27100Y28350D01*
X25506Y29622D02*
X27428Y27700D01*
X25506Y29622D02*
Y29644D01*
X27428Y27700D02*
X27800D01*
X26645Y33945D02*
X27050Y34350D01*
Y34900D01*
X28045Y34345D02*
X28050Y34350D01*
Y34951D01*
X27255Y32464D02*
X28045Y33254D01*
Y34345D01*
X30050Y34391D02*
Y34900D01*
X28057Y32398D02*
X30050Y34391D01*
X27748Y32398D02*
X28057D01*
X27650Y32300D02*
X27748Y32398D01*
X17950Y29450D02*
X21450Y25950D01*
X17950Y29450D02*
Y30900D01*
X15287Y15415D02*
X16376D01*
X17450Y15575D02*
Y16800D01*
X17130Y15324D02*
Y16777D01*
X17647Y17294D01*
X17450Y15575D02*
X18654Y14371D01*
X16800Y14993D02*
X17130Y15324D01*
X17647Y17294D02*
X17752D01*
X17779Y17321D01*
X18049Y16131D02*
Y17202D01*
X18864Y14284D02*
Y15315D01*
X18049Y16131D02*
X18864Y15315D01*
X19752Y14698D02*
X21103D01*
X18250Y16200D02*
X19752Y14698D01*
X18250Y16200D02*
Y16991D01*
X22550Y26850D02*
Y29750D01*
X25100Y32300D02*
Y33732D01*
X22550Y29750D02*
X25100Y32300D01*
Y33732D02*
X25313Y33945D01*
X22997Y29703D02*
X24110Y28590D01*
X24558Y31560D02*
X26469D01*
X22690Y27210D02*
Y29692D01*
X24558Y31560D01*
X24850Y30900D02*
Y31100D01*
X25230Y28242D02*
Y30520D01*
X24850Y30900D02*
X25230Y30520D01*
X24650Y31300D02*
X24850Y31100D01*
X24110Y24110D02*
Y28590D01*
X26469Y31560D02*
X27255Y32346D01*
Y32464D01*
X22690Y27210D02*
X23000Y26900D01*
X22550Y26850D02*
X23000Y26400D01*
X25313Y33945D02*
X26645D01*
X27283Y30933D02*
X28650Y32300D01*
X26794Y30933D02*
X27283D01*
X25506Y29644D02*
X26794Y30933D01*
X25230Y28242D02*
X25474Y27999D01*
X17800Y11650D02*
Y12533D01*
X17140Y13193D02*
Y13937D01*
X17314Y14111D01*
X18691D01*
X18049Y17202D02*
X18073Y17227D01*
X17140Y13193D02*
X17800Y12533D01*
X18691Y14111D02*
X18864Y14284D01*
X16800Y11650D02*
Y14993D01*
X25350Y26100D02*
Y26126D01*
X25100Y26800D02*
X25400Y26500D01*
X26499Y27275D02*
Y27301D01*
X25100Y26800D02*
Y27600D01*
X26850Y25700D02*
X27046Y25504D01*
X24660Y26210D02*
Y30102D01*
X26457Y25857D02*
X27550Y26950D01*
X24604Y25857D02*
X26457D01*
X25350Y26126D02*
X26499Y27275D01*
X27046Y25504D02*
X30458D01*
X14423Y27650D02*
X15385Y26688D01*
X17238D01*
X17900Y27350D01*
X14350Y27650D02*
X14423D01*
X14830Y27045D02*
X15475Y26400D01*
X15050Y28650D02*
X16300Y27400D01*
X14782Y28045D02*
X15929Y26898D01*
X13955Y27045D02*
X14830D01*
X13955Y28045D02*
X14782D01*
X14350Y28650D02*
X15050D01*
X15475Y26400D02*
X16250D01*
X23900Y24800D02*
Y25216D01*
X24394Y25944D02*
X24660Y26210D01*
X24110Y23700D02*
X24394Y23984D01*
X24445Y30317D02*
X24660Y30102D01*
X24394Y23984D02*
Y25944D01*
X12955Y24486D02*
X13396Y24045D01*
X14484Y23650D02*
X14711Y23423D01*
X12955Y24486D02*
Y25255D01*
X13350Y25650D01*
X16050D02*
X16300Y25400D01*
X21450Y24250D02*
Y25950D01*
X21697Y20400D02*
X22350Y21053D01*
Y23250D01*
X14350Y23650D02*
X14484D01*
X13396Y24045D02*
X16002D01*
X15050Y25950D02*
X15950D01*
X14350Y25650D02*
X16050D01*
X13350Y28650D02*
X13955Y28045D01*
X16484Y23563D02*
X19128D01*
X20800Y20400D02*
X21697D01*
X13350Y24650D02*
X13745Y25045D01*
X13350Y27650D02*
X13955Y27045D01*
X17750Y24650D02*
X18627Y23773D01*
X17905Y25045D02*
X18700Y24250D01*
X19873Y23423D02*
X20700Y24250D01*
X20200Y23000D02*
X21450Y24250D01*
X23900Y23900D02*
X24110Y24110D01*
X14350Y26650D02*
X15050Y25950D01*
X16002Y24045D02*
X16484Y23563D01*
X19128D02*
X19950Y24386D01*
X22350Y23250D02*
X23900Y24800D01*
X14711Y23423D02*
X19873D01*
X14350Y24650D02*
X17750D01*
X13745Y25045D02*
X17905D01*
X20800Y16875D02*
Y20400D01*
X20200Y17900D02*
Y23000D01*
X18250Y16991D02*
X18259Y17000D01*
X20200Y16350D02*
X20500Y16050D01*
X20200Y16350D02*
Y17900D01*
X21400Y12750D02*
Y16275D01*
X15013Y15689D02*
X15287Y15415D01*
X20800Y16875D02*
X21400Y16275D01*
D89*
X14050Y17350D02*
X15350D01*
X15700Y17000D01*
X27140Y28965D02*
X28323D01*
X15400Y10800D02*
X24335D01*
X15000Y12300D02*
X15033D01*
X15150Y12183D01*
Y11050D02*
Y12183D01*
Y11050D02*
X15400Y10800D01*
X13450Y13850D02*
X15000Y12300D01*
X13450Y13850D02*
Y18100D01*
X28339Y12561D02*
Y14000D01*
X17909Y31398D02*
X17936D01*
X23246D01*
X17050Y24200D02*
X17700D01*
X16900Y19900D02*
Y21900D01*
X16600Y19600D02*
X16900Y19900D01*
X24207Y32359D02*
X24692D01*
X23246Y31398D02*
X24207Y32359D01*
X24950Y31800D02*
X26150D01*
X26650Y32300D01*
X27300Y13833D02*
X27380Y13913D01*
X28252D01*
X28339Y14000D01*
X27300Y13765D02*
Y13833D01*
X24335Y10800D02*
X27300Y13765D01*
X28323Y28965D02*
X29406Y30048D01*
X31003D02*
X31458Y30504D01*
X29406Y30048D02*
X31003D01*
X28302Y31152D02*
X29406Y30048D01*
X28439Y18939D02*
X28850Y19350D01*
X28439Y18450D02*
Y18939D01*
X28450Y21295D02*
Y21300D01*
X28439Y21283D02*
X28450Y21295D01*
X28439Y20450D02*
Y21283D01*
X27450Y20450D02*
X28439D01*
X27050Y20050D02*
X27450Y20450D01*
X27050Y16150D02*
Y20050D01*
X27200Y16000D02*
X28339D01*
X27050Y16150D02*
X27200Y16000D01*
X28841D02*
X29900D01*
X28339D02*
X28841D01*
X29437Y16596D01*
X29596D01*
X29600Y16600D01*
X28339Y14000D02*
X29400D01*
X29700Y14300D01*
X28339Y12561D02*
X29500Y11400D01*
X30284Y16384D02*
X31400D01*
X29900Y16000D02*
X30284Y16384D01*
D90*
X14700Y13750D02*
X15800Y12650D01*
X14700Y13750D02*
Y16017D01*
X15800Y11650D02*
Y12650D01*
X17936Y31398D02*
X18350Y30984D01*
X16400Y13400D02*
Y14953D01*
X16363Y15061D02*
X16375Y15073D01*
X17350Y13850D02*
X18400D01*
X19100Y20883D02*
Y22550D01*
X21850Y23097D02*
Y26350D01*
X18350Y29850D02*
Y30984D01*
Y29850D02*
X21850Y26350D01*
X16541Y18324D02*
X19100Y20883D01*
X14770Y16088D02*
X15130D01*
X16375Y15073D02*
X16653D01*
X16922Y15342D02*
Y15842D01*
X14700Y16017D02*
X14770Y16088D01*
X16541Y16224D02*
Y18324D01*
Y16224D02*
X16922Y15842D01*
X16653Y15073D02*
X16922Y15342D01*
D91*
X18150Y18300D02*
X18850D01*
X19050Y18500D01*
D92*
X30050Y34900D02*
D03*
X29050D02*
D03*
X28050D02*
D03*
X27050D02*
D03*
X26050D02*
D03*
X32458Y33504D02*
D03*
Y32504D02*
D03*
Y31504D02*
D03*
Y30504D02*
D03*
Y29504D02*
D03*
Y28504D02*
D03*
Y27504D02*
D03*
Y26504D02*
D03*
Y25504D02*
D03*
Y24504D02*
D03*
Y23504D02*
D03*
Y22504D02*
D03*
Y21504D02*
D03*
Y20504D02*
D03*
Y19504D02*
D03*
X31458Y33504D02*
D03*
Y32504D02*
D03*
Y31504D02*
D03*
Y30504D02*
D03*
Y29504D02*
D03*
Y28504D02*
D03*
Y27504D02*
D03*
Y26504D02*
D03*
Y25504D02*
D03*
Y24504D02*
D03*
Y23504D02*
D03*
Y22504D02*
D03*
Y21504D02*
D03*
Y20504D02*
D03*
Y19504D02*
D03*
X30458Y33504D02*
D03*
Y32504D02*
D03*
Y31504D02*
D03*
Y30504D02*
D03*
Y29504D02*
D03*
Y28504D02*
D03*
Y27504D02*
D03*
Y26504D02*
D03*
Y25504D02*
D03*
Y24504D02*
D03*
Y23504D02*
D03*
Y22504D02*
D03*
Y21504D02*
D03*
Y20504D02*
D03*
Y19504D02*
D03*
X26650Y33550D02*
D03*
X27650D02*
D03*
X28650D02*
D03*
X13350Y21650D02*
D03*
X14350Y22650D02*
D03*
X13350D02*
D03*
X14350Y23650D02*
D03*
X13350D02*
D03*
X14350Y24650D02*
D03*
X13350D02*
D03*
X14350Y25650D02*
D03*
X13350D02*
D03*
X14350Y26650D02*
D03*
X13350D02*
D03*
X14350Y27650D02*
D03*
X13350D02*
D03*
X14350Y28650D02*
D03*
X13350D02*
D03*
X14350Y29650D02*
D03*
X13350D02*
D03*
X14350Y30650D02*
D03*
X13350D02*
D03*
X14350Y31650D02*
D03*
X13350D02*
D03*
X14350Y32650D02*
D03*
X13350D02*
D03*
X14350Y33650D02*
D03*
X13350D02*
D03*
X18800Y11550D02*
D03*
X17800D02*
D03*
X16800D02*
D03*
X28650Y32300D02*
D03*
X27650D02*
D03*
X26650D02*
D03*
D93*
X25050Y34900D02*
D03*
X25650Y33550D02*
D03*
X15800Y11550D02*
D03*
X25650Y32300D02*
D03*
D94*
X32458Y18504D02*
D03*
X31458D02*
D03*
X30458D02*
D03*
X14350Y21650D02*
D03*
D95*
X31400Y16384D02*
D03*
D96*
Y14416D02*
D03*
D97*
X31900Y11300D02*
D03*
Y35300D02*
D03*
X13650D02*
D03*
Y11300D02*
D03*
D98*
X17950Y30900D02*
D03*
X16300Y25400D02*
D03*
X15950Y25950D02*
D03*
X24650Y31300D02*
D03*
X24604Y25857D02*
D03*
X18700Y24250D02*
D03*
X20700D02*
D03*
X23000Y26400D02*
D03*
X19950Y24386D02*
D03*
X23900Y25216D02*
D03*
X18627Y23773D02*
D03*
X15929Y26898D02*
D03*
X17909Y31398D02*
D03*
X24445Y30317D02*
D03*
X25350Y26100D02*
D03*
X17700Y24200D02*
D03*
X17900Y27350D02*
D03*
X22997Y29703D02*
D03*
X16300Y27400D02*
D03*
X23000Y26900D02*
D03*
X16250Y26400D02*
D03*
X20700Y30650D02*
D03*
X25925Y29500D02*
D03*
X25506Y29644D02*
D03*
X27140Y28965D02*
D03*
X27800Y27700D02*
D03*
X17779Y17321D02*
D03*
X17450Y16800D02*
D03*
X16376Y15415D02*
D03*
X18259Y17000D02*
D03*
X16363Y15061D02*
D03*
X18073Y17227D02*
D03*
X17050Y24200D02*
D03*
X16600Y19600D02*
D03*
X16900Y21900D02*
D03*
X15700Y17000D02*
D03*
X14050Y17350D02*
D03*
X19050Y18500D02*
D03*
X18150Y18300D02*
D03*
X24692Y32359D02*
D03*
X24950Y31800D02*
D03*
X13450Y18100D02*
D03*
X28302Y31152D02*
D03*
X16400Y13400D02*
D03*
X28250Y28350D02*
D03*
X28450Y21300D02*
D03*
X28850Y19350D02*
D03*
X29600Y16600D02*
D03*
X29700Y14300D02*
D03*
X29500Y11400D02*
D03*
X25100Y27600D02*
D03*
X27550Y26950D02*
D03*
X25400Y26500D02*
D03*
X26850Y25700D02*
D03*
X25474Y27999D02*
D03*
X26499Y27301D02*
D03*
X23900Y23900D02*
D03*
X21850Y23097D02*
D03*
X19100Y22550D02*
D03*
X20800Y20400D02*
D03*
X24110Y23700D02*
D03*
X20200Y17900D02*
D03*
X16541Y18324D02*
D03*
X15013Y15689D02*
D03*
X17350Y13850D02*
D03*
X21103Y14698D02*
D03*
X18654Y14371D02*
D03*
X20500Y16050D02*
D03*
X21400Y12750D02*
D03*
X18400Y13850D02*
D03*
X15130Y16088D02*
D03*
D99*
X28339Y16000D02*
D03*
Y14000D02*
D03*
X28439Y20450D02*
D03*
Y18450D02*
D03*
D100*
X24500Y15000D02*
D03*
X24600Y19450D02*
D03*
M02*
