G04*
G04 #@! TF.GenerationSoftware,Altium Limited,Altium Designer,20.1.14 (287)*
G04*
G04 Layer_Color=8421504*
%FSLAX24Y24*%
%MOIN*%
G70*
G04*
G04 #@! TF.SameCoordinates,D1A17965-E816-498F-87AB-38A2C5CE3A16*
G04*
G04*
G04 #@! TF.FilePolarity,Positive*
G04*
G01*
G75*
%ADD15R,0.0335X0.0177*%
%ADD16R,0.0335X0.0295*%
%ADD17R,0.0787X0.0354*%
%ADD18R,0.0354X0.0787*%
%ADD19R,0.0524X0.0524*%
%ADD20R,0.0315X0.0354*%
%ADD21R,0.0374X0.0354*%
%ADD22R,0.0354X0.0295*%
%ADD23R,0.0374X0.1378*%
%ADD24R,0.4075X0.3543*%
%ADD25R,0.0354X0.0394*%
%ADD26R,0.0512X0.0748*%
%ADD27R,0.0630X0.0858*%
%ADD28R,0.0630X0.0866*%
%ADD29R,0.0354X0.0315*%
%ADD30R,0.0512X0.0394*%
%ADD31R,0.0591X0.1299*%
%ADD32R,0.0591X0.0472*%
%ADD33R,0.0295X0.0354*%
%ADD34R,0.0295X0.0335*%
%ADD35R,0.0276X0.0354*%
%ADD36R,0.0354X0.0276*%
%ADD37R,0.0433X0.0394*%
%ADD38R,0.0531X0.0157*%
%ADD39R,0.0531X0.0236*%
%ADD40R,0.0415X0.0118*%
%ADD41R,0.0118X0.0415*%
%ADD42R,0.0600X0.0600*%
%ADD43R,0.0748X0.0354*%
%ADD44R,0.0748X0.1260*%
%ADD45R,0.0374X0.0374*%
%ADD46R,0.0315X0.0315*%
%ADD47R,0.0394X0.0512*%
D15*
X29200Y20405D02*
D03*
Y20995D02*
D03*
X29150Y16055D02*
D03*
Y16645D02*
D03*
X24400Y11395D02*
D03*
Y10805D02*
D03*
X28400Y22455D02*
D03*
Y23045D02*
D03*
D16*
X29100Y28006D02*
D03*
Y27494D02*
D03*
X19550Y15694D02*
D03*
Y16206D02*
D03*
X19230Y14589D02*
D03*
Y15100D02*
D03*
X19830Y15100D02*
D03*
Y14589D02*
D03*
D17*
X17100Y31900D02*
D03*
Y31400D02*
D03*
Y30900D02*
D03*
Y30400D02*
D03*
Y29900D02*
D03*
Y29400D02*
D03*
Y28900D02*
D03*
Y28400D02*
D03*
Y27900D02*
D03*
Y27400D02*
D03*
Y26900D02*
D03*
Y26400D02*
D03*
Y25900D02*
D03*
Y25400D02*
D03*
X23793D02*
D03*
Y25900D02*
D03*
Y26400D02*
D03*
Y26900D02*
D03*
Y27400D02*
D03*
Y27900D02*
D03*
Y28400D02*
D03*
Y28900D02*
D03*
Y29400D02*
D03*
Y29900D02*
D03*
Y30400D02*
D03*
Y30900D02*
D03*
Y31400D02*
D03*
Y31900D02*
D03*
D18*
X18196Y25006D02*
D03*
X18696D02*
D03*
X19196D02*
D03*
X19696D02*
D03*
X20196D02*
D03*
X20696D02*
D03*
X21196D02*
D03*
X21696D02*
D03*
X22196D02*
D03*
X22696D02*
D03*
D19*
X19330Y29670D02*
D03*
X20053D02*
D03*
X20775D02*
D03*
X19330Y28947D02*
D03*
X20053D02*
D03*
X20775D02*
D03*
X19330Y28225D02*
D03*
X20053D02*
D03*
X20775D02*
D03*
D20*
X16069Y17492D02*
D03*
X15576D02*
D03*
X15996Y13150D02*
D03*
X15504D02*
D03*
D21*
X15763Y15211D02*
D03*
Y16451D02*
D03*
X28950Y29453D02*
D03*
Y30693D02*
D03*
X28025Y29453D02*
D03*
Y30693D02*
D03*
X27100Y29453D02*
D03*
Y30693D02*
D03*
X14663Y18481D02*
D03*
Y19721D02*
D03*
X13613Y18481D02*
D03*
Y19721D02*
D03*
D22*
X29150Y18900D02*
D03*
Y18428D02*
D03*
Y14486D02*
D03*
Y14014D02*
D03*
X28650Y10914D02*
D03*
Y11386D02*
D03*
X26250Y22936D02*
D03*
Y22464D02*
D03*
X19567Y23317D02*
D03*
Y22845D02*
D03*
X20517Y23311D02*
D03*
Y22839D02*
D03*
X18455Y12916D02*
D03*
Y13388D02*
D03*
X17605Y12916D02*
D03*
Y13388D02*
D03*
D23*
X27450Y22450D02*
D03*
X25450D02*
D03*
X25500Y11100D02*
D03*
X27500D02*
D03*
D24*
X26450Y18611D02*
D03*
X26500Y14939D02*
D03*
D25*
X15906Y31550D02*
D03*
X15394D02*
D03*
X19756Y19750D02*
D03*
X19244D02*
D03*
X19188Y17050D02*
D03*
X19700D02*
D03*
X19244Y18950D02*
D03*
X19756D02*
D03*
X19765Y21450D02*
D03*
X19254D02*
D03*
D26*
X15717Y23630D02*
D03*
Y22370D02*
D03*
X17883Y23630D02*
D03*
Y22370D02*
D03*
D27*
X22700Y17841D02*
D03*
X21200D02*
D03*
D28*
X22700Y21459D02*
D03*
X21200D02*
D03*
D29*
X21417Y22829D02*
D03*
Y23321D02*
D03*
X22317Y22829D02*
D03*
Y23321D02*
D03*
X19205Y13398D02*
D03*
Y12906D02*
D03*
D30*
X23317Y22780D02*
D03*
Y23370D02*
D03*
D31*
X23100Y15600D02*
D03*
X23090Y12694D02*
D03*
D32*
X20580Y14694D02*
D03*
Y15600D02*
D03*
Y16506D02*
D03*
X20570Y11789D02*
D03*
Y12694D02*
D03*
Y13600D02*
D03*
D33*
X19264Y17950D02*
D03*
X19736D02*
D03*
X19259Y20650D02*
D03*
X19732D02*
D03*
D34*
X15394Y30650D02*
D03*
X15906D02*
D03*
D35*
X16041Y14534D02*
D03*
X15450D02*
D03*
D36*
X16805Y12880D02*
D03*
Y13470D02*
D03*
D37*
X26100Y29950D02*
D03*
Y30501D02*
D03*
X25250Y29950D02*
D03*
Y30501D02*
D03*
D38*
X28252Y27196D02*
D03*
Y27452D02*
D03*
Y27707D02*
D03*
Y26940D02*
D03*
Y26684D02*
D03*
X25948D02*
D03*
Y26940D02*
D03*
Y27707D02*
D03*
Y27452D02*
D03*
Y27196D02*
D03*
Y26428D02*
D03*
Y26172D02*
D03*
Y25916D02*
D03*
Y25660D02*
D03*
Y24893D02*
D03*
Y25148D02*
D03*
Y25404D02*
D03*
X28252D02*
D03*
Y25148D02*
D03*
Y24893D02*
D03*
Y25660D02*
D03*
Y25916D02*
D03*
Y26172D02*
D03*
Y26428D02*
D03*
D39*
X25948Y28003D02*
D03*
Y24597D02*
D03*
X28252D02*
D03*
Y28003D02*
D03*
D40*
X18561Y16019D02*
D03*
X16946D02*
D03*
Y15822D02*
D03*
Y15625D02*
D03*
Y15428D02*
D03*
Y15231D02*
D03*
Y15034D02*
D03*
X18561D02*
D03*
Y15231D02*
D03*
Y15428D02*
D03*
Y15625D02*
D03*
Y15822D02*
D03*
D41*
X17261Y14719D02*
D03*
X17458D02*
D03*
X17655D02*
D03*
X17852D02*
D03*
X18049D02*
D03*
X18246D02*
D03*
X18049Y16334D02*
D03*
X17852D02*
D03*
X17655D02*
D03*
X17458D02*
D03*
X17261D02*
D03*
X18246D02*
D03*
D42*
X17753Y15526D02*
D03*
D43*
X15843Y20135D02*
D03*
Y19230D02*
D03*
Y18324D02*
D03*
D44*
X18166Y19230D02*
D03*
D45*
X16596Y21500D02*
D03*
X16104D02*
D03*
X15996Y24550D02*
D03*
X15504D02*
D03*
D46*
X15355Y32450D02*
D03*
X15945D02*
D03*
D47*
X16041Y13884D02*
D03*
X15450D02*
D03*
M02*
