G04*
G04 #@! TF.GenerationSoftware,Altium Limited,Altium Designer,20.1.14 (287)*
G04*
G04 Layer_Color=128*
%FSLAX24Y24*%
%MOIN*%
G70*
G04*
G04 #@! TF.SameCoordinates,D1A17965-E816-498F-87AB-38A2C5CE3A16*
G04*
G04*
G04 #@! TF.FilePolarity,Positive*
G04*
G01*
G75*
%ADD104C,0.0020*%
D104*
X29873Y34900D02*
X30227D01*
X30050Y34723D02*
Y35077D01*
X28873Y34900D02*
X29227D01*
X29050Y34723D02*
Y35077D01*
X27873Y34900D02*
X28227D01*
X28050Y34723D02*
Y35077D01*
X26873Y34900D02*
X27227D01*
X27050Y34723D02*
Y35077D01*
X25873Y34900D02*
X26227D01*
X26050Y34723D02*
Y35077D01*
X24873Y34900D02*
X25227D01*
X25050Y34723D02*
Y35077D01*
X32281Y33504D02*
X32635D01*
X32458Y33326D02*
Y33681D01*
X32281Y32504D02*
X32635D01*
X32458Y32326D02*
Y32681D01*
X32281Y31504D02*
X32635D01*
X32458Y31326D02*
Y31681D01*
X32281Y30504D02*
X32635D01*
X32458Y30326D02*
Y30681D01*
X32281Y29504D02*
X32635D01*
X32458Y29326D02*
Y29681D01*
X32281Y28504D02*
X32635D01*
X32458Y28326D02*
Y28681D01*
X32281Y27504D02*
X32635D01*
X32458Y27326D02*
Y27681D01*
X32281Y26504D02*
X32635D01*
X32458Y26326D02*
Y26681D01*
X32281Y25504D02*
X32635D01*
X32458Y25326D02*
Y25681D01*
X32281Y24504D02*
X32635D01*
X32458Y24326D02*
Y24681D01*
X32281Y23504D02*
X32635D01*
X32458Y23326D02*
Y23681D01*
X32281Y22504D02*
X32635D01*
X32458Y22326D02*
Y22681D01*
X32281Y21504D02*
X32635D01*
X32458Y21326D02*
Y21681D01*
X32281Y20504D02*
X32635D01*
X32458Y20326D02*
Y20681D01*
X32281Y19504D02*
X32635D01*
X32458Y19326D02*
Y19681D01*
X32281Y18504D02*
X32635D01*
X32458Y18326D02*
Y18681D01*
X31281Y33504D02*
X31635D01*
X31458Y33326D02*
Y33681D01*
X31281Y32504D02*
X31635D01*
X31458Y32326D02*
Y32681D01*
X31281Y31504D02*
X31635D01*
X31458Y31326D02*
Y31681D01*
X31281Y30504D02*
X31635D01*
X31458Y30326D02*
Y30681D01*
X31281Y29504D02*
X31635D01*
X31458Y29326D02*
Y29681D01*
X31281Y28504D02*
X31635D01*
X31458Y28326D02*
Y28681D01*
X31281Y27504D02*
X31635D01*
X31458Y27326D02*
Y27681D01*
X31281Y26504D02*
X31635D01*
X31458Y26326D02*
Y26681D01*
X31281Y25504D02*
X31635D01*
X31458Y25326D02*
Y25681D01*
X31281Y24504D02*
X31635D01*
X31458Y24326D02*
Y24681D01*
X31281Y23504D02*
X31635D01*
X31458Y23326D02*
Y23681D01*
X31281Y22504D02*
X31635D01*
X31458Y22326D02*
Y22681D01*
X31281Y21504D02*
X31635D01*
X31458Y21326D02*
Y21681D01*
X31281Y20504D02*
X31635D01*
X31458Y20326D02*
Y20681D01*
X31281Y19504D02*
X31635D01*
X31458Y19326D02*
Y19681D01*
X31281Y18504D02*
X31635D01*
X31458Y18326D02*
Y18681D01*
X30281Y33504D02*
X30635D01*
X30458Y33326D02*
Y33681D01*
X30281Y32504D02*
X30635D01*
X30458Y32326D02*
Y32681D01*
X30281Y31504D02*
X30635D01*
X30458Y31326D02*
Y31681D01*
X30281Y30504D02*
X30635D01*
X30458Y30326D02*
Y30681D01*
X30281Y29504D02*
X30635D01*
X30458Y29326D02*
Y29681D01*
X30281Y28504D02*
X30635D01*
X30458Y28326D02*
Y28681D01*
X30281Y27504D02*
X30635D01*
X30458Y27326D02*
Y27681D01*
X30281Y26504D02*
X30635D01*
X30458Y26326D02*
Y26681D01*
X30281Y25504D02*
X30635D01*
X30458Y25326D02*
Y25681D01*
X30281Y24504D02*
X30635D01*
X30458Y24326D02*
Y24681D01*
X30281Y23504D02*
X30635D01*
X30458Y23326D02*
Y23681D01*
X30281Y22504D02*
X30635D01*
X30458Y22326D02*
Y22681D01*
X30281Y21504D02*
X30635D01*
X30458Y21326D02*
Y21681D01*
X30281Y20504D02*
X30635D01*
X30458Y20326D02*
Y20681D01*
X30281Y19504D02*
X30635D01*
X30458Y19326D02*
Y19681D01*
X30281Y18504D02*
X30635D01*
X30458Y18326D02*
Y18681D01*
X31183Y16384D02*
X31617D01*
X31400Y16168D02*
Y16601D01*
X31183Y14416D02*
X31617D01*
X31400Y14199D02*
Y14632D01*
X25473Y33550D02*
X25827D01*
X25650Y33373D02*
Y33727D01*
X26473Y33550D02*
X26827D01*
X26650Y33373D02*
Y33727D01*
X27473Y33550D02*
X27827D01*
X27650Y33373D02*
Y33727D01*
X28473Y33550D02*
X28827D01*
X28650Y33373D02*
Y33727D01*
X14173Y21650D02*
X14527D01*
X14350Y21473D02*
Y21827D01*
X13173Y21650D02*
X13527D01*
X13350Y21473D02*
Y21827D01*
X14173Y22650D02*
X14527D01*
X14350Y22473D02*
Y22827D01*
X13173Y22650D02*
X13527D01*
X13350Y22473D02*
Y22827D01*
X14173Y23650D02*
X14527D01*
X14350Y23473D02*
Y23827D01*
X13173Y23650D02*
X13527D01*
X13350Y23473D02*
Y23827D01*
X14173Y24650D02*
X14527D01*
X14350Y24473D02*
Y24827D01*
X13173Y24650D02*
X13527D01*
X13350Y24473D02*
Y24827D01*
X14173Y25650D02*
X14527D01*
X14350Y25473D02*
Y25827D01*
X13173Y25650D02*
X13527D01*
X13350Y25473D02*
Y25827D01*
X14173Y26650D02*
X14527D01*
X14350Y26473D02*
Y26827D01*
X13173Y26650D02*
X13527D01*
X13350Y26473D02*
Y26827D01*
X14173Y27650D02*
X14527D01*
X14350Y27473D02*
Y27827D01*
X13173Y27650D02*
X13527D01*
X13350Y27473D02*
Y27827D01*
X14173Y28650D02*
X14527D01*
X14350Y28473D02*
Y28827D01*
X13173Y28650D02*
X13527D01*
X13350Y28473D02*
Y28827D01*
X14173Y29650D02*
X14527D01*
X14350Y29473D02*
Y29827D01*
X13173Y29650D02*
X13527D01*
X13350Y29473D02*
Y29827D01*
X14173Y30650D02*
X14527D01*
X14350Y30473D02*
Y30827D01*
X13173Y30650D02*
X13527D01*
X13350Y30473D02*
Y30827D01*
X14173Y31650D02*
X14527D01*
X14350Y31473D02*
Y31827D01*
X13173Y31650D02*
X13527D01*
X13350Y31473D02*
Y31827D01*
X14173Y32650D02*
X14527D01*
X14350Y32473D02*
Y32827D01*
X13173Y32650D02*
X13527D01*
X13350Y32473D02*
Y32827D01*
X14173Y33650D02*
X14527D01*
X14350Y33473D02*
Y33827D01*
X13173Y33650D02*
X13527D01*
X13350Y33473D02*
Y33827D01*
X18623Y11550D02*
X18977D01*
X18800Y11373D02*
Y11727D01*
X17623Y11550D02*
X17977D01*
X17800Y11373D02*
Y11727D01*
X16623Y11550D02*
X16977D01*
X16800Y11373D02*
Y11727D01*
X15623Y11550D02*
X15977D01*
X15800Y11373D02*
Y11727D01*
X28473Y32300D02*
X28827D01*
X28650Y32123D02*
Y32477D01*
X27473Y32300D02*
X27827D01*
X27650Y32123D02*
Y32477D01*
X26473Y32300D02*
X26827D01*
X26650Y32123D02*
Y32477D01*
X25473Y32300D02*
X25827D01*
X25650Y32123D02*
Y32477D01*
X31400Y11300D02*
X32400D01*
X31900Y10800D02*
Y11800D01*
X31400Y35300D02*
X32400D01*
X31900Y34800D02*
Y35800D01*
X13150Y35300D02*
X14150D01*
X13650Y34800D02*
Y35800D01*
X13150Y11300D02*
X14150D01*
X13650Y10800D02*
Y11800D01*
X17890Y30900D02*
X18010D01*
X17950Y30840D02*
Y30960D01*
X16240Y25400D02*
X16360D01*
X16300Y25340D02*
Y25460D01*
X15890Y25950D02*
X16010D01*
X15950Y25890D02*
Y26010D01*
X24590Y31300D02*
X24710D01*
X24650Y31240D02*
Y31360D01*
X24544Y25857D02*
X24664D01*
X24604Y25797D02*
Y25917D01*
X18640Y24250D02*
X18760D01*
X18700Y24190D02*
Y24310D01*
X20640Y24250D02*
X20760D01*
X20700Y24190D02*
Y24310D01*
X22940Y26400D02*
X23060D01*
X23000Y26340D02*
Y26460D01*
X19890Y24386D02*
X20010D01*
X19950Y24326D02*
Y24446D01*
X23840Y25216D02*
X23960D01*
X23900Y25156D02*
Y25276D01*
X18567Y23773D02*
X18687D01*
X18627Y23713D02*
Y23833D01*
X15869Y26898D02*
X15989D01*
X15929Y26838D02*
Y26958D01*
X17849Y31398D02*
X17969D01*
X17909Y31338D02*
Y31458D01*
X24385Y30317D02*
X24505D01*
X24445Y30257D02*
Y30377D01*
X25290Y26100D02*
X25410D01*
X25350Y26040D02*
Y26160D01*
X17640Y24200D02*
X17760D01*
X17700Y24140D02*
Y24260D01*
X17840Y27350D02*
X17960D01*
X17900Y27290D02*
Y27410D01*
X22937Y29703D02*
X23057D01*
X22997Y29643D02*
Y29763D01*
X16240Y27400D02*
X16360D01*
X16300Y27340D02*
Y27460D01*
X22940Y26900D02*
X23060D01*
X23000Y26840D02*
Y26960D01*
X16190Y26400D02*
X16310D01*
X16250Y26340D02*
Y26460D01*
X20640Y30650D02*
X20760D01*
X20700Y30590D02*
Y30710D01*
X25865Y29500D02*
X25985D01*
X25925Y29440D02*
Y29560D01*
X25446Y29644D02*
X25566D01*
X25506Y29584D02*
Y29704D01*
X27080Y28965D02*
X27200D01*
X27140Y28905D02*
Y29025D01*
X27740Y27700D02*
X27860D01*
X27800Y27640D02*
Y27760D01*
X17719Y17321D02*
X17839D01*
X17779Y17261D02*
Y17381D01*
X17390Y16800D02*
X17510D01*
X17450Y16740D02*
Y16860D01*
X16316Y15415D02*
X16436D01*
X16376Y15355D02*
Y15475D01*
X18199Y17000D02*
X18319D01*
X18259Y16940D02*
Y17060D01*
X16303Y15061D02*
X16423D01*
X16363Y15001D02*
Y15121D01*
X18013Y17227D02*
X18133D01*
X18073Y17167D02*
Y17287D01*
X16990Y24200D02*
X17110D01*
X17050Y24140D02*
Y24260D01*
X16540Y19600D02*
X16660D01*
X16600Y19540D02*
Y19660D01*
X16840Y21900D02*
X16960D01*
X16900Y21840D02*
Y21960D01*
X15640Y17000D02*
X15760D01*
X15700Y16940D02*
Y17060D01*
X13990Y17350D02*
X14110D01*
X14050Y17290D02*
Y17410D01*
X18990Y18500D02*
X19110D01*
X19050Y18440D02*
Y18560D01*
X18090Y18300D02*
X18210D01*
X18150Y18240D02*
Y18360D01*
X24632Y32359D02*
X24752D01*
X24692Y32299D02*
Y32419D01*
X24890Y31800D02*
X25010D01*
X24950Y31740D02*
Y31860D01*
X13390Y18100D02*
X13510D01*
X13450Y18040D02*
Y18160D01*
X28242Y31152D02*
X28362D01*
X28302Y31092D02*
Y31212D01*
X16340Y13400D02*
X16460D01*
X16400Y13340D02*
Y13460D01*
X28190Y28350D02*
X28310D01*
X28250Y28290D02*
Y28410D01*
X28390Y21300D02*
X28510D01*
X28450Y21240D02*
Y21360D01*
X28790Y19350D02*
X28910D01*
X28850Y19290D02*
Y19410D01*
X29540Y16600D02*
X29660D01*
X29600Y16540D02*
Y16660D01*
X29640Y14300D02*
X29760D01*
X29700Y14240D02*
Y14360D01*
X29440Y11400D02*
X29560D01*
X29500Y11340D02*
Y11460D01*
X25040Y27600D02*
X25160D01*
X25100Y27540D02*
Y27660D01*
X27490Y26950D02*
X27610D01*
X27550Y26890D02*
Y27010D01*
X25340Y26500D02*
X25460D01*
X25400Y26440D02*
Y26560D01*
X26790Y25700D02*
X26910D01*
X26850Y25640D02*
Y25760D01*
X25414Y27999D02*
X25534D01*
X25474Y27939D02*
Y28059D01*
X26439Y27301D02*
X26559D01*
X26499Y27241D02*
Y27361D01*
X23840Y23900D02*
X23960D01*
X23900Y23840D02*
Y23960D01*
X21790Y23097D02*
X21910D01*
X21850Y23037D02*
Y23157D01*
X19040Y22550D02*
X19160D01*
X19100Y22490D02*
Y22610D01*
X20740Y20400D02*
X20860D01*
X20800Y20340D02*
Y20460D01*
X24050Y23700D02*
X24170D01*
X24110Y23640D02*
Y23760D01*
X20140Y17900D02*
X20260D01*
X20200Y17840D02*
Y17960D01*
X16481Y18324D02*
X16601D01*
X16541Y18264D02*
Y18384D01*
X14953Y15689D02*
X15073D01*
X15013Y15629D02*
Y15749D01*
X17290Y13850D02*
X17410D01*
X17350Y13790D02*
Y13910D01*
X21043Y14698D02*
X21163D01*
X21103Y14638D02*
Y14758D01*
X18594Y14371D02*
X18714D01*
X18654Y14311D02*
Y14431D01*
X20440Y16050D02*
X20560D01*
X20500Y15990D02*
Y16110D01*
X21340Y12750D02*
X21460D01*
X21400Y12690D02*
Y12810D01*
X18340Y13850D02*
X18460D01*
X18400Y13790D02*
Y13910D01*
X15070Y16088D02*
X15190D01*
X15130Y16028D02*
Y16148D01*
M02*
