G04*
G04 #@! TF.GenerationSoftware,Altium Limited,Altium Designer,20.1.14 (287)*
G04*
G04 Layer_Color=255*
%FSLAX24Y24*%
%MOIN*%
G70*
G04*
G04 #@! TF.SameCoordinates,D1A17965-E816-498F-87AB-38A2C5CE3A16*
G04*
G04*
G04 #@! TF.FilePolarity,Positive*
G04*
G01*
G75*
%ADD92C,0.0591*%
%ADD93R,0.0591X0.0591*%
%ADD94R,0.0591X0.0591*%
%ADD95C,0.0630*%
%ADD96R,0.0630X0.0630*%
%ADD97C,0.2200*%
%ADD99R,0.1378X0.0374*%
%ADD100R,0.3543X0.4075*%
D92*
X30050Y34900D02*
D03*
X29050D02*
D03*
X28050D02*
D03*
X27050D02*
D03*
X26050D02*
D03*
X32458Y33504D02*
D03*
Y32504D02*
D03*
Y31504D02*
D03*
Y30504D02*
D03*
Y29504D02*
D03*
Y28504D02*
D03*
Y27504D02*
D03*
Y26504D02*
D03*
Y25504D02*
D03*
Y24504D02*
D03*
Y23504D02*
D03*
Y22504D02*
D03*
Y21504D02*
D03*
Y20504D02*
D03*
Y19504D02*
D03*
X31458Y33504D02*
D03*
Y32504D02*
D03*
Y31504D02*
D03*
Y30504D02*
D03*
Y29504D02*
D03*
Y28504D02*
D03*
Y27504D02*
D03*
Y26504D02*
D03*
Y25504D02*
D03*
Y24504D02*
D03*
Y23504D02*
D03*
Y22504D02*
D03*
Y21504D02*
D03*
Y20504D02*
D03*
Y19504D02*
D03*
X30458Y33504D02*
D03*
Y32504D02*
D03*
Y31504D02*
D03*
Y30504D02*
D03*
Y29504D02*
D03*
Y28504D02*
D03*
Y27504D02*
D03*
Y26504D02*
D03*
Y25504D02*
D03*
Y24504D02*
D03*
Y23504D02*
D03*
Y22504D02*
D03*
Y21504D02*
D03*
Y20504D02*
D03*
Y19504D02*
D03*
X26650Y33550D02*
D03*
X27650D02*
D03*
X28650D02*
D03*
X13350Y21650D02*
D03*
X14350Y22650D02*
D03*
X13350D02*
D03*
X14350Y23650D02*
D03*
X13350D02*
D03*
X14350Y24650D02*
D03*
X13350D02*
D03*
X14350Y25650D02*
D03*
X13350D02*
D03*
X14350Y26650D02*
D03*
X13350D02*
D03*
X14350Y27650D02*
D03*
X13350D02*
D03*
X14350Y28650D02*
D03*
X13350D02*
D03*
X14350Y29650D02*
D03*
X13350D02*
D03*
X14350Y30650D02*
D03*
X13350D02*
D03*
X14350Y31650D02*
D03*
X13350D02*
D03*
X14350Y32650D02*
D03*
X13350D02*
D03*
X14350Y33650D02*
D03*
X13350D02*
D03*
X18800Y11550D02*
D03*
X17800D02*
D03*
X16800D02*
D03*
X28650Y32300D02*
D03*
X27650D02*
D03*
X26650D02*
D03*
D93*
X25050Y34900D02*
D03*
X25650Y33550D02*
D03*
X15800Y11550D02*
D03*
X25650Y32300D02*
D03*
D94*
X32458Y18504D02*
D03*
X31458D02*
D03*
X30458D02*
D03*
X14350Y21650D02*
D03*
D95*
X31400Y16384D02*
D03*
D96*
Y14416D02*
D03*
D97*
X31900Y11300D02*
D03*
Y35300D02*
D03*
X13650D02*
D03*
Y11300D02*
D03*
D99*
X28339Y16000D02*
D03*
Y14000D02*
D03*
X28439Y20450D02*
D03*
Y18450D02*
D03*
D100*
X24500Y15000D02*
D03*
X24600Y19450D02*
D03*
M02*
