G04*
G04 #@! TF.GenerationSoftware,Altium Limited,Altium Designer,20.1.14 (287)*
G04*
G04 Layer_Color=32896*
%FSLAX24Y24*%
%MOIN*%
G70*
G04*
G04 #@! TF.SameCoordinates,D1A17965-E816-498F-87AB-38A2C5CE3A16*
G04*
G04*
G04 #@! TF.FilePolarity,Positive*
G04*
G01*
G75*
%ADD10C,0.0098*%
%ADD11C,0.0079*%
%ADD12C,0.0060*%
%ADD13C,0.0050*%
%ADD88C,0.0080*%
G36*
X19970Y29740D02*
Y29660D01*
X19890D01*
Y29580D01*
X19810D01*
Y29500D01*
X19730D01*
Y29580D01*
Y29660D01*
X19810D01*
Y29740D01*
X19890D01*
Y29820D01*
X19970D01*
Y29740D01*
D02*
G37*
G36*
X19730Y29420D02*
Y29340D01*
X19650D01*
Y29420D01*
Y29500D01*
X19730D01*
Y29420D01*
D02*
G37*
G36*
X19570Y29180D02*
Y29100D01*
X19490D01*
Y29180D01*
Y29260D01*
X19570D01*
Y29180D01*
D02*
G37*
G36*
X19490Y29020D02*
Y28940D01*
X19410D01*
Y29020D01*
Y29100D01*
X19490D01*
Y29020D01*
D02*
G37*
G36*
X19410Y28860D02*
Y28780D01*
X19330D01*
Y28860D01*
Y28940D01*
X19410D01*
Y28860D01*
D02*
G37*
G36*
X19330Y28700D02*
Y28620D01*
X19250D01*
Y28700D01*
Y28780D01*
X19330D01*
Y28700D01*
D02*
G37*
G36*
X22930Y27660D02*
X23010D01*
Y27580D01*
X22930D01*
Y27660D01*
X22850D01*
Y27740D01*
X22930D01*
Y27660D01*
D02*
G37*
G36*
X23090Y27420D02*
X23170D01*
Y27340D01*
X23090D01*
Y27420D01*
X23010D01*
Y27500D01*
X23090D01*
Y27420D01*
D02*
G37*
G36*
X24210Y30380D02*
X24450D01*
Y30300D01*
X24530D01*
Y30220D01*
X24690D01*
Y30140D01*
X24770D01*
Y30060D01*
X24850D01*
Y29980D01*
Y29900D01*
X24930D01*
Y29820D01*
X25010D01*
Y29740D01*
Y29660D01*
Y29580D01*
X25090D01*
Y29500D01*
Y29420D01*
Y29340D01*
X25170D01*
Y29260D01*
Y29180D01*
Y29100D01*
Y29020D01*
Y28940D01*
Y28860D01*
Y28780D01*
Y28700D01*
Y28620D01*
Y28540D01*
Y28460D01*
Y28380D01*
X25090D01*
Y28300D01*
Y28220D01*
Y28140D01*
X25010D01*
Y28060D01*
Y27980D01*
Y27900D01*
X24930D01*
Y27820D01*
Y27740D01*
X24850D01*
Y27660D01*
X24770D01*
Y27580D01*
Y27500D01*
X24690D01*
Y27420D01*
X24610D01*
Y27340D01*
X24530D01*
Y27260D01*
X24450D01*
Y27180D01*
X24370D01*
Y27100D01*
X24290D01*
Y27020D01*
X24210D01*
Y26940D01*
X24130D01*
Y26860D01*
X24050D01*
Y26940D01*
Y27020D01*
X24130D01*
Y27100D01*
X24210D01*
Y27180D01*
X24290D01*
Y27260D01*
Y27340D01*
X24370D01*
Y27420D01*
X24450D01*
Y27500D01*
Y27580D01*
X24530D01*
Y27660D01*
X24610D01*
Y27740D01*
Y27820D01*
X24690D01*
Y27900D01*
Y27980D01*
Y28060D01*
X24770D01*
Y28140D01*
Y28220D01*
Y28300D01*
X24850D01*
Y28380D01*
Y28460D01*
Y28540D01*
Y28620D01*
Y28700D01*
Y28780D01*
Y28860D01*
Y28940D01*
Y29020D01*
Y29100D01*
Y29180D01*
Y29260D01*
X24770D01*
Y29340D01*
Y29420D01*
Y29500D01*
Y29580D01*
X24690D01*
Y29660D01*
Y29740D01*
X24610D01*
Y29820D01*
X24530D01*
Y29900D01*
Y29980D01*
X24370D01*
Y30060D01*
X24290D01*
Y30140D01*
X24130D01*
Y30220D01*
X23410D01*
Y30140D01*
X23250D01*
Y30060D01*
X23090D01*
Y29980D01*
X23010D01*
Y29900D01*
Y29820D01*
X22930D01*
Y29740D01*
X22850D01*
Y29660D01*
Y29580D01*
X22770D01*
Y29500D01*
Y29420D01*
X22690D01*
Y29340D01*
Y29260D01*
Y29180D01*
Y29100D01*
Y29020D01*
Y28940D01*
X22610D01*
Y28860D01*
Y28780D01*
Y28700D01*
Y28620D01*
Y28540D01*
X22690D01*
Y28460D01*
Y28380D01*
Y28300D01*
Y28220D01*
Y28140D01*
X22770D01*
Y28060D01*
Y27980D01*
X22690D01*
Y28060D01*
Y28140D01*
X22610D01*
Y28220D01*
Y28300D01*
Y28380D01*
Y28460D01*
X22530D01*
Y28540D01*
Y28620D01*
Y28700D01*
Y28780D01*
Y28860D01*
Y28940D01*
Y29020D01*
Y29100D01*
Y29180D01*
Y29260D01*
Y29340D01*
X22610D01*
Y29420D01*
Y29500D01*
Y29580D01*
Y29660D01*
X22690D01*
Y29740D01*
Y29820D01*
X22770D01*
Y29900D01*
Y29980D01*
X22850D01*
Y30060D01*
X22930D01*
Y30140D01*
X23010D01*
Y30220D01*
X23090D01*
Y30300D01*
X23250D01*
Y30380D01*
X23490D01*
Y30460D01*
X24210D01*
Y30380D01*
D02*
G37*
G36*
X23970Y26460D02*
X24050D01*
Y26380D01*
X24130D01*
Y26300D01*
X24210D01*
Y26220D01*
X24290D01*
Y26140D01*
X24450D01*
Y26060D01*
X23890D01*
Y25980D01*
Y25900D01*
Y25820D01*
Y25740D01*
Y25660D01*
Y25580D01*
Y25500D01*
Y25420D01*
Y25340D01*
Y25260D01*
Y25180D01*
Y25100D01*
Y25020D01*
Y24940D01*
Y24860D01*
Y24780D01*
Y24700D01*
Y24620D01*
Y24540D01*
Y24460D01*
Y24380D01*
Y24300D01*
Y24220D01*
Y24140D01*
Y24060D01*
Y23980D01*
Y23900D01*
Y23820D01*
Y23740D01*
Y23660D01*
X23810D01*
Y23740D01*
X23730D01*
Y23820D01*
Y23900D01*
Y23980D01*
Y24060D01*
Y24140D01*
Y24220D01*
Y24300D01*
Y24380D01*
Y24460D01*
Y24540D01*
Y24620D01*
Y24700D01*
Y24780D01*
Y24860D01*
Y24940D01*
Y25020D01*
Y25100D01*
Y25180D01*
Y25260D01*
Y25340D01*
Y25420D01*
Y25500D01*
Y25580D01*
Y25660D01*
Y25740D01*
Y25820D01*
Y25900D01*
Y25980D01*
Y26060D01*
X23490D01*
Y25980D01*
X23170D01*
Y26060D01*
X23250D01*
Y26140D01*
X23330D01*
Y26220D01*
X23410D01*
Y26300D01*
X23490D01*
Y26220D01*
Y26140D01*
X23570D01*
Y26220D01*
X24050D01*
Y26300D01*
X23970D01*
Y26380D01*
Y26460D01*
X23890D01*
Y26540D01*
X23970D01*
Y26460D01*
D02*
G37*
G36*
X24530Y31660D02*
X24930D01*
Y31580D01*
X25250D01*
Y31500D01*
X25490D01*
Y31420D01*
X25650D01*
Y31340D01*
X25890D01*
Y31260D01*
X26050D01*
Y31180D01*
X26210D01*
Y31100D01*
X26290D01*
Y31020D01*
X26450D01*
Y30940D01*
X26530D01*
Y30860D01*
X26690D01*
Y30780D01*
X26770D01*
Y30700D01*
X26930D01*
Y30620D01*
X27010D01*
Y30540D01*
X27090D01*
Y30460D01*
X27170D01*
Y30380D01*
X27250D01*
Y30300D01*
X27330D01*
Y30220D01*
X27410D01*
Y30140D01*
X27490D01*
Y30060D01*
X27570D01*
Y29980D01*
X27650D01*
Y29900D01*
Y29820D01*
X27730D01*
Y29740D01*
X27810D01*
Y29660D01*
Y29580D01*
X27890D01*
Y29500D01*
X27970D01*
Y29420D01*
Y29340D01*
X28050D01*
Y29260D01*
X28130D01*
Y29180D01*
Y29100D01*
X28210D01*
Y29020D01*
Y28940D01*
X28290D01*
Y28860D01*
Y28780D01*
Y28700D01*
X28370D01*
Y28620D01*
Y28540D01*
X28450D01*
Y28460D01*
Y28380D01*
Y28300D01*
X28530D01*
Y28220D01*
Y28140D01*
Y28060D01*
Y27980D01*
X28610D01*
Y27900D01*
Y27820D01*
Y27740D01*
Y27660D01*
Y27580D01*
X28690D01*
Y27500D01*
Y27420D01*
Y27340D01*
Y27260D01*
Y27180D01*
Y27100D01*
Y27020D01*
Y26940D01*
Y26860D01*
Y26780D01*
Y26700D01*
Y26620D01*
Y26540D01*
Y26460D01*
Y26380D01*
Y26300D01*
Y26220D01*
Y26140D01*
Y26060D01*
Y25980D01*
X28610D01*
Y25900D01*
Y25820D01*
Y25740D01*
Y25660D01*
X28530D01*
Y25580D01*
Y25500D01*
Y25420D01*
Y25340D01*
X28450D01*
Y25260D01*
Y25180D01*
Y25100D01*
X28370D01*
Y25020D01*
Y24940D01*
X28290D01*
Y24860D01*
Y24780D01*
Y24700D01*
X28210D01*
Y24620D01*
Y24540D01*
X28130D01*
Y24460D01*
Y24380D01*
X28050D01*
Y24300D01*
X27970D01*
Y24220D01*
Y24140D01*
X27890D01*
Y24060D01*
Y23980D01*
X27810D01*
Y23900D01*
X27730D01*
Y23820D01*
X27650D01*
Y23740D01*
Y23660D01*
X27570D01*
Y23580D01*
X27490D01*
Y23500D01*
X27410D01*
Y23420D01*
X27330D01*
Y23340D01*
X27250D01*
Y23260D01*
X27170D01*
Y23180D01*
X27090D01*
Y23100D01*
X27010D01*
Y23020D01*
X26930D01*
Y22940D01*
X26770D01*
Y22860D01*
X26690D01*
Y22780D01*
X26610D01*
Y22700D01*
X26450D01*
Y22620D01*
X26290D01*
Y22540D01*
X26210D01*
Y22460D01*
X26050D01*
Y22380D01*
X25890D01*
Y22300D01*
X25650D01*
Y22220D01*
X25490D01*
Y22140D01*
X25250D01*
Y22060D01*
X24930D01*
Y21980D01*
X24530D01*
Y21900D01*
X23010D01*
Y21980D01*
X22610D01*
Y22060D01*
X22370D01*
Y22140D01*
X22130D01*
Y22220D01*
X21890D01*
Y22300D01*
X21730D01*
Y22380D01*
X21570D01*
Y22460D01*
X21410D01*
Y22540D01*
X21250D01*
Y22620D01*
X21170D01*
Y22700D01*
X21010D01*
Y22780D01*
X20930D01*
Y22860D01*
X20770D01*
Y22940D01*
X20690D01*
Y23020D01*
X20610D01*
Y23100D01*
X20530D01*
Y23180D01*
X20450D01*
Y23260D01*
X20370D01*
Y23340D01*
X20290D01*
Y23420D01*
X20210D01*
Y23500D01*
X20130D01*
Y23580D01*
X20050D01*
Y23660D01*
X19970D01*
Y23740D01*
X19890D01*
Y23820D01*
X19970D01*
Y23740D01*
X20050D01*
Y23660D01*
X20130D01*
Y23580D01*
X20210D01*
Y23500D01*
X20290D01*
Y23420D01*
X20370D01*
Y23340D01*
X20450D01*
Y23260D01*
X20530D01*
Y23180D01*
X20610D01*
Y23100D01*
X20690D01*
Y23020D01*
X20770D01*
Y22940D01*
X20930D01*
Y22860D01*
X21010D01*
Y22780D01*
X21170D01*
Y22700D01*
X21250D01*
Y22620D01*
X21410D01*
Y22540D01*
X21570D01*
Y22460D01*
X21730D01*
Y22380D01*
X21970D01*
Y22300D01*
X22210D01*
Y22220D01*
X22450D01*
Y22140D01*
X22770D01*
Y22060D01*
X23490D01*
Y21980D01*
X23970D01*
Y22060D01*
X24610D01*
Y22140D01*
X25010D01*
Y22220D01*
X25250D01*
Y22300D01*
X25490D01*
Y22380D01*
X25650D01*
Y22460D01*
X25810D01*
Y22540D01*
X25970D01*
Y22620D01*
X26130D01*
Y22700D01*
X26290D01*
Y22780D01*
X26370D01*
Y22860D01*
X26530D01*
Y22940D01*
X26610D01*
Y23020D01*
X26690D01*
Y23100D01*
X26850D01*
Y23180D01*
X26930D01*
Y23260D01*
X27010D01*
Y23340D01*
X27090D01*
Y23420D01*
X27170D01*
Y23500D01*
X27250D01*
Y23580D01*
X27330D01*
Y23660D01*
X27410D01*
Y23740D01*
Y23820D01*
X27490D01*
Y23900D01*
X27570D01*
Y23980D01*
X27650D01*
Y24060D01*
Y24140D01*
X27730D01*
Y24220D01*
X27810D01*
Y24300D01*
Y24380D01*
X27890D01*
Y24460D01*
X27970D01*
Y24540D01*
Y24620D01*
X28050D01*
Y24700D01*
Y24780D01*
X28130D01*
Y24860D01*
Y24940D01*
Y25020D01*
X28210D01*
Y25100D01*
Y25180D01*
X28290D01*
Y25260D01*
Y25340D01*
Y25420D01*
X28370D01*
Y25500D01*
Y25580D01*
Y25660D01*
Y25740D01*
X28450D01*
Y25820D01*
Y25900D01*
Y25980D01*
Y26060D01*
Y26140D01*
Y26220D01*
X28530D01*
Y26300D01*
Y26380D01*
Y26460D01*
Y26540D01*
Y26620D01*
Y26700D01*
Y26780D01*
Y26860D01*
Y26940D01*
Y27020D01*
Y27100D01*
Y27180D01*
Y27260D01*
X28450D01*
Y27340D01*
Y27420D01*
Y27500D01*
Y27580D01*
Y27660D01*
Y27740D01*
X28370D01*
Y27820D01*
Y27900D01*
Y27980D01*
Y28060D01*
X28290D01*
Y28140D01*
Y28220D01*
Y28300D01*
X28210D01*
Y28380D01*
Y28460D01*
Y28540D01*
X28130D01*
Y28620D01*
Y28700D01*
X28050D01*
Y28780D01*
Y28860D01*
X27970D01*
Y28940D01*
Y29020D01*
X27890D01*
Y29100D01*
Y29180D01*
X27810D01*
Y29260D01*
X27730D01*
Y29340D01*
Y29420D01*
X27650D01*
Y29500D01*
X27570D01*
Y29580D01*
Y29660D01*
X27490D01*
Y29740D01*
X27410D01*
Y29820D01*
X27330D01*
Y29900D01*
X27250D01*
Y29980D01*
X27170D01*
Y30060D01*
X27090D01*
Y30140D01*
X27010D01*
Y30220D01*
X26930D01*
Y30300D01*
X26850D01*
Y30380D01*
X26770D01*
Y30460D01*
X26610D01*
Y30540D01*
X26530D01*
Y30620D01*
X26450D01*
Y30700D01*
X26290D01*
Y30780D01*
X26130D01*
Y30860D01*
X26050D01*
Y30940D01*
X25890D01*
Y31020D01*
X25730D01*
Y31100D01*
X25490D01*
Y31180D01*
X25330D01*
Y31260D01*
X25010D01*
Y31340D01*
X24690D01*
Y31420D01*
X24210D01*
Y31500D01*
X23250D01*
Y31420D01*
X22690D01*
Y31340D01*
X22370D01*
Y31260D01*
X22130D01*
Y31180D01*
X21890D01*
Y31100D01*
X21730D01*
Y31020D01*
X21570D01*
Y30940D01*
X21410D01*
Y30860D01*
X21250D01*
Y30780D01*
X21090D01*
Y30700D01*
X21010D01*
Y30620D01*
X20850D01*
Y30540D01*
X20770D01*
Y30460D01*
X20690D01*
Y30380D01*
X20530D01*
Y30300D01*
X20450D01*
Y30220D01*
X20370D01*
Y30140D01*
X20290D01*
Y30060D01*
X20210D01*
Y29980D01*
X20130D01*
Y29900D01*
X20050D01*
Y29820D01*
X19970D01*
Y29900D01*
Y29980D01*
X20050D01*
Y30060D01*
X20130D01*
Y30140D01*
X20210D01*
Y30220D01*
X20290D01*
Y30300D01*
X20370D01*
Y30380D01*
X20450D01*
Y30460D01*
X20530D01*
Y30540D01*
X20610D01*
Y30620D01*
X20690D01*
Y30700D01*
X20850D01*
Y30780D01*
X20930D01*
Y30860D01*
X21010D01*
Y30940D01*
X21170D01*
Y31020D01*
X21250D01*
Y31100D01*
X21410D01*
Y31180D01*
X21570D01*
Y31260D01*
X21730D01*
Y31340D01*
X21890D01*
Y31420D01*
X22130D01*
Y31500D01*
X22370D01*
Y31580D01*
X22610D01*
Y31660D01*
X23010D01*
Y31740D01*
X24530D01*
Y31660D01*
D02*
G37*
D10*
X28488Y20854D02*
G03*
X28488Y20854I-49J0D01*
G01*
X28388Y16404D02*
G03*
X28388Y16404I-49J0D01*
G01*
D11*
X26429Y17047D02*
X27059D01*
X26429Y12953D02*
X27059D01*
Y17047D01*
X26529Y21497D02*
X27159D01*
X26529Y17403D02*
X27159D01*
Y21497D01*
D12*
X16840Y24710D02*
X16890Y24760D01*
X16990D01*
X17040Y24710D01*
Y24660D01*
X16990Y24610D01*
X16890D01*
X16840Y24560D01*
Y24510D01*
X16890Y24460D01*
X16990D01*
X17040Y24510D01*
X16740Y24760D02*
Y24460D01*
X16590D01*
X16540Y24510D01*
Y24710D01*
X16590Y24760D01*
X16740D01*
X16240Y24460D02*
X16440D01*
X16240Y24660D01*
Y24710D01*
X16290Y24760D01*
X16390D01*
X16440Y24710D01*
X15840Y24460D02*
Y24760D01*
X15690D01*
X15640Y24710D01*
Y24610D01*
X15690Y24560D01*
X15840D01*
X15540Y24460D02*
X15441D01*
X15490D01*
Y24760D01*
X15540Y24710D01*
X15291D02*
X15241Y24760D01*
X15141D01*
X15091Y24710D01*
Y24660D01*
X15141Y24610D01*
X15191D01*
X15141D01*
X15091Y24560D01*
Y24510D01*
X15141Y24460D01*
X15241D01*
X15291Y24510D01*
X16990Y27510D02*
Y27810D01*
X16840D01*
X16790Y27760D01*
Y27660D01*
X16840Y27610D01*
X16990D01*
X16540Y27510D02*
Y27810D01*
X16690Y27660D01*
X16490D01*
X15790Y27510D02*
Y27810D01*
X15640D01*
X15590Y27760D01*
Y27660D01*
X15640Y27610D01*
X15790D01*
X15291Y27510D02*
X15490D01*
X15291Y27710D01*
Y27760D01*
X15341Y27810D01*
X15440D01*
X15490Y27760D01*
X15191Y27810D02*
X14991D01*
Y27760D01*
X15191Y27560D01*
Y27510D01*
X21890Y25817D02*
Y26217D01*
X21690D01*
X21623Y26150D01*
Y26017D01*
X21690Y25950D01*
X21890D01*
X21757D02*
X21623Y25817D01*
X21290D02*
X21423D01*
X21490Y25884D01*
Y26017D01*
X21423Y26084D01*
X21290D01*
X21224Y26017D01*
Y25950D01*
X21490D01*
X20824Y26217D02*
Y25817D01*
X21024D01*
X21090Y25884D01*
Y26017D01*
X21024Y26084D01*
X20824D01*
X20291Y26217D02*
Y25817D01*
X20091D01*
X20024Y25884D01*
Y25950D01*
X20091Y26017D01*
X20291D01*
X20091D01*
X20024Y26084D01*
Y26150D01*
X20091Y26217D01*
X20291D01*
X19824Y26084D02*
X19691D01*
X19624Y26017D01*
Y25817D01*
X19824D01*
X19891Y25884D01*
X19824Y25950D01*
X19624D01*
X19491Y25817D02*
X19357D01*
X19424D01*
Y26217D01*
X19491D01*
X19158Y25817D02*
X19024D01*
X19091D01*
Y26217D01*
X19158D01*
X18758Y25817D02*
X18624D01*
X18558Y25884D01*
Y26017D01*
X18624Y26084D01*
X18758D01*
X18824Y26017D01*
Y25884D01*
X18758Y25817D01*
X18358D02*
X18225D01*
X18158Y25884D01*
Y26017D01*
X18225Y26084D01*
X18358D01*
X18424Y26017D01*
Y25884D01*
X18358Y25817D01*
X18025D02*
Y26084D01*
X17825D01*
X17758Y26017D01*
Y25817D01*
X21623Y25527D02*
X21690Y25593D01*
X21823D01*
X21890Y25527D01*
Y25460D01*
X21823Y25393D01*
X21690D01*
X21623Y25327D01*
Y25260D01*
X21690Y25193D01*
X21823D01*
X21890Y25260D01*
X21290Y25193D02*
X21423D01*
X21490Y25260D01*
Y25393D01*
X21423Y25460D01*
X21290D01*
X21224Y25393D01*
Y25327D01*
X21490D01*
X20824Y25460D02*
X21024D01*
X21090Y25393D01*
Y25260D01*
X21024Y25193D01*
X20824D01*
X20690Y25460D02*
Y25260D01*
X20624Y25193D01*
X20424D01*
Y25460D01*
X20291D02*
Y25193D01*
Y25327D01*
X20224Y25393D01*
X20157Y25460D01*
X20091D01*
X19891Y25193D02*
X19757D01*
X19824D01*
Y25460D01*
X19891D01*
X19491Y25527D02*
Y25460D01*
X19557D01*
X19424D01*
X19491D01*
Y25260D01*
X19424Y25193D01*
X19224Y25460D02*
Y25260D01*
X19158Y25193D01*
X18958D01*
Y25127D01*
X19024Y25060D01*
X19091D01*
X18958Y25193D02*
Y25460D01*
X16940Y31510D02*
Y31810D01*
X16790D01*
X16740Y31760D01*
Y31660D01*
X16790Y31610D01*
X16940D01*
X16440Y31810D02*
X16640D01*
Y31660D01*
X16540Y31710D01*
X16490D01*
X16440Y31660D01*
Y31560D01*
X16490Y31510D01*
X16590D01*
X16640Y31560D01*
X15840Y31760D02*
X15890Y31810D01*
X15990D01*
X16040Y31760D01*
Y31710D01*
X15990Y31660D01*
X15890D01*
X15840Y31610D01*
Y31560D01*
X15890Y31510D01*
X15990D01*
X16040Y31560D01*
X15540Y31810D02*
X15740D01*
Y31510D01*
X15540D01*
X15740Y31660D02*
X15640D01*
X15440Y31510D02*
Y31810D01*
X15241Y31510D01*
Y31810D01*
X15141Y31510D02*
Y31810D01*
X14991D01*
X14941Y31760D01*
Y31660D01*
X14991Y31610D01*
X15141D01*
X16990Y26510D02*
Y26810D01*
X16840D01*
X16790Y26760D01*
Y26660D01*
X16840Y26610D01*
X16990D01*
X16690Y26510D02*
X16590D01*
X16640D01*
Y26810D01*
X16690Y26760D01*
X16290Y26510D02*
Y26810D01*
X16440Y26660D01*
X16240D01*
X15640Y26760D02*
X15690Y26810D01*
X15790D01*
X15840Y26760D01*
Y26560D01*
X15790Y26510D01*
X15690D01*
X15640Y26560D01*
X15540Y26810D02*
Y26510D01*
X15341D01*
X15241Y26810D02*
Y26510D01*
Y26610D01*
X15041Y26810D01*
X15191Y26660D01*
X15041Y26510D01*
X16690Y21760D02*
X16740Y21810D01*
X16840D01*
X16890Y21760D01*
Y21560D01*
X16840Y21510D01*
X16740D01*
X16690Y21560D01*
Y21660D01*
X16790D01*
X16590Y21510D02*
Y21810D01*
X16390Y21510D01*
Y21810D01*
X16290D02*
Y21510D01*
X16140D01*
X16090Y21560D01*
Y21760D01*
X16140Y21810D01*
X16290D01*
X15690Y21510D02*
Y21810D01*
X15540D01*
X15490Y21760D01*
Y21660D01*
X15540Y21610D01*
X15690D01*
X15191Y21510D02*
X15390D01*
X15191Y21710D01*
Y21760D01*
X15241Y21810D01*
X15340D01*
X15390Y21760D01*
X16990Y28510D02*
Y28810D01*
X16840D01*
X16790Y28760D01*
Y28660D01*
X16840Y28610D01*
X16990D01*
X16490Y28510D02*
X16690D01*
X16490Y28710D01*
Y28760D01*
X16540Y28810D01*
X16640D01*
X16690Y28760D01*
X16190Y28810D02*
X16390D01*
Y28660D01*
X16290Y28710D01*
X16240D01*
X16190Y28660D01*
Y28560D01*
X16240Y28510D01*
X16340D01*
X16390Y28560D01*
X15790Y28510D02*
Y28810D01*
X15640D01*
X15590Y28760D01*
Y28660D01*
X15640Y28610D01*
X15790D01*
X15291Y28510D02*
X15490D01*
X15291Y28710D01*
Y28760D01*
X15341Y28810D01*
X15440D01*
X15490Y28760D01*
X14991Y28810D02*
X15091Y28760D01*
X15191Y28660D01*
Y28560D01*
X15141Y28510D01*
X15041D01*
X14991Y28560D01*
Y28610D01*
X15041Y28660D01*
X15191D01*
X16990Y22460D02*
Y22760D01*
X16840D01*
X16790Y22710D01*
Y22610D01*
X16840Y22560D01*
X16990D01*
X16690Y22460D02*
X16590D01*
X16640D01*
Y22760D01*
X16690Y22710D01*
X16240Y22760D02*
X16440D01*
Y22610D01*
X16340Y22660D01*
X16290D01*
X16240Y22610D01*
Y22510D01*
X16290Y22460D01*
X16390D01*
X16440Y22510D01*
X15640Y22710D02*
X15690Y22760D01*
X15790D01*
X15840Y22710D01*
Y22660D01*
X15790Y22610D01*
X15690D01*
X15640Y22560D01*
Y22510D01*
X15690Y22460D01*
X15790D01*
X15840Y22510D01*
X15540Y22760D02*
Y22460D01*
X15391D01*
X15341Y22510D01*
Y22710D01*
X15391Y22760D01*
X15540D01*
X15241Y22460D02*
X15141D01*
X15191D01*
Y22760D01*
X15241Y22710D01*
X16990Y29510D02*
Y29810D01*
X16840D01*
X16790Y29760D01*
Y29660D01*
X16840Y29610D01*
X16990D01*
X16690Y29760D02*
X16640Y29810D01*
X16540D01*
X16490Y29760D01*
Y29710D01*
X16540Y29660D01*
X16590D01*
X16540D01*
X16490Y29610D01*
Y29560D01*
X16540Y29510D01*
X16640D01*
X16690Y29560D01*
X16190Y29810D02*
X16390D01*
Y29660D01*
X16290Y29710D01*
X16240D01*
X16190Y29660D01*
Y29560D01*
X16240Y29510D01*
X16340D01*
X16390Y29560D01*
X15590Y29760D02*
X15640Y29810D01*
X15740D01*
X15790Y29760D01*
Y29560D01*
X15740Y29510D01*
X15640D01*
X15590Y29560D01*
Y29660D01*
X15690D01*
X15490Y29510D02*
Y29810D01*
X15291Y29510D01*
Y29810D01*
X15191D02*
Y29510D01*
X15041D01*
X14991Y29560D01*
Y29760D01*
X15041Y29810D01*
X15191D01*
X16740Y30710D02*
X16790Y30760D01*
X16890D01*
X16940Y30710D01*
Y30660D01*
X16890Y30610D01*
X16790D01*
X16740Y30560D01*
Y30510D01*
X16790Y30460D01*
X16890D01*
X16940Y30510D01*
X16440Y30760D02*
X16640D01*
Y30460D01*
X16440D01*
X16640Y30610D02*
X16540D01*
X16340Y30460D02*
Y30760D01*
X16140Y30460D01*
Y30760D01*
X15740Y30460D02*
Y30760D01*
X15590D01*
X15540Y30710D01*
Y30610D01*
X15590Y30560D01*
X15740D01*
X15440Y30710D02*
X15390Y30760D01*
X15291D01*
X15241Y30710D01*
Y30660D01*
X15291Y30610D01*
X15341D01*
X15291D01*
X15241Y30560D01*
Y30510D01*
X15291Y30460D01*
X15390D01*
X15440Y30510D01*
X14991Y30460D02*
Y30760D01*
X15141Y30610D01*
X14941D01*
X17040Y25510D02*
Y25810D01*
X16890D01*
X16840Y25760D01*
Y25660D01*
X16890Y25610D01*
X17040D01*
X16740Y25510D02*
X16640D01*
X16690D01*
Y25810D01*
X16740Y25760D01*
X16290Y25510D02*
X16490D01*
X16290Y25710D01*
Y25760D01*
X16340Y25810D01*
X16440D01*
X16490Y25760D01*
X15690D02*
X15740Y25810D01*
X15840D01*
X15890Y25760D01*
Y25560D01*
X15840Y25510D01*
X15740D01*
X15690Y25560D01*
X15590Y25510D02*
Y25810D01*
X15490Y25710D01*
X15391Y25810D01*
Y25510D01*
X15291Y25810D02*
Y25510D01*
X15141D01*
X15091Y25560D01*
Y25760D01*
X15141Y25810D01*
X15291D01*
X16890Y23710D02*
X16940Y23760D01*
X17040D01*
X17090Y23710D01*
Y23660D01*
X17040Y23610D01*
X16940D01*
X16890Y23560D01*
Y23510D01*
X16940Y23460D01*
X17040D01*
X17090Y23510D01*
X16790Y23760D02*
Y23460D01*
X16640D01*
X16590Y23510D01*
Y23710D01*
X16640Y23760D01*
X16790D01*
X16490Y23710D02*
X16440Y23760D01*
X16340D01*
X16290Y23710D01*
Y23510D01*
X16340Y23460D01*
X16440D01*
X16490Y23510D01*
Y23710D01*
X15690D02*
X15740Y23760D01*
X15840D01*
X15890Y23710D01*
Y23660D01*
X15840Y23610D01*
X15740D01*
X15690Y23560D01*
Y23510D01*
X15740Y23460D01*
X15840D01*
X15890Y23510D01*
X15590Y23760D02*
Y23460D01*
X15441D01*
X15391Y23510D01*
Y23710D01*
X15441Y23760D01*
X15590D01*
X15291Y23710D02*
X15241Y23760D01*
X15141D01*
X15091Y23710D01*
Y23660D01*
X15141Y23610D01*
X15191D01*
X15141D01*
X15091Y23560D01*
Y23510D01*
X15141Y23460D01*
X15241D01*
X15291Y23510D01*
D13*
X16750Y33500D02*
Y33760D01*
X16620D01*
X16577Y33717D01*
Y33630D01*
X16620Y33587D01*
X16750D01*
X16317Y33500D02*
X16490D01*
X16317Y33673D01*
Y33717D01*
X16360Y33760D01*
X16447D01*
X16490Y33717D01*
X16230D02*
X16187Y33760D01*
X16100D01*
X16057Y33717D01*
Y33673D01*
X16100Y33630D01*
X16144D01*
X16100D01*
X16057Y33587D01*
Y33543D01*
X16100Y33500D01*
X16187D01*
X16230Y33543D01*
X15537Y33717D02*
X15580Y33760D01*
X15667D01*
X15710Y33717D01*
Y33543D01*
X15667Y33500D01*
X15580D01*
X15537Y33543D01*
Y33630D01*
X15624D01*
X15450Y33500D02*
Y33760D01*
X15277Y33500D01*
Y33760D01*
X15191D02*
Y33500D01*
X15061D01*
X15017Y33543D01*
Y33717D01*
X15061Y33760D01*
X15191D01*
X19150Y16899D02*
X19050D01*
X19100D01*
Y16599D01*
X19150D01*
X19050D01*
X18700D02*
X18900D01*
X18700Y16799D01*
Y16849D01*
X18750Y16899D01*
X18850D01*
X18900Y16849D01*
X18400D02*
X18450Y16899D01*
X18550D01*
X18600Y16849D01*
Y16649D01*
X18550Y16599D01*
X18450D01*
X18400Y16649D01*
X18300Y16549D02*
X18100D01*
X17800Y16849D02*
X17850Y16899D01*
X17950D01*
X18000Y16849D01*
Y16799D01*
X17950Y16749D01*
X17850D01*
X17800Y16699D01*
Y16649D01*
X17850Y16599D01*
X17950D01*
X18000Y16649D01*
X17501Y16849D02*
X17551Y16899D01*
X17650D01*
X17700Y16849D01*
Y16649D01*
X17650Y16599D01*
X17551D01*
X17501Y16649D01*
X17401Y16899D02*
Y16599D01*
X17201D01*
X16901D02*
X17101D01*
X16901Y16799D01*
Y16849D01*
X16951Y16899D01*
X17051D01*
X17101Y16849D01*
X16501Y16899D02*
X16401D01*
X16451D01*
Y16599D01*
X16501D01*
X16401D01*
X16101Y16899D02*
X16201D01*
X16251Y16849D01*
Y16649D01*
X16201Y16599D01*
X16101D01*
X16051Y16649D01*
Y16849D01*
X16101Y16899D01*
X15751Y16599D02*
X15951D01*
X15751Y16799D01*
Y16849D01*
X15801Y16899D01*
X15901D01*
X15951Y16849D01*
X15651Y16599D02*
X15551D01*
X15601D01*
Y16899D01*
X15651Y16849D01*
X19150Y16369D02*
X19050D01*
X19100D01*
Y16069D01*
X19150D01*
X19050D01*
X18700D02*
X18900D01*
X18700Y16269D01*
Y16319D01*
X18750Y16369D01*
X18850D01*
X18900Y16319D01*
X18400D02*
X18450Y16369D01*
X18550D01*
X18600Y16319D01*
Y16119D01*
X18550Y16069D01*
X18450D01*
X18400Y16119D01*
X18300Y16020D02*
X18100D01*
X17800Y16319D02*
X17850Y16369D01*
X17950D01*
X18000Y16319D01*
Y16269D01*
X17950Y16219D01*
X17850D01*
X17800Y16169D01*
Y16119D01*
X17850Y16069D01*
X17950D01*
X18000Y16119D01*
X17700Y16369D02*
Y16069D01*
X17551D01*
X17501Y16119D01*
Y16319D01*
X17551Y16369D01*
X17700D01*
X17401Y16069D02*
Y16269D01*
X17301Y16369D01*
X17201Y16269D01*
Y16069D01*
Y16219D01*
X17401D01*
X16901Y16069D02*
X17101D01*
X16901Y16269D01*
Y16319D01*
X16951Y16369D01*
X17051D01*
X17101Y16319D01*
X16501Y16369D02*
X16401D01*
X16451D01*
Y16069D01*
X16501D01*
X16401D01*
X16101Y16369D02*
X16201D01*
X16251Y16319D01*
Y16119D01*
X16201Y16069D01*
X16101D01*
X16051Y16119D01*
Y16319D01*
X16101Y16369D01*
X15751Y16069D02*
X15951D01*
X15751Y16269D01*
Y16319D01*
X15801Y16369D01*
X15901D01*
X15951Y16319D01*
X15451Y16069D02*
X15651D01*
X15451Y16269D01*
Y16319D01*
X15501Y16369D01*
X15601D01*
X15651Y16319D01*
X19150Y15540D02*
Y15840D01*
X19000D01*
X18950Y15790D01*
Y15690D01*
X19000Y15640D01*
X19150D01*
X19050D02*
X18950Y15540D01*
X18850Y15840D02*
X18650Y15540D01*
Y15840D02*
X18850Y15540D01*
X18550Y15840D02*
Y15540D01*
X18400D01*
X18350Y15590D01*
Y15790D01*
X18400Y15840D01*
X18550D01*
X18050Y15540D02*
X18250D01*
X18050Y15740D01*
Y15790D01*
X18100Y15840D01*
X18200D01*
X18250Y15790D01*
X17650Y15840D02*
X17551D01*
X17601D01*
Y15540D01*
X17650D01*
X17551D01*
X17251Y15840D02*
X17351D01*
X17401Y15790D01*
Y15590D01*
X17351Y15540D01*
X17251D01*
X17201Y15590D01*
Y15790D01*
X17251Y15840D01*
X17101Y15540D02*
X17001D01*
X17051D01*
Y15840D01*
X17101Y15790D01*
X16651Y15840D02*
X16751Y15790D01*
X16851Y15690D01*
Y15590D01*
X16801Y15540D01*
X16701D01*
X16651Y15590D01*
Y15640D01*
X16701Y15690D01*
X16851D01*
X19150Y15360D02*
X18950D01*
X19050D01*
Y15060D01*
X18850Y15360D02*
X18650Y15060D01*
Y15360D02*
X18850Y15060D01*
X18550Y15360D02*
Y15060D01*
X18400D01*
X18350Y15110D01*
Y15310D01*
X18400Y15360D01*
X18550D01*
X18050Y15060D02*
X18250D01*
X18050Y15260D01*
Y15310D01*
X18100Y15360D01*
X18200D01*
X18250Y15310D01*
X17650Y15360D02*
X17551D01*
X17601D01*
Y15060D01*
X17650D01*
X17551D01*
X17251Y15360D02*
X17351D01*
X17401Y15310D01*
Y15110D01*
X17351Y15060D01*
X17251D01*
X17201Y15110D01*
Y15310D01*
X17251Y15360D01*
X17101Y15060D02*
X17001D01*
X17051D01*
Y15360D01*
X17101Y15310D01*
X16851Y15360D02*
X16651D01*
Y15310D01*
X16851Y15110D01*
Y15060D01*
X19150Y14880D02*
X19050D01*
X19100D01*
Y14580D01*
X19150D01*
X19050D01*
X18700D02*
X18900D01*
X18700Y14780D01*
Y14830D01*
X18750Y14880D01*
X18850D01*
X18900Y14830D01*
X18400D02*
X18450Y14880D01*
X18550D01*
X18600Y14830D01*
Y14630D01*
X18550Y14580D01*
X18450D01*
X18400Y14630D01*
X18300Y14530D02*
X18100D01*
X17800Y14830D02*
X17850Y14880D01*
X17950D01*
X18000Y14830D01*
Y14780D01*
X17950Y14730D01*
X17850D01*
X17800Y14680D01*
Y14630D01*
X17850Y14580D01*
X17950D01*
X18000Y14630D01*
X17501Y14830D02*
X17551Y14880D01*
X17650D01*
X17700Y14830D01*
Y14630D01*
X17650Y14580D01*
X17551D01*
X17501Y14630D01*
X17401Y14880D02*
Y14580D01*
X17201D01*
X16801Y14880D02*
X16701D01*
X16751D01*
Y14580D01*
X16801D01*
X16701D01*
X16401Y14880D02*
X16501D01*
X16551Y14830D01*
Y14630D01*
X16501Y14580D01*
X16401D01*
X16351Y14630D01*
Y14830D01*
X16401Y14880D01*
X16251Y14580D02*
X16151D01*
X16201D01*
Y14880D01*
X16251Y14830D01*
X16001D02*
X15951Y14880D01*
X15851D01*
X15801Y14830D01*
Y14780D01*
X15851Y14730D01*
X15801Y14680D01*
Y14630D01*
X15851Y14580D01*
X15951D01*
X16001Y14630D01*
Y14680D01*
X15951Y14730D01*
X16001Y14780D01*
Y14830D01*
X15951Y14730D02*
X15851D01*
X19150Y14350D02*
X19050D01*
X19100D01*
Y14050D01*
X19150D01*
X19050D01*
X18700D02*
X18900D01*
X18700Y14250D01*
Y14300D01*
X18750Y14350D01*
X18850D01*
X18900Y14300D01*
X18400D02*
X18450Y14350D01*
X18550D01*
X18600Y14300D01*
Y14100D01*
X18550Y14050D01*
X18450D01*
X18400Y14100D01*
X18300Y14000D02*
X18100D01*
X17800Y14300D02*
X17850Y14350D01*
X17950D01*
X18000Y14300D01*
Y14250D01*
X17950Y14200D01*
X17850D01*
X17800Y14150D01*
Y14100D01*
X17850Y14050D01*
X17950D01*
X18000Y14100D01*
X17700Y14350D02*
Y14050D01*
X17551D01*
X17501Y14100D01*
Y14300D01*
X17551Y14350D01*
X17700D01*
X17401Y14050D02*
Y14250D01*
X17301Y14350D01*
X17201Y14250D01*
Y14050D01*
Y14200D01*
X17401D01*
X16801Y14350D02*
X16701D01*
X16751D01*
Y14050D01*
X16801D01*
X16701D01*
X16401Y14350D02*
X16501D01*
X16551Y14300D01*
Y14100D01*
X16501Y14050D01*
X16401D01*
X16351Y14100D01*
Y14300D01*
X16401Y14350D01*
X16251Y14050D02*
X16151D01*
X16201D01*
Y14350D01*
X16251Y14300D01*
X16001Y14100D02*
X15951Y14050D01*
X15851D01*
X15801Y14100D01*
Y14300D01*
X15851Y14350D01*
X15951D01*
X16001Y14300D01*
Y14250D01*
X15951Y14200D01*
X15801D01*
X16527Y32767D02*
X16570Y32810D01*
X16657D01*
X16700Y32767D01*
Y32593D01*
X16657Y32550D01*
X16570D01*
X16527Y32593D01*
Y32680D01*
X16613D01*
X16440Y32550D02*
Y32810D01*
X16267Y32550D01*
Y32810D01*
X16180D02*
Y32550D01*
X16050D01*
X16007Y32593D01*
Y32767D01*
X16050Y32810D01*
X16180D01*
X15660D02*
Y32637D01*
X15574Y32550D01*
X15487Y32637D01*
Y32810D01*
X15227Y32767D02*
X15270Y32810D01*
X15357D01*
X15400Y32767D01*
Y32593D01*
X15357Y32550D01*
X15270D01*
X15227Y32593D01*
X14967Y32767D02*
X15011Y32810D01*
X15097D01*
X15141Y32767D01*
Y32593D01*
X15097Y32550D01*
X15011D01*
X14967Y32593D01*
X22129Y13450D02*
X22379D01*
X22429Y13400D01*
Y13300D01*
X22379Y13250D01*
X22129D01*
X22429Y12950D02*
Y13150D01*
X22229Y12950D01*
X22179D01*
X22129Y13000D01*
Y13100D01*
X22179Y13150D01*
X22229Y17800D02*
X22479D01*
X22529Y17750D01*
Y17650D01*
X22479Y17600D01*
X22229D01*
X22529Y17500D02*
Y17400D01*
Y17450D01*
X22229D01*
X22279Y17500D01*
D88*
X21270Y19030D02*
Y19430D01*
X20970D01*
X20870Y19330D01*
Y19030D01*
X20670Y19430D02*
Y19130D01*
X20570Y19030D01*
X20270D01*
Y18930D01*
X20370Y18830D01*
X20470D01*
X20270Y19030D02*
Y19430D01*
X19970D02*
X19770D01*
X19671Y19330D01*
Y19030D01*
X19970D01*
X20070Y19130D01*
X19970Y19230D01*
X19671D01*
X19471Y19030D02*
Y19430D01*
X19171D01*
X19071Y19330D01*
Y19030D01*
X18871Y19330D02*
X18471D01*
X18271Y19030D02*
X17971D01*
X17871Y19130D01*
X17971Y19230D01*
X18171D01*
X18271Y19330D01*
X18171Y19430D01*
X17871D01*
X17571D02*
X17371D01*
X17271Y19330D01*
Y19030D01*
X17571D01*
X17671Y19130D01*
X17571Y19230D01*
X17271D01*
X16971Y19530D02*
Y19430D01*
X17071D01*
X16871D01*
X16971D01*
Y19130D01*
X16871Y19030D01*
X16572D02*
Y19130D01*
X16472D01*
Y19030D01*
X16572D01*
X15672Y19430D02*
X15972D01*
X16072Y19330D01*
Y19130D01*
X15972Y19030D01*
X15672D01*
X15372D02*
X15172D01*
X15072Y19130D01*
Y19330D01*
X15172Y19430D01*
X15372D01*
X15472Y19330D01*
Y19130D01*
X15372Y19030D01*
X14872D02*
Y19430D01*
X14772D01*
X14672Y19330D01*
Y19030D01*
Y19330D01*
X14572Y19430D01*
X14472Y19330D01*
Y19030D01*
M02*
